<svg xmlns="http://www.w3.org/2000/svg" width="129" height="129" viewBox="0 0 129 129" fill="none">
<path d="M32.6499 70.9202L47.6499 55.9202" stroke="#1570EF" stroke-width="2.5" stroke-linecap="round"/>
<path d="M29 82.6699C32.4518 82.6699 35.25 79.8717 35.25 76.4199C35.25 72.9681 32.4518 70.1699 29 70.1699C25.5482 70.1699 22.75 72.9681 22.75 76.4199C22.75 79.8717 25.5482 82.6699 29 82.6699Z" stroke="#1570EF" stroke-width="2.5" stroke-linecap="round"/>
<path d="M23.5 115.92V97.9199C23.5 96.8199 24.4 95.9199 25.5 95.9199H34.5C35.6 95.9199 36.5 96.8199 36.5 97.9199V115.92" stroke="#1570EF" stroke-width="2.5" stroke-linecap="round"/>
<path d="M57.6499 55.9202L73.1499 70.4202" stroke="#1570EF" stroke-width="2.5" stroke-linecap="round"/>
<path d="M52.1499 57.6702C55.6017 57.6702 58.3999 54.8719 58.3999 51.4202C58.3999 47.9684 55.6017 45.1702 52.1499 45.1702C48.6981 45.1702 45.8999 47.9684 45.8999 51.4202C45.8999 54.8719 48.6981 57.6702 52.1499 57.6702Z" stroke="#1570EF" stroke-width="2.5" stroke-linecap="round"/>
<path d="M78.1499 80.6702C81.6017 80.6702 84.3999 77.8719 84.3999 74.4202C84.3999 70.9684 81.6017 68.1702 78.1499 68.1702C74.6981 68.1702 71.8999 70.9684 71.8999 74.4202C71.8999 77.8719 74.6981 80.6702 78.1499 80.6702Z" stroke="#1570EF" stroke-width="2.5" stroke-linecap="round"/>
<path d="M46.6499 115.92V75.9199C46.6499 74.8199 47.5499 73.9199 48.6499 73.9199H58.6499C59.7499 73.9199 60.6499 74.8199 60.6499 75.9199V115.92" stroke="#1570EF" stroke-width="2.5" stroke-linecap="round"/>
<path d="M70.6499 115.92V92.9199C70.6499 91.8199 71.5499 90.9199 72.6499 90.9199H82.6499C83.7499 90.9199 84.6499 91.8199 84.6499 92.9199V115.92" stroke="#1570EF" stroke-width="2.5" stroke-linecap="round"/>
<path d="M94.6499 115.92V77.9199C94.6499 76.8199 95.5499 75.9199 96.6499 75.9199H106.65C107.76 75.9199 108.65 76.8199 108.65 77.9199V115.92" stroke="#1570EF" stroke-width="2.5" stroke-linecap="round"/>
<path d="M12.1499 116.92H119.15" stroke="#1570EF" stroke-width="2.5" stroke-linecap="round"/>
<path d="M96.1199 45.7301C101.052 45.7301 105.05 41.732 105.05 36.8001C105.05 31.8682 101.052 27.8701 96.1199 27.8701C91.188 27.8701 87.1899 31.8682 87.1899 36.8001C87.1899 41.732 91.188 45.7301 96.1199 45.7301Z" stroke="#1570EF" stroke-width="2.5" stroke-linecap="round"/>
<path d="M118.85 39.2301V34.3601C118.85 33.0201 117.76 31.9301 116.42 31.9301H115.92C114.89 31.9301 113.99 31.2801 113.63 30.3101C113.47 29.8701 113.29 29.4401 113.09 29.0201C112.66 28.0801 112.83 26.9801 113.56 26.2501L113.91 25.9001C114.86 24.9501 114.86 23.4101 113.91 22.4601L110.47 19.0201C109.52 18.0701 107.98 18.0701 107.03 19.0201L106.68 19.3701C105.95 20.1001 104.85 20.2701 103.91 19.8401C103.49 19.6501 103.06 19.4701 102.62 19.3001C101.65 18.9401 101 18.0401 101 17.0101V16.5101C101 15.1701 99.9099 14.0801 98.5699 14.0801H93.6999C92.3599 14.0801 91.2699 15.1701 91.2699 16.5101V17.0101C91.2699 18.0401 90.6199 18.9401 89.6499 19.3001C89.2099 19.4601 88.7799 19.6401 88.3599 19.8401C87.4199 20.2701 86.3199 20.1001 85.5899 19.3701L85.2399 19.0201C84.2899 18.0701 82.7499 18.0701 81.7999 19.0201L78.3599 22.4601C77.4099 23.4101 77.4099 24.9501 78.3599 25.9001L78.7099 26.2501C79.4399 26.9801 79.6099 28.0801 79.1799 29.0201C78.9899 29.4401 78.8099 29.8701 78.6399 30.3101C78.2799 31.2801 77.3799 31.9301 76.3499 31.9301H75.8499C74.5099 31.9301 73.4199 33.0201 73.4199 34.3601V39.2301C73.4199 40.5701 74.5099 41.6601 75.8499 41.6601H76.3499C77.3799 41.6601 78.2799 42.3101 78.6399 43.2801C78.7999 43.7201 78.9799 44.1501 79.1799 44.5701C79.6099 45.5101 79.4399 46.6101 78.7099 47.3401L78.3599 47.6901C77.4099 48.6401 77.4099 50.1801 78.3599 51.1301L81.7999 54.5701C82.7499 55.5201 84.2899 55.5201 85.2399 54.5701L85.5899 54.2201C86.3199 53.4901 87.4199 53.3201 88.3599 53.7501C88.7799 53.9401 89.2099 54.1201 89.6499 54.2901C90.6199 54.6501 91.2699 55.5501 91.2699 56.5801V57.0801C91.2699 58.4201 92.3599 59.5101 93.6999 59.5101H98.5699C99.9099 59.5101 101 58.4201 101 57.0801V56.5801C101 55.5501 101.65 54.6501 102.62 54.2901C103.06 54.1301 103.49 53.9501 103.91 53.7501C104.85 53.3201 105.95 53.4901 106.68 54.2201L107.03 54.5701C107.98 55.5201 109.52 55.5201 110.47 54.5701L113.91 51.1301C114.86 50.1801 114.86 48.6401 113.91 47.6901L113.56 47.3401C112.83 46.6101 112.66 45.5101 113.09 44.5701C113.28 44.1501 113.46 43.7201 113.63 43.2801C113.99 42.3101 114.89 41.6601 115.92 41.6601H116.42C117.76 41.6601 118.85 40.5701 118.85 39.2301Z" stroke="#1570EF" stroke-width="2.5" stroke-linecap="round"/>
</svg>