<svg xmlns="http://www.w3.org/2000/svg" width="87" height="88" viewBox="0 0 87 88" fill="none">
<circle cx="29.3449" cy="47.7977" r="23.2619" stroke="#1570EF" stroke-width="2.5"/>
<path d="M41.774 37.4405V56.5C41.774 57.6045 40.8786 58.5 39.774 58.5H20.2979C19.1933 58.5 18.2979 57.6045 18.2979 56.5V39.0952C18.2979 37.9906 19.1933 37.0952 20.2979 37.0952H32.1788C33.2834 37.0952 34.1788 37.9906 34.1788 39.0952V55.0476" stroke="#1570EF" stroke-width="2.5" stroke-linecap="round"/>
<path d="M43.5 22.1849V11.0952C43.5 9.43836 44.8431 8.09521 46.5 8.09521H57.0714C58.7283 8.09521 60.0714 9.43836 60.0714 11.0952V30.1905" stroke="#1570EF" stroke-width="2.5" stroke-linecap="round"/>
<path d="M60.0713 46.762V58.5001" stroke="#1570EF" stroke-width="2.5" stroke-linecap="round"/>
<path d="M60.0713 35.7142V41.9285" stroke="#1570EF" stroke-width="2.5" stroke-linecap="round"/>
<path d="M57.3096 58.5H82.8572" stroke="#1570EF" stroke-width="2.5" stroke-linecap="round"/>
<path d="M66.9766 58.5001V26.2858C66.9766 24.6289 68.3197 23.2858 69.9766 23.2858H77.0956C78.7525 23.2858 80.0956 24.6289 80.0956 26.2858V58.5001" stroke="#1570EF" stroke-width="2.5" stroke-linecap="round"/>
<path d="M41.0838 68.8572L50.7805 78.8975C52.8664 81.0572 56.3178 81.0873 58.441 78.9641V78.9641C60.5383 76.8668 60.5383 73.4664 58.441 71.3691L51.7861 64.7143" stroke="#1570EF" stroke-width="2.5" stroke-linecap="round"/>
</svg>