<svg xmlns="http://www.w3.org/2000/svg" width="87" height="88" viewBox="0 0 87 88" fill="none">
<path d="M13.1509 7.91858H11.0928C9.43592 7.91858 8.09277 9.26172 8.09277 10.9186V14.3604C8.09277 16.0173 9.43593 17.3604 11.0928 17.3604H76.5811C78.238 17.3604 79.5811 16.0173 79.5811 14.3604V10.9186C79.5811 9.26172 78.238 7.91858 76.5811 7.91858H23.9416" stroke="#1570EF" stroke-width="2.5" stroke-linecap="round"/>
<path d="M12.4766 17.3605V23.4302" stroke="#1570EF" stroke-width="2.5" stroke-linecap="round"/>
<path d="M12.4766 30.1744V51.1744C12.4766 55.5927 16.0583 59.1744 20.4766 59.1744H66.8603C71.2786 59.1744 74.8603 55.5927 74.8603 51.1744V17.3605" stroke="#1570EF" stroke-width="2.5" stroke-linecap="round"/>
<path d="M21.5811 22.7559L28.9997 30.1745" stroke="#1570EF" stroke-width="2.5" stroke-linecap="round"/>
<path d="M29 22.7559L21.5814 30.1745" stroke="#1570EF" stroke-width="2.5" stroke-linecap="round"/>
<path d="M60.0234 45.686L67.442 53.1046" stroke="#1570EF" stroke-width="2.5" stroke-linecap="round"/>
<path d="M67.4424 45.686L60.0238 53.1046" stroke="#1570EF" stroke-width="2.5" stroke-linecap="round"/>
<path d="M34.0586 47.7093C38.6671 46.5852 49.233 41.3023 56.3144 32.1976" stroke="#1570EF" stroke-width="2.5" stroke-linecap="round"/>
<path d="M51.9307 31.8605H55.9888C56.5411 31.8605 56.9888 32.3082 56.9888 32.8605V37.2558" stroke="#1570EF" stroke-width="2.5" stroke-linecap="round"/>
<path d="M67.5405 25.4535C67.5405 27.3704 65.9865 28.9244 64.0696 28.9244C62.1526 28.9244 60.5986 27.3704 60.5986 25.4535C60.5986 23.5365 62.1526 21.9825 64.0696 21.9825C65.9865 21.9825 67.5405 23.5365 67.5405 25.4535Z" stroke="#1570EF" stroke-width="2.5"/>
<path d="M15.8489 79.7442L27.6512 59.1744M11.1279 79.7442H76.8837" stroke="#1570EF" stroke-width="2.5" stroke-linecap="round"/>
<path d="M60.3604 59.1744L72.1627 79.7442" stroke="#1570EF" stroke-width="2.5" stroke-linecap="round"/>
<path d="M51.9307 59.1744L63.733 79.7442" stroke="#1570EF" stroke-width="2.5" stroke-linecap="round"/>
<path d="M36.0811 59.1744L24.2787 79.7442" stroke="#1570EF" stroke-width="2.5" stroke-linecap="round"/>
<circle cx="25.6282" cy="51.0814" r="3.47093" stroke="#1570EF" stroke-width="2.5"/>
</svg>