<svg xmlns="http://www.w3.org/2000/svg" width="87" height="88" viewBox="0 0 87 88" fill="none">
<path d="M35.5624 78.5238H10.4522C6.58616 78.5238 3.45215 75.3898 3.45215 71.5238V68.8572H83.5474V71.5238C83.5474 75.3898 80.4134 78.5238 76.5474 78.5238H51.0763" stroke="#1570EF" stroke-width="2.5" stroke-linecap="round"/>
<path d="M46.6068 78.5238H41.7734" stroke="#1570EF" stroke-width="2.5" stroke-linecap="round"/>
<path d="M9.66699 68.8571V18.1666C9.66699 13.7484 13.2487 10.1666 17.667 10.1666H70.0241C74.4424 10.1666 78.0241 13.7483 78.0241 18.1666V68.8571" stroke="#1570EF" stroke-width="2.5"/>
<path d="M19.9199 59.1904H51.3642" stroke="#1570EF" stroke-width="2.5" stroke-linecap="round"/>
<path d="M58.8838 59.1904H67.0866" stroke="#1570EF" stroke-width="2.5" stroke-linecap="round"/>
<path d="M57.6335 58.8452C57.6335 60.2641 56.4981 61.3928 55.1239 61.3928C53.7497 61.3928 52.6143 60.2641 52.6143 58.8452C52.6143 57.4263 53.7497 56.2976 55.1239 56.2976C56.4981 56.2976 57.6335 57.4263 57.6335 58.8452Z" stroke="#1570EF" stroke-width="2.5"/>
<rect x="21.8535" y="20.3928" width="43.2993" height="28.5714" rx="3.75" stroke="#1570EF" stroke-width="2.5"/>
<path d="M41.183 30.4622L46.848 34.117C47.3074 34.4133 47.3074 35.0911 46.848 35.3874L41.183 39.0422C40.6863 39.3627 40.0351 39.0023 40.0351 38.407L40.0351 31.0974C40.0351 30.5021 40.6863 30.1417 41.183 30.4622Z" stroke="#1570EF" stroke-width="2.5"/>
</svg>