<svg xmlns="http://www.w3.org/2000/svg" width="87" height="88" viewBox="0 0 87 88" fill="none">
<path d="M17.5344 34.0194L38.3962 42.8184C41.875 44.2856 45.7989 44.2856 49.2776 42.8184L79.0973 30.2411C81.5428 29.2097 81.5428 25.7442 79.0973 24.7127L49.2777 12.1355C45.7989 10.6682 41.8749 10.6682 38.3962 12.1355L8.09258 24.9169C5.82765 25.8721 5.82765 29.0817 8.09258 30.037V30.037" stroke="#1570EF" stroke-width="2.5" stroke-linecap="round"/>
<path d="M20.2324 40.9651V58.7032C20.2324 66.7853 30.3477 73.3372 42.8254 73.3372C55.3032 73.3372 65.4185 66.7853 65.4185 58.7032V49.3907" stroke="#1570EF" stroke-width="2.5" stroke-linecap="round"/>
<path d="M42.8254 66.5931C30.3477 66.5931 20.2324 60.0412 20.2324 51.9591V35.5698M65.4185 42.6466V51.9591C65.4185 55.5806 63.3875 58.8948 60.0231 61.45M48.2208 66.1732C51.6235 65.6332 54.7236 64.5939 57.3254 63.1821" stroke="#1570EF" stroke-width="2.5" stroke-linecap="round"/>
<path d="M50.6806 26.8024C50.6806 27.2191 50.3325 27.9023 49.0807 28.5555C47.8894 29.177 46.1569 29.5989 44.1748 29.5989C42.1926 29.5989 40.4601 29.177 39.2688 28.5555C38.017 27.9023 37.6689 27.2191 37.6689 26.8024C37.6689 26.3856 38.017 25.7024 39.2688 25.0493C40.4601 24.4277 42.1926 24.0059 44.1748 24.0059C46.1569 24.0059 47.8894 24.4277 49.0807 25.0493C50.3325 25.7024 50.6806 26.3856 50.6806 26.8024Z" stroke="#1570EF" stroke-width="2.5"/>
<path d="M15.6104 60.5232C15.6104 61.6952 14.6603 62.6453 13.4883 62.6453C12.3163 62.6453 11.3662 61.6952 11.3662 60.5232C11.3662 59.3512 12.3163 58.4011 13.4883 58.4011C14.6603 58.4011 15.6104 59.3512 15.6104 60.5232Z" stroke="#1570EF" stroke-width="2.5"/>
<rect x="10.6914" y="64.4709" width="5.59302" height="10.9884" rx="2.79651" stroke="#1570EF" stroke-width="2.5"/>
<path d="M13.4883 57.4884V32.0292C13.4883 31.5421 13.8392 31.1259 14.3193 31.0436L37.0929 27.1395" stroke="#1570EF" stroke-width="2.5" stroke-linecap="round"/>
</svg>