<svg xmlns="http://www.w3.org/2000/svg" width="87" height="88" viewBox="0 0 87 88" fill="none">
<rect x="41.041" y="32.0989" width="15.0349" height="21.7791" rx="7.51744" stroke="#1570EF" stroke-width="2.5"/>
<path d="M57.4188 45.9089C59.455 43.6649 60.6976 40.6735 60.6976 37.3888C60.6976 30.4246 55.1116 24.7791 48.2209 24.7791C41.3302 24.7791 35.7441 30.4246 35.7441 37.3888C35.7441 40.8991 37.1633 44.0743 39.4534 46.3604" stroke="#1570EF" stroke-width="2.5" stroke-linecap="round"/>
<path d="M32.0349 38.2674L26.5941 36.9541C25.5562 36.7036 25.5806 35.219 26.6261 35.0027L32.0349 33.8837" stroke="#1570EF" stroke-width="2.5" stroke-linecap="round"/>
<path d="M64.8371 38.2674L70.278 36.9541C71.3158 36.7036 71.2915 35.219 70.246 35.0027L64.8371 33.8837" stroke="#1570EF" stroke-width="2.5" stroke-linecap="round"/>
<path d="M61.883 26.1558L64.6296 21.2789C65.1535 20.3487 64.0504 19.3548 63.1797 19.9726L58.6748 23.1684" stroke="#1570EF" stroke-width="2.5" stroke-linecap="round"/>
<path d="M33.6405 26.1558L30.8938 21.2789C30.3699 20.3487 31.473 19.3548 32.3438 19.9726L36.8487 23.1684" stroke="#1570EF" stroke-width="2.5" stroke-linecap="round"/>
<path d="M45.8604 19.721L47.1737 14.2801C47.4242 13.2423 48.9088 13.2667 49.1251 14.3121L50.2441 19.721" stroke="#1570EF" stroke-width="2.5" stroke-linecap="round"/>
<path d="M30.0117 80.4186L55.7624 57.6778C55.9006 57.5557 56.0786 57.4884 56.2629 57.4884H58.6745C62.7717 57.4884 66.0931 60.8098 66.0931 64.907V64.907" stroke="#1570EF" stroke-width="2.5" stroke-linecap="round"/>
<path d="M36.0811 80.7559H45.2717C45.6349 80.7559 45.9695 80.559 46.1459 80.2415L52.6043 68.6163" stroke="#1570EF" stroke-width="2.5" stroke-linecap="round"/>
<path d="M51.9307 80.7559L55.9772 80.7559" stroke="#1570EF" stroke-width="2.5" stroke-linecap="round"/>
<circle cx="75.535" cy="74.0117" r="4.14535" stroke="#1570EF" stroke-width="2.5"/>
<path d="M43.8369 61.8721L39.7405 58.0908C39.5558 57.9203 39.3136 57.8256 39.0622 57.8256H35.7636C35.5328 57.8256 35.3091 57.7457 35.1304 57.5996L25.039 49.343C24.617 48.9976 23.9961 49.0541 23.6433 49.4699L15.3896 59.1975C15.0713 59.5726 15.0731 60.1235 15.3939 60.4965L29.3369 76.7093" stroke="#1570EF" stroke-width="2.5" stroke-linecap="round"/>
<path d="M16.148 57.3293L13.8252 46.3605" stroke="#1570EF" stroke-width="2.5" stroke-linecap="round"/>
<path d="M23.2673 49.7325L20.2324 42.6511" stroke="#1570EF" stroke-width="2.5" stroke-linecap="round"/>
<mask id="path-15-inside-1_14173_1694" fill="white">
<rect x="6.06934" y="22.0814" width="16.8605" height="6.74418" rx="2"/>
</mask>
<rect x="6.06934" y="22.0814" width="16.8605" height="6.74418" rx="2" stroke="#1570EF" stroke-width="5" mask="url(#path-15-inside-1_14173_1694)"/>
<path d="M9.7793 29.1628L12.6417 42.2028C12.7424 42.6616 13.1488 42.9884 13.6185 42.9884H16.0091C16.4999 42.9884 16.9181 42.6322 16.9963 42.1477L18.5467 32.5349" stroke="#1570EF" stroke-width="2.5" stroke-linecap="round"/>
<path d="M66.0928 64.907C67.0376 64.907 72.7047 64.907 76.4392 64.907C77.141 64.907 77.6243 65.611 77.3724 66.266L76.2091 69.2907" stroke="#1570EF" stroke-width="2.5" stroke-linecap="round"/>
<path d="M63.3949 72.3256L61.1148 79.451C60.9083 80.0963 61.3897 80.7558 62.0672 80.7558H71.5443C71.9231 80.7558 72.2694 80.5418 72.4388 80.203L73.5112 78.0581" stroke="#1570EF" stroke-width="2.5" stroke-linecap="round"/>
<path d="M18.3081 16.5704C18.3081 18.0354 16.9067 19.4826 14.8371 19.4826C12.7676 19.4826 11.3662 18.0354 11.3662 16.5704C11.3662 16.2491 11.5081 15.6499 11.8447 14.8279C12.166 14.0433 12.614 13.1761 13.1036 12.3667C13.5953 11.554 14.1063 10.837 14.5418 10.34C14.6525 10.2136 14.7513 10.1096 14.8371 10.026C14.923 10.1096 15.0218 10.2136 15.1325 10.34C15.5679 10.837 16.079 11.554 16.5707 12.3667C17.0603 13.1761 17.5083 14.0433 17.8296 14.8279C18.1662 15.6499 18.3081 16.2491 18.3081 16.5704ZM15.136 9.78039C15.1359 9.78093 15.1297 9.7848 15.1176 9.79036C15.1301 9.78263 15.1361 9.77985 15.136 9.78039ZM14.5566 9.79036C14.5446 9.7848 14.5384 9.78093 14.5383 9.78039C14.5382 9.77985 14.5442 9.78263 14.5566 9.79036Z" stroke="#1570EF" stroke-width="2.5"/>
</svg>