<svg xmlns="http://www.w3.org/2000/svg" width="64" height="64" viewBox="0 0 64 64" fill="none">
<path d="M16.2333 24.3697L15.8432 18.0504C15.8089 17.4946 16.2073 17.0056 16.7586 16.9268V16.9268C17.285 16.8516 17.6759 16.4008 17.6759 15.8691V15.7638C17.6759 15.1297 18.1732 14.607 18.8065 14.5753L23.0859 14.3613" stroke="#1570EF" stroke-width="2.5" stroke-linecap="round"/>
<path d="M38.6852 16.9761L36.7917 19.7712" stroke="#1570EF" stroke-width="2.5" stroke-linecap="round"/>
<path d="M10.9134 28.8778H46.7879C49.8823 28.8778 52.3907 31.3863 52.3907 34.4806V34.4806M7.93799 25.9023V28.8778V51.8449C7.93799 54.9959 10.4924 57.5503 13.6434 57.5503V57.5503M52.3907 51.1007V51.3712C52.3907 54.7838 49.6242 57.5503 46.2116 57.5503H25.0543M22.0775 57.5503H17.6124" stroke="#1570EF" stroke-width="2.5" stroke-linecap="round"/>
<path d="M18.8528 32.248V53.5814" stroke="#1570EF" stroke-width="2.5" stroke-linecap="round" stroke-dasharray="7 7"/>
<path d="M50.324 38.9553H53.783C54.8993 38.9553 55.8044 39.8605 55.8044 40.9768V45.3489C55.8044 46.4651 54.8992 47.3703 53.783 47.3704H50.324C47.8353 47.3704 45.9011 45.4409 45.9011 43.1624C45.9013 40.884 47.8354 38.9553 50.324 38.9553Z" stroke="#1570EF" stroke-width="2.5"/>
<path d="M13.1675 26.3533L12.5845 17.0243C12.4087 14.2121 14.5516 11.7924 17.3644 11.627L24.5283 11.2056" stroke="#1570EF" stroke-width="2.5" stroke-linecap="round"/>
<path d="M19.5969 25.7983L30.4691 9.82751C32.028 7.53751 35.1323 6.91523 37.4534 8.42746L46.7868 14.5083C49.1716 16.0621 49.8184 19.2697 48.2219 21.6261L45.3954 25.7983" stroke="#1570EF" stroke-width="2.5" stroke-linecap="round"/>
<path d="M24.3101 25.7985L32.6909 12.9997C33.0207 12.496 33.6826 12.3312 34.2101 12.6213L34.2653 12.6516C34.7329 12.9088 35.3183 12.7856 35.6425 12.3616V12.3616C35.9855 11.913 36.6164 11.8048 37.0894 12.1135L43.9605 16.5977C44.4404 16.911 44.5915 17.545 44.3043 18.041L44.2571 18.1227C44.0104 18.5487 44.1212 19.092 44.5151 19.3874V19.3874C44.9345 19.7019 45.0289 20.2924 44.7284 20.7221L41.1783 25.7985" stroke="#1570EF" stroke-width="2.5" stroke-linecap="round"/>
<path d="M11.1839 28.8778C9.39125 28.8778 7.93799 27.4245 7.93799 25.6319C7.93799 24.2525 8.79839 23.0741 10.0118 22.604" stroke="#1570EF" stroke-width="2.5" stroke-linecap="round"/>
<path d="M30.1632 26.3518C29.437 25.199 29.3056 23.8296 29.9465 22.73C30.9376 21.0296 33.3999 20.618 35.4462 21.8106C36.981 22.7051 37.8459 24.248 37.7643 25.6809" stroke="#1570EF" stroke-width="2.5" stroke-linecap="round"/>
</svg>