<svg xmlns="http://www.w3.org/2000/svg" width="366" height="657" viewBox="0 0 366 657" fill="none"><g filter="url(#filter0_df_1337_20699)"><path d="M167.695 111.018c2.428.656 4.778 1.697 6.953 3.018a30.064 30.064 0 0 1 5.912 4.702c1.736 1.783 3.204 3.751 4.304 5.797 1.1 2.047 1.834 4.191 2.09 6.309l8.058 66.636c.299 2.471.056 4.718-.643 6.669a11.279 11.279 0 0 1-3.407 4.905c-1.548 1.29-3.473 2.195-5.685 2.635-2.212.44-4.73.415-7.431-.163l-82.531-17.667c-2.973-.637-5.819-1.784-8.413-3.31a29.808 29.808 0 0 1-6.9-5.588c-1.962-2.153-3.54-4.54-4.622-7.04-1.083-2.5-1.662-5.085-1.638-7.652l.651-68.918c.021-2.18.594-4.098 1.61-5.703 1.016-1.605 2.456-2.881 4.231-3.802 1.775-.922 3.857-1.475 6.17-1.624 2.312-.148 4.826.11 7.47.826l73.821 19.97Z" fill="url(#paint0_linear_1337_20699)"/><path d="M143.774 128.04c.301.082.587.204.832.347.246.144.461.317.626.501.166.184.282.375.334.561a.681.681 0 0 1-.04.526l-10.542 19.961 9.641.612-2.009 4.153-9.804-.664-6.718 12.734 35.353 9.051c.305.082.59.205.843.353.252.149.467.326.636.511.169.185.287.384.346.58a.73.73 0 0 1-.033.551l-3.041 6.217a.748.748 0 0 1-.248.286 1.197 1.197 0 0 1-.401.172 1.879 1.879 0 0 1-.515.046 2.742 2.742 0 0 1-.592-.089l-55.715-14.124 9.648-17.657-10.133-.682 2.339-3.969 9.983.63 13.151-24.087a.674.674 0 0 1 .259-.263c.113-.067.248-.121.402-.152.154-.031.325-.042.511-.031.187.012.378.04.58.095l14.303 3.83.004.001Z" fill="#1F5BC6" fill-opacity=".9"/><path d="M192.059 208.007c-.131.144-.27.283-.407.42-.031.03-.064.063-.097.093a11.27 11.27 0 0 1-.482.437 9.381 9.381 0 0 1-.411.335c-.034.026-.066.053-.1.077-.154.116-.31.23-.471.339-.029.021-.06.04-.089.059-.156.104-.314.206-.475.303l-.073.044a11.128 11.128 0 0 1-.657.36c-.185.095-.373.187-.566.273l-.044.019a13.932 13.932 0 0 1-1.279.49c-.04.014-.08.025-.12.038a13.601 13.601 0 0 1-1.304.345l-.144.03c-.22.046-.443.087-.667.121l-.08.011c-.212.033-.425.06-.641.084l-.132.014c-.23.024-.463.041-.698.056l-.146.008a20.19 20.19 0 0 1-.701.022h-.046a18.59 18.59 0 0 1-.745-.011l-.162-.005c-.248-.011-.5-.025-.753-.045-.037-.002-.076-.007-.114-.011a22.867 22.867 0 0 1-.71-.075c-.044-.008-.088-.011-.132-.016a18.2 18.2 0 0 1-.781-.117l-.169-.028c-.27-.047-.542-.098-.816-.157l-82.531-17.667a31.007 31.007 0 0 1-.79-.183 14.253 14.253 0 0 1-.629-.163c-.123-.035-.245-.067-.368-.103l-.233-.069c-.121-.036-.24-.071-.36-.109l-.23-.072-.367-.12c-.072-.024-.145-.048-.216-.074a22.66 22.66 0 0 1-.398-.142c-.06-.021-.118-.041-.178-.065a20.749 20.749 0 0 1-.556-.213c-.006-.001-.01-.004-.015-.007a21.546 21.546 0 0 1-.733-.304c-.133-.058-.267-.114-.398-.174a19.547 19.547 0 0 1-.205-.094c-.118-.053-.236-.109-.352-.164a16.482 16.482 0 0 1-.553-.269c-.074-.036-.146-.071-.217-.109a46.55 46.55 0 0 1-.545-.284c-.118-.063-.237-.129-.355-.194l-.178-.099a20.74 20.74 0 0 1-.528-.303l-.018-.011a32.992 32.992 0 0 1-.87-.532c-.04-.027-.08-.052-.122-.078-.217-.14-.427-.285-.64-.427-.093-.064-.188-.125-.28-.188a30.775 30.775 0 0 1-.876-.634c-.047-.035-.094-.075-.142-.111a26.974 26.974 0 0 1-.707-.552c-.1-.08-.197-.166-.297-.248-.176-.147-.353-.294-.526-.444-.112-.096-.218-.196-.328-.292-.157-.141-.315-.281-.468-.424-.112-.104-.221-.21-.33-.316-.146-.142-.294-.282-.435-.425-.11-.109-.216-.221-.325-.333a25.845 25.845 0 0 1-1.104-1.213c-.11-.128-.218-.258-.325-.387a22.932 22.932 0 0 1-.661-.831c-.111-.146-.222-.294-.33-.442-.1-.136-.198-.272-.295-.407-.104-.149-.206-.3-.309-.45a23.857 23.857 0 0 1-.817-1.294 18.03 18.03 0 0 1-.268-.469 18.899 18.899 0 0 1-.48-.905 26.746 26.746 0 0 1-.213-.429c-.078-.162-.151-.324-.225-.487-.074-.166-.152-.333-.222-.5-.024-.058-.048-.114-.07-.171l-.09-.22a12.177 12.177 0 0 1-.094-.243l-.085-.222-.089-.242-.078-.222a9.102 9.102 0 0 1-.082-.243c-.025-.076-.05-.15-.073-.225a13.96 13.96 0 0 1-.076-.24c-.023-.076-.046-.154-.07-.229l-.067-.241c-.02-.077-.042-.152-.063-.23l-.062-.239-.057-.231-.056-.24a31.056 31.056 0 0 1-.05-.232l-.05-.244-.046-.229c-.016-.082-.028-.164-.042-.246-.013-.076-.027-.15-.038-.226-.014-.084-.026-.168-.038-.251a12.556 12.556 0 0 1-.062-.479l-.026-.218c-.009-.089-.016-.176-.023-.265l-.02-.209a13.141 13.141 0 0 1-.017-.28l-.012-.193c-.005-.103-.007-.207-.01-.309l-.005-.164c-.004-.159-.003-.316-.003-.474l.648-68.902c.004-.494.038-.973.097-1.438.059-.465.147-.917.26-1.353a10.261 10.261 0 0 1 .97-2.437l-.457.818-.036.064-.254.453-.062.11-.262.47a4.93 4.93 0 0 0-.066.12l-.11.197c-.034.062-.07.127-.104.184l-.028.051-.09.16-.296.53c-.009.017-.017.033-.028.05l-.316.567a48.232 48.232 0 0 0-.144.256l-.119.214-.17.305-.335.602c-.017.031-.037.068-.059.104l-.057.103-.028.049-.209.374-.15.27a10.296 10.296 0 0 0-.974 2.436 10.98 10.98 0 0 0-.263 1.351c-.06.464-.096.943-.102 1.435l-.923 68.667c-.002.158-.003.315.001.471l.004.157c.003.106.005.21.01.314l.01.19.017.282.017.208.023.263.023.217c.01.085.018.169.03.254.01.074.021.147.03.223.013.083.023.165.037.249.011.076.025.15.036.225.014.083.027.164.043.247.013.076.029.15.044.226l.034.176.015.066c.015.076.033.153.05.23l.053.24c.017.076.037.151.056.228l.06.24c.019.077.04.152.061.227.023.08.044.159.068.239l.068.226.074.24c.023.076.047.149.072.223.026.08.053.161.081.241l.077.222c.028.081.057.161.087.242l.083.221c.03.081.06.16.093.241.03.072.057.147.089.22.014.036.028.072.044.107.008.021.019.041.027.062.027.065.052.129.08.193.042.101.091.201.136.302.073.161.145.323.222.485.068.143.138.282.208.423.08.159.16.318.243.477.074.142.152.281.23.421.086.156.173.312.265.467l.25.418c.055.089.106.181.162.27.04.063.083.124.123.186a24.23 24.23 0 0 0 .577.859c.095.136.192.269.288.405a24.991 24.991 0 0 0 .978 1.259c.106.129.214.256.322.384l.16.19c.07.081.144.159.214.239.06.067.116.137.177.202l.132.14a31.748 31.748 0 0 0 .724.76c.041.04.08.085.123.126.1.1.205.197.308.296.108.106.216.209.326.313.151.143.307.282.462.422.108.095.213.192.322.288l.068.061c.147.128.301.253.452.378.097.082.195.166.294.246.23.186.466.368.703.547l.14.109c.002 0 .004.003.006.005.282.212.57.419.86.621.091.063.186.124.277.187.184.124.366.25.553.371a1.6 1.6 0 0 0 .08.051l.121.076a29.36 29.36 0 0 0 1.931 1.127l.068.037.137.07c.111.059.223.117.335.173.071.036.141.072.213.107.111.057.224.111.336.164l.212.1a18.167 18.167 0 0 0 .552.253c.131.058.263.115.395.171l.133.058.028.011a20.943 20.943 0 0 0 .579.235c.183.072.366.14.55.208.06.022.12.042.178.064.13.047.26.093.392.138.071.024.145.048.216.074.12.04.241.08.362.118l.102.033.126.038c.12.036.237.073.356.107a23.75 23.75 0 0 0 .819.225c.133.034.265.068.399.1.063.014.128.031.19.047.197.047.394.092.592.132l81.853 17.232c.272.057.54.107.809.154l.166.027c.259.043.519.08.774.112.044.008.087.011.132.016a17.575 17.575 0 0 0 .819.082c.251.019.501.033.748.041.026.001.051.005.075.005h.087c.243.007.487.011.725.009l.017-.002.043-.001c.235-.003.467-.012.698-.024l.144-.008c.235-.015.466-.035.695-.059l.131-.014c.215-.024.428-.053.638-.086l.059-.008c.006-.001.014-.002.021-.005.224-.036.446-.078.664-.123l.144-.03c.208-.046.414-.093.616-.148l.027-.007.067-.019c.197-.053.394-.113.587-.174.039-.014.079-.025.119-.039.202-.066.402-.136.597-.212l.049-.016.072-.03c.187-.075.373-.152.555-.233.015-.008.03-.013.045-.019a11.646 11.646 0 0 0 .681-.338c.17-.089.336-.182.499-.278.011-.008.024-.014.036-.022l.072-.044c.161-.097.319-.199.473-.303l.06-.038c.011-.006.021-.015.03-.021.159-.109.317-.223.469-.341l.041-.029c.02-.017.039-.034.059-.048a14.973 14.973 0 0 0 .453-.37l.014-.012c.146-.128.286-.258.426-.39l.046-.043.05-.051c.14-.137.276-.276.407-.419 1.559-1.705 3.12-3.41 4.679-5.117l.006.003Z" fill="#B2B2B2"/></g><g filter="url(#filter1_d_1337_20699)"><path d="M202.055 571.429c-5.104-.439-10.183-1.925-14.966-4.343-4.807-2.432-9.304-5.803-13.231-10-3.931-4.2-7.276-9.214-9.769-14.911L94.358 382.782c-1.667-3.812-2.786-7.641-3.389-11.396-.6-3.747-.683-7.416-.294-10.928.392-3.498 1.253-6.83 2.552-9.921a32.68 32.68 0 0 1 5.125-8.417l-9.148 10.87a32.384 32.384 0 0 0-5.048 8.259 35.257 35.257 0 0 0-2.534 9.707c-.402 3.426-.331 7.006.234 10.659.572 3.66 1.646 7.387 3.264 11.098l67.429 154.919c2.409 5.532 5.655 10.396 9.482 14.472 3.821 4.064 8.204 7.331 12.895 9.68 4.672 2.338 9.63 3.767 14.631 4.178 4.965.407 9.953-.184 14.721-1.873l12.792-4.536c-4.858 1.723-9.946 2.315-15.019 1.881l.004-.005Z" fill="#B2B2B2"/><path d="M242.514 300.265c4.177-1.03 8.584-1.019 12.976-.133 4.392.886 8.719 2.625 12.837 5.09s7.962 5.626 11.365 9.369a52.486 52.486 0 0 1 8.6 12.841l62.095 131.277c2.363 4.989 3.859 10.101 4.54 15.082.681 4.982.558 9.887-.345 14.392-.907 4.532-2.596 8.69-5.026 12.197-2.448 3.535-5.648 6.416-9.556 8.359l-119.033 59.158c-5.021 2.495-10.384 3.68-15.791 3.668-5.446-.01-10.925-1.23-16.113-3.539-5.187-2.309-10.121-5.731-14.4-10.089-4.278-4.359-7.921-9.672-10.582-15.761L94.358 382.782c-2.526-5.775-3.787-11.578-3.91-17.114-.122-5.536.886-10.736 2.893-15.398 2.006-4.662 4.96-8.693 8.776-11.929 3.816-3.236 8.398-5.59 13.718-6.899l126.679-31.177Z" fill="url(#paint1_linear_1337_20699)"/><path d="M255.911 377.638a26.98 26.98 0 0 1 2.954 2.56c.91.914 1.739 1.89 2.501 2.925a27.567 27.567 0 0 1 2.065 3.272 30.856 30.856 0 0 1 1.642 3.603c.324.83.621 1.657.89 2.496a36.512 36.512 0 0 1 1.251 5.047c.145.845.257 1.701.327 2.557a23.021 23.021 0 0 1-.073 4.798 17.293 17.293 0 0 1-1.046 4.202 16.261 16.261 0 0 1-1.98 3.633 18.028 18.028 0 0 1-2.88 3.096 3.439 3.439 0 0 0-.116.109c-.042.041-.086.076-.128.117-.043.042-.099.086-.147.135-.048.049-.11.101-.179.153.079.016.159.032.223.043.065.011.129.022.187.034.058.012.115.017.165.03.051.013.101.019.152.032.886.17 1.768.362 2.649.589.88.227 1.745.491 2.609.79.864.299 1.715.649 2.566 1.048.852.399 1.69.849 2.523 1.356a25.494 25.494 0 0 1 2.973 2.139 24.18 24.18 0 0 1 2.6 2.531c.805.91 1.551 1.891 2.237 2.938a28.376 28.376 0 0 1 1.875 3.35 46.383 46.383 0 0 1 2.107 5.25 44.655 44.655 0 0 1 1.403 5.303c.352 1.777.6 3.555.746 5.35.145 1.794.185 3.584.137 5.387a25.996 25.996 0 0 1-.647 5.244 21.501 21.501 0 0 1-1.616 4.584 20.013 20.013 0 0 1-2.526 3.935 22.107 22.107 0 0 1-3.392 3.315 32.374 32.374 0 0 1-2.009 1.457 30.06 30.06 0 0 1-1.056.668c-.358.216-.718.418-1.086.615a27.95 27.95 0 0 1-.949.504 53.508 53.508 0 0 1-1.93.935l-.978.446c-.158.066-.307.138-.465.204-.157.067-.308.132-.464.205-.156.073-.315.133-.465.198l-.466.198c-.281.121-.579.23-.871.331-.291.101-.591.196-.898.286-.308.09-.602.177-.91.26-.309.083-.609.171-.91.26l-1.278.366c-.421.121-.856.245-1.285.36l-1.288.347c-.429.115-.867.218-1.298.327-.296.074-.599.142-.903.21-.304.068-.61.122-.923.178-.312.055-.625.111-.937.173-.312.063-.631.119-.95.183.481 2.021.956 4.044 1.436 6.059.48 2.016.956 4.045 1.43 6.068.475 2.023.957 4.052 1.433 6.082.475 2.029.96 4.072 1.445 6.121-1.06.144-2.114.286-3.174.437-1.059.15-2.113.292-3.167.435-1.054.143-2.113.293-3.181.438-1.067.144-2.127.295-3.201.44-.475-2.023-.942-4.047-1.416-6.063-.473-2.016-.939-4.026-1.404-6.037-.466-2.01-.937-4.012-1.403-6.023-.465-2.01-.936-4.013-1.41-6.029-.851.097-1.695.194-2.546.297-.85.104-1.702.195-2.553.292l-2.575.294c-.865.1-1.731.192-2.602.292.466 2.018.934 4.042 1.408 6.064.475 2.023.936 4.048 1.411 6.078.476 2.03.938 4.062 1.407 6.1l1.412 6.126c-1.081.147-2.162.294-3.243.447-1.08.154-2.161.301-3.242.447-1.081.147-2.161.301-3.249.448l-3.27.445-1.428-6.229-1.424-6.208-1.424-6.209c-.475-2.072-.95-4.143-1.433-6.221-2.195.264-4.395.535-6.597.8-2.202.265-4.416.538-6.637.813-2.221.275-4.443.542-6.678.819-2.234.277-4.484.549-6.733.821l-.031-.198-.028-.184a1.516 1.516 0 0 1-.021-.178c-.003-.063-.011-.117-.014-.18-.099-1.403-.203-2.799-.302-4.202a894.158 894.158 0 0 0-.308-4.187l-.312-4.18c-.104-1.389-.216-2.783-.326-4.17a2.75 2.75 0 0 1-.008-.279.673.673 0 0 1 .037-.208.35.35 0 0 1 .089-.147.576.576 0 0 1 .146-.099c.803-.09 1.585-.183 2.348-.267.762-.083 1.51-.171 2.251-.258l2.182-.255c.721-.084 1.427-.172 2.139-.269.163-.025.328-.044.493-.062.165-.019.327-.051.491-.076.164-.026.319-.064.479-.11.161-.046.313-.097.464-.162.059-.024.117-.054.176-.084l.174-.09a1.29 1.29 0 0 0 .166-.102c.05-.036.107-.08.164-.116.386-.305.704-.641.961-1.009.257-.369.454-.769.583-1.195.13-.425.199-.883.206-1.374a6.581 6.581 0 0 0-.166-1.525c-.54-2.446-1.087-4.891-1.634-7.336-.547-2.445-1.1-4.882-1.652-7.313l-1.654-7.29-1.652-7.271c-.673-2.942-1.34-5.893-1.999-8.831a3566.16 3566.16 0 0 0-1.987-8.804c-.664-2.93-1.327-5.854-1.997-8.776-.67-2.922-1.344-5.829-2.019-8.737a10.48 10.48 0 0 0-.912-2.5 8.278 8.278 0 0 0-1.458-2.017 7.187 7.187 0 0 0-1.987-1.411 7.538 7.538 0 0 0-2.496-.689 16.83 16.83 0 0 0-1.545-.095 22.019 22.019 0 0 0-1.541.022c-.513.024-1.018.053-1.53.09-.511.038-1.015.074-1.527.105-.479.025-.955.064-1.437.104-.483.04-.958.086-1.44.132-.482.047-.964.094-1.451.149-.488.054-.977.095-1.473.144-.283-1.284-.572-2.56-.855-3.844-.283-1.283-.571-2.56-.861-3.842-.29-1.283-.573-2.567-.864-3.857-.291-1.29-.575-2.58-.867-3.877 2.226-.156 4.443-.319 6.655-.473 2.212-.155 4.409-.314 6.606-.473 2.197-.159 4.381-.309 6.571-.467 2.191-.158 4.368-.308 6.552-.465-.452-1.963-.902-3.92-1.343-5.864-.441-1.944-.891-3.894-1.331-5.832-.44-1.937-.887-3.874-1.327-5.811-.441-1.937-.88-3.868-1.326-5.797l3.203-.204c1.066-.067 2.131-.135 3.198-.195 1.066-.061 2.132-.129 3.197-.196 1.066-.068 2.139-.129 3.212-.191.432 1.883.871 3.765 1.303 5.647.431 1.883.87 3.765 1.308 5.647.439 1.882.879 3.77 1.312 5.66.432 1.889.873 3.785 1.314 5.68.847-.075 1.688-.15 2.53-.218.842-.067 1.683-.142 2.524-.216.84-.075 1.682-.143 2.523-.217l2.529-.225c-.436-1.868-.872-3.729-1.3-5.592a1607.68 1607.68 0 0 0-1.3-5.585c-.435-1.861-.864-3.723-1.3-5.591-.437-1.868-.872-3.73-1.302-5.599l3.156-.196 3.135-.193 3.121-.19 3.128-.192c.448 1.894.896 3.795 1.351 5.689.454 1.893.896 3.795 1.344 5.696l1.348 5.717c.45 1.908.902 3.83 1.36 5.751l.198.011.197.011.191.013c.063.004.127.008.189.005a88.02 88.02 0 0 1 3.637.205c1.209.092 2.423.218 3.636.379a56.04 56.04 0 0 1 3.642.602c1.219.244 2.431.538 3.652.887a40.13 40.13 0 0 1 2.701.881c.889.33 1.77.69 2.644 1.099.874.41 1.725.858 2.571 1.355a27.399 27.399 0 0 1 2.5 1.66l-.029-.009Zm1.805 77.579a11.065 11.065 0 0 0 2.426-3.64c.553-1.344.843-2.808.873-4.322a14.82 14.82 0 0 0-.672-4.648 17.55 17.55 0 0 0-2.234-4.629 13.971 13.971 0 0 0-3.184-3.413 15.602 15.602 0 0 0-1.869-1.24 21.504 21.504 0 0 0-2.006-.996 25.176 25.176 0 0 0-2.555-.931 25.615 25.615 0 0 0-2.564-.63 36.991 36.991 0 0 0-2.57-.398 39.135 39.135 0 0 0-2.584-.221 52.593 52.593 0 0 0-3.458-.085c-1.151.01-2.291.048-3.434.113a92.486 92.486 0 0 0-3.417.265 137.95 137.95 0 0 0-4.799.542l-1.398.175-1.405.176c-.466.058-.946.118-1.427.172l1.846 7.981 1.848 7.995c.616 2.665 1.234 5.343 1.859 8.021.625 2.677 1.245 5.369 1.866 8.068.192-.022.378-.037.564-.059.185-.022.371-.037.55-.058.178-.02.357-.041.536-.055.18-.014.357-.041.53-.054 1.162-.117 2.325-.235 3.479-.358a114.85 114.85 0 0 0 3.457-.418 82.325 82.325 0 0 0 3.417-.537 51.728 51.728 0 0 0 4.898-1.123c.509-.142 1.017-.29 1.523-.446.507-.156 1.006-.317 1.505-.478.499-.161.995-.343 1.484-.524.113-.038.225-.084.337-.122.113-.038.225-.084.337-.129l.335-.136c.112-.045.223-.091.327-.142.518-.22 1.018-.465 1.516-.724.498-.259.97-.549 1.44-.852.469-.304.922-.632 1.356-.986.434-.354.858-.728 1.264-1.126m-14.199-57.626a14.967 14.967 0 0 0-.981-2.091 13.386 13.386 0 0 0-2.803-3.43 14.963 14.963 0 0 0-1.802-1.348 17.814 17.814 0 0 0-1.903-1.054 17.038 17.038 0 0 0-1.944-.781 22.845 22.845 0 0 0-1.975-.568 33.643 33.643 0 0 0-4.967-.766 42.054 42.054 0 0 0-2.934-.132c-.973-.01-1.948.008-2.912.053-.965.045-1.932.111-2.898.191-.573.047-1.145.094-1.709.153-.564.06-1.142.115-1.714.168-.571.054-1.147.123-1.733.178-.585.056-1.162.118-1.754.175l1.651 7.131 1.65 7.123 1.649 7.117c.549 2.368 1.1 4.75 1.657 7.123a.488.488 0 0 0 .088.029c.021.003.044.014.059.018.014.005.029.01.043.008l.027-.005c1.035-.083 2.064-.159 3.099-.243 1.035-.083 2.063-.166 3.088-.269a76.381 76.381 0 0 0 3.053-.362 44.951 44.951 0 0 0 3.007-.522c.427-.088.853-.175 1.279-.269.426-.094.852-.181 1.27-.281.418-.099.834-.206 1.249-.326a15.612 15.612 0 0 0 1.326-.458c.039-.02.073-.025.112-.045a.708.708 0 0 1 .112-.045c.04-.013.072-.032.111-.045.375-.149.742-.311 1.107-.48a21.803 21.803 0 0 0 2.129-1.134c.346-.207.675-.426 1.003-.651 1.294-.893 2.271-1.89 2.978-2.964a9.035 9.035 0 0 0 1.36-3.44c.211-1.207.202-2.477.014-3.783-.189-1.305-.563-2.638-1.071-3.978" fill="url(#paint2_linear_1337_20699)"/></g><g opacity=".8" filter="url(#filter2_df_1337_20699)"><path d="M307.253 70.55a9.473 9.473 0 0 1-3.598-.25 11.046 11.046 0 0 1-3.486-1.619 12.264 12.264 0 0 1-2.948-2.903l-23.671-32.74a11.002 11.002 0 0 1-1.332-2.42 9.504 9.504 0 0 1-.608-2.465 8.326 8.326 0 0 1 .084-2.377 7.577 7.577 0 0 1 .74-2.162l-.954 1.821-.199.382-.109.207-.025.049-.016.031-.075.143-.035.067h-.002l-.113.216a7.56 7.56 0 0 0-.731 2.123 8.236 8.236 0 0 0-.091 2.327 9.26 9.26 0 0 0 .582 2.407c.311.802.739 1.595 1.289 2.358l22.929 31.838a11.792 11.792 0 0 0 2.861 2.818 10.681 10.681 0 0 0 3.395 1.563 9.241 9.241 0 0 0 3.514.229 8.129 8.129 0 0 0 3.234-1.149l2.666-1.658a8.207 8.207 0 0 1-3.301 1.165v-.001Z" fill="#B2B2B2"/><path d="M302.939 7.03c.893-.438 1.889-.653 2.926-.667 1.036-.015 2.101.167 3.154.524s2.078.885 3.033 1.567a12.202 12.202 0 0 1 2.581 2.491l20.55 26.736a12.043 12.043 0 0 1 1.775 3.2c.401 1.096.616 2.215.636 3.282.02 1.073-.155 2.1-.531 3.015a5.843 5.843 0 0 1-1.744 2.366L311.352 68.82a8.087 8.087 0 0 1-3.387 1.608 9.191 9.191 0 0 1-3.817-.01 10.94 10.94 0 0 1-3.755-1.582 12.224 12.224 0 0 1-3.174-3.056L273.55 33.037c-.858-1.186-1.431-2.44-1.733-3.691a8.545 8.545 0 0 1-.111-3.636 7.459 7.459 0 0 1 1.392-3.138c.701-.922 1.62-1.682 2.757-2.24l27.084-13.301Z" fill="url(#paint3_linear_1337_20699)"/><g opacity=".8" fill="#444"><path d="m308.801 17.616.337-.202c.112-.065.224-.133.336-.2.111-.068.222-.133.332-.199l.329-.196c.002.443.004.886.008 1.332l.011 1.34a150.896 150.896 0 0 1-.032 4.63c-.011.645-.025 1.292-.038 1.939l-.044 1.947-.047 1.96a7.6 7.6 0 0 1-.214 1.652 6.295 6.295 0 0 1-.547 1.446 5.596 5.596 0 0 1-2.779 2.573 5.96 5.96 0 0 1-.898.303 6.353 6.353 0 0 1-.971.164 7.352 7.352 0 0 1-1.831-.062 10.376 10.376 0 0 1-.8-.16 13.697 13.697 0 0 1-.807-.22c-.27-.083-.539-.173-.81-.268-1.062-.37-2.124-.742-3.19-1.112-1.067-.37-2.136-.744-3.208-1.117-1.071-.373-2.148-.748-3.226-1.12l-3.244-1.128-.1-.036a5.356 5.356 0 0 1-.108-.037l-.122-.04-.141-.045c.027-.02.05-.04.074-.057.024-.017.044-.035.064-.05l.056-.044c.016-.014.036-.026.053-.038l.541-.326c.181-.11.359-.218.539-.325.18-.107.358-.218.537-.325l.538-.322.268-.16.269-.16c.088-.054.179-.107.269-.159.089-.05.18-.105.269-.158a.43.43 0 0 1 .107-.042.73.73 0 0 1 .397.018l2.564.9 2.553.901c.849.3 1.697.599 2.543.895.846.295 1.69.587 2.534.876.36.123.715.206 1.057.255.343.048.675.057.994.032.318-.025.62-.085.906-.176a3.44 3.44 0 0 0 1.993-1.652c.144-.269.26-.56.343-.878.083-.318.131-.654.141-1.013.027-.815.05-1.629.071-2.442.022-.813.04-1.62.059-2.428a1764.116 1764.116 0 0 1 .112-4.811.878.878 0 0 1 .009-.1.482.482 0 0 1 .063-.182.198.198 0 0 1 .054-.058c.154-.094.306-.189.46-.282l.459-.28c.152-.092.305-.183.457-.276.152-.093.303-.183.454-.274l-.003-.003ZM308.93 37.556c.404-.26.843-.466 1.314-.614.47-.148.973-.242 1.503-.278a7.682 7.682 0 0 1 1.664.076 9.947 9.947 0 0 1 1.796.45c1.095.377 2.188.757 3.278 1.138l3.26 1.144c1.085.38 2.161.76 3.24 1.141 1.079.381 2.151.756 3.222 1.133l.048.014.051.016a.311.311 0 0 1 .126.095l-.044.04-.044.04-.044.04c-.014.014-.03.024-.045.036l-.473.323c-.158.108-.316.215-.473.325a197.234 197.234 0 0 1-1.429.976l-.24.16c-.08.055-.161.107-.24.161a.33.33 0 0 1-.093.044.557.557 0 0 1-.342-.005c-.822-.283-1.645-.57-2.47-.856-.826-.286-1.654-.575-2.483-.864-.828-.289-1.661-.577-2.491-.865-.831-.289-1.667-.575-2.502-.86a5.315 5.315 0 0 0-1.042-.245 4.534 4.534 0 0 0-.981-.022 3.833 3.833 0 0 0-.897.19 3.483 3.483 0 0 0-1.462.96c-.199.22-.371.47-.514.744a3.97 3.97 0 0 0-.338.9 4.825 4.825 0 0 0-.134 1.04l-.057 2.595-.058 2.611-.059 2.628-.061 2.645a.55.55 0 0 1-.01.098c-.008.033-.014.065-.025.095a.484.484 0 0 1-.039.083.191.191 0 0 1-.057.059c-.16.113-.323.224-.484.335l-.488.336-.492.336-.497.338-.379.258-.381.26c-.128.089-.256.175-.387.263-.13.087-.26.176-.392.266.032-1.069.06-2.128.091-3.179.031-1.051.06-2.087.087-3.12.027-1.032.056-2.053.086-3.071.03-1.019.056-2.028.083-3.037l.013-.443c.003-.148.008-.296.013-.442l.013-.442c.003-.148.009-.294.015-.44a9.093 9.093 0 0 1 .225-1.83 6.9 6.9 0 0 1 .553-1.555 5.94 5.94 0 0 1 .848-1.264c.327-.37.698-.688 1.108-.952l.01-.008Z"/></g></g><defs><linearGradient id="paint0_linear_1337_20699" x1="194.181" y1="147.127" x2="82.504" y2="164.002" gradientUnits="userSpaceOnUse"><stop stop-color="#fff"/><stop offset="1" stop-color="#F0F0F0"/></linearGradient><linearGradient id="paint1_linear_1337_20699" x1="324.838" y1="387.394" x2="128.646" y2="464.118" gradientUnits="userSpaceOnUse"><stop stop-color="#fff"/><stop offset="1" stop-color="#F0F0F0"/></linearGradient><linearGradient id="paint2_linear_1337_20699" x1="316.285" y1="405.915" x2="150.421" y2="458.367" gradientUnits="userSpaceOnUse"><stop stop-color="#F08E19"/><stop offset="1" stop-color="#E3881B"/></linearGradient><linearGradient id="paint3_linear_1337_20699" x1="325.869" y1="22.755" x2="285.282" y2="49.726" gradientUnits="userSpaceOnUse"><stop stop-color="#fff"/><stop offset="1" stop-color="#F0F0F0"/></linearGradient><filter id="filter0_df_1337_20699" x=".076" y="88.182" width="205.061" height="208.943" filterUnits="userSpaceOnUse" color-interpolation-filters="sRGB"><feFlood flood-opacity="0" result="BackgroundImageFix"/><feColorMatrix in="SourceAlpha" values="0 0 0 0 0 0 0 0 0 0 0 0 0 0 0 0 0 0 127 0" result="hardAlpha"/><feOffset dx="-30" dy="40"/><feGaussianBlur stdDeviation="20"/><feComposite in2="hardAlpha" operator="out"/><feColorMatrix values="0 0 0 0 0 0 0 0 0 0 0 0 0 0 0 0 0 0 0.1 0"/><feBlend in2="BackgroundImageFix" result="effect1_dropShadow_1337_20699"/><feBlend in="SourceGraphic" in2="effect1_dropShadow_1337_20699" result="shape"/><feGaussianBlur stdDeviation="1" result="effect2_foregroundBlur_1337_20699"/></filter><filter id="filter1_d_1337_20699" x="11.367" y="299.479" width="353.994" height="356.606" filterUnits="userSpaceOnUse" color-interpolation-filters="sRGB"><feFlood flood-opacity="0" result="BackgroundImageFix"/><feColorMatrix in="SourceAlpha" values="0 0 0 0 0 0 0 0 0 0 0 0 0 0 0 0 0 0 127 0" result="hardAlpha"/><feOffset dx="-30" dy="40"/><feGaussianBlur stdDeviation="20"/><feComposite in2="hardAlpha" operator="out"/><feColorMatrix values="0 0 0 0 0 0 0 0 0 0 0 0 0 0 0 0 0 0 0.1 0"/><feBlend in2="BackgroundImageFix" result="effect1_dropShadow_1337_20699"/><feBlend in="SourceGraphic" in2="effect1_dropShadow_1337_20699" result="shape"/></filter><filter id="filter2_df_1337_20699" x="200.041" y="3.362" width="147.554" height="148.906" filterUnits="userSpaceOnUse" color-interpolation-filters="sRGB"><feFlood flood-opacity="0" result="BackgroundImageFix"/><feColorMatrix in="SourceAlpha" values="0 0 0 0 0 0 0 0 0 0 0 0 0 0 0 0 0 0 127 0" result="hardAlpha"/><feOffset dx="-30" dy="40"/><feGaussianBlur stdDeviation="20"/><feComposite in2="hardAlpha" operator="out"/><feColorMatrix values="0 0 0 0 0 0 0 0 0 0 0 0 0 0 0 0 0 0 0.1 0"/><feBlend in2="BackgroundImageFix" result="effect1_dropShadow_1337_20699"/><feBlend in="SourceGraphic" in2="effect1_dropShadow_1337_20699" result="shape"/><feGaussianBlur stdDeviation="1.5" result="effect2_foregroundBlur_1337_20699"/></filter></defs></svg>