<svg xmlns="http://www.w3.org/2000/svg" width="284" height="487" viewBox="0 0 284 487" fill="none"><g filter="url(#filter0_df_1337_20700)"><path d="M68.186 25.282c.951.469 1.755 1.045 2.395 1.687.64.642 1.12 1.356 1.416 2.093.296.74.408 1.505.317 2.25a4.315 4.315 0 0 1-.914 2.15L54.917 54.465c-.612.78-1.408 1.412-2.324 1.885a9.344 9.344 0 0 1-3.05.935c-1.092.145-2.24.12-3.37-.086-1.13-.205-2.24-.59-3.267-1.16L14.302 40.144c-.94-.523-1.691-1.162-2.244-1.871-.554-.71-.906-1.479-1.057-2.27a4.648 4.648 0 0 1 .165-2.372c.26-.775.729-1.52 1.41-2.195L31.038 13.2c.588-.581 1.324-1.045 2.148-1.386a9.455 9.455 0 0 1 2.682-.65c.948-.094 1.929-.06 2.894.104.964.164 1.914.46 2.793.892l26.632 13.123Z" fill="url(#paint0_linear_1337_20700)"/><g opacity=".8" fill="#D6A429" fill-opacity=".8"><path d="m52.026 21.973 1.43 12.94-4.764.03-.874-8.286-8.293-.034-.46-4.777 12.961.127ZM53.82 38.298l.542 4.925-4.84.102-.514-4.96 4.811-.067Z"/><path d="m44.753 30.07.485 4.877-4.907.045-.458-4.912 4.88-.01ZM35.653 21.812l.43 4.83-4.976-.013-.4-4.863 4.946.046Z"/><path d="m45.612 38.456.508 4.952-13.6.278-1.128-13.628 4.965.004.767 8.5 8.488-.106Z"/></g><path d="m53.411 58.41.089-.073a1.441 1.441 0 0 0 .06-.051l.09-.078.056-.05.094-.087.041-.039.006-.006c.04-.037.08-.077.118-.116l.02-.018c.045-.046.09-.093.133-.14l.003-.003.091-.1c.006-.005.01-.011.015-.018l.03-.034.044-.05.038-.045.03-.037.02-.024.084-.106 16.309-20.949.033-.042.032-.043.032-.043.031-.044.02-.028.019-.028.04-.057a6.002 6.002 0 0 0 .092-.142l.008-.016.043-.07.066-.115.007-.013.008-.015.04-.075.052-.104.011-.025.005-.01.005-.012.027-.057.046-.106.016-.04.008-.02.016-.039c.013-.032.024-.065.036-.098a1.861 1.861 0 0 0 .028-.081l.001-.005.005-.014.031-.1.025-.086.006-.02.004-.015.014-.05a5.19 5.19 0 0 0 .041-.174l.625-2.93c-.016.075-.035.15-.055.225l-.004.014a3.67 3.67 0 0 1-.067.22l-.005.014c-.024.07-.05.14-.078.21l-.008.02a4.438 4.438 0 0 1-.089.203l-.01.022a4.032 4.032 0 0 1-.104.204l-.008.015a5.373 5.373 0 0 1-.116.199l-.014.024c-.04.065-.083.128-.127.191l-.019.027a4.991 4.991 0 0 1-.149.202L54.92 54.463c-.034.044-.07.087-.105.13l-.03.037-.083.096-.03.035-.111.122a8.09 8.09 0 0 1-.135.14l-.02.019a6.165 6.165 0 0 1-.119.116l-.048.045c-.031.03-.062.059-.095.087l-.056.05-.091.078-.062.05c-.03.025-.06.05-.09.073l-.065.051-.09.07a3.4 3.4 0 0 1-.068.05l-.091.066-.07.05a5.447 5.447 0 0 1-.163.11l-.11.07-.065.041a9.406 9.406 0 0 1-.126.077l-.052.031a9.724 9.724 0 0 1-.367.2l-.076.04-.102.05-.08.038-.102.048-.082.036-.103.046-.084.035c-.035.014-.069.029-.104.042l-.085.034-.105.04a9.342 9.342 0 0 1-.193.069l-.087.03-.108.035-.087.028a7.115 7.115 0 0 1-.11.034c-.03.007-.057.016-.086.024l-.143.04-.07.02a7.688 7.688 0 0 1-.189.047l-.025.006-.217.05-.063.012a7.95 7.95 0 0 1-.261.05l-.085.016a4.692 4.692 0 0 1-.116.019c-.027.004-.053.009-.08.012l-.128.019-.066.009a9.771 9.771 0 0 1-.397.045l-.025.002c-.127.012-.254.02-.382.028l-.034.002c-.131.007-.263.011-.395.013h-.025a9.897 9.897 0 0 1-.4-.002h-.01c-.136-.004-.272-.01-.406-.018l-.025-.002c-.134-.009-.267-.02-.401-.033l-.026-.002c-.134-.014-.267-.03-.4-.05-.009 0-.017-.002-.025-.003-.134-.019-.267-.04-.4-.065l-.039-.007-.163-.031-.028-.005a8.208 8.208 0 0 1-.185-.04l-.049-.01-.15-.036-.043-.01a11.185 11.185 0 0 1-.374-.1l-.052-.014a7.65 7.65 0 0 1-.184-.055l-.022-.007-.163-.052-.058-.02c-.046-.015-.092-.03-.138-.047l-.05-.017a13.192 13.192 0 0 1-.184-.067l-.035-.013a30.234 30.234 0 0 1-.213-.084 6.534 6.534 0 0 1-.125-.051l-.064-.027a6.88 6.88 0 0 1-.117-.052l-.076-.033a6.915 6.915 0 0 1-.128-.06l-.061-.027a8.443 8.443 0 0 1-.388-.195 9.412 9.412 0 0 1-.19-.103L14.307 40.142a7.234 7.234 0 0 1-.176-.102l-.049-.028c-.046-.027-.09-.055-.137-.084l-.039-.024a6.162 6.162 0 0 1-.163-.105c-.022-.014-.043-.03-.065-.043l-.108-.074a3.2 3.2 0 0 1-.069-.05l-.098-.071-.07-.053c-.032-.023-.063-.048-.094-.072l-.069-.054-.09-.073-.066-.055a5.28 5.28 0 0 1-.087-.075l-.063-.055a6.288 6.288 0 0 1-.085-.078l-.059-.055a6.168 6.168 0 0 1-.086-.084l-.052-.05-.097-.1a5.345 5.345 0 0 1-.164-.178c-.009-.008-.016-.018-.025-.028a4.779 4.779 0 0 1-.097-.112l-.043-.051c-.024-.03-.05-.06-.074-.092l-.045-.059-.066-.086-.045-.062-.06-.086-.045-.063-.056-.086-.041-.064-.054-.087a2.459 2.459 0 0 1-.09-.154l-.036-.063a3.682 3.682 0 0 1-.08-.154c-.019-.035-.035-.071-.053-.107l-.023-.048-.07-.155L11.31 37a3.66 3.66 0 0 1-.055-.135l-.02-.056-.038-.102a3.563 3.563 0 0 1-.05-.15 5.053 5.053 0 0 1-.075-.264l-.011-.046a5.132 5.132 0 0 1-.058-.266l-.007-.043a4.446 4.446 0 0 1-.066-.592l.14 2.98a4.771 4.771 0 0 0 .067.59l.007.044c.017.088.035.176.057.265l.01.045c.023.088.048.176.075.264l.004.015.024.07.016.048.005.015.037.104.02.054.054.135.01.022a3.725 3.725 0 0 0 .09.202l.053.107.03.06.05.093.035.064.05.088c.012.022.026.044.039.065l.03.05.022.036.041.065.056.084.024.037.019.027.06.085.044.062.066.087.044.058.073.09.042.053.096.111.025.03c.04.046.083.092.126.138l.037.039.083.087.01.011.052.051.085.083.059.055.084.077.022.02.04.035.087.075c.02.018.043.036.065.054l.088.073.067.054.092.071.069.052c.032.025.065.048.097.072l.069.05.107.073c.02.015.042.03.064.044l.012.01.132.085c.005.004.01.008.016.01l.039.024.079.05.055.033.048.029.034.02c.046.028.093.055.14.08l28.22 15.81.054.03.053.029.054.029.026.013.007.004.021.011c.048.026.096.05.144.074l.026.014h.001c.057.03.115.058.173.086l.009.004.061.03c.035.015.07.032.104.048a.806.806 0 0 1 .021.01l.075.032.08.037.036.015.063.027.058.024.065.026.063.025.029.012.118.046c.012.005.023.01.035.013l.005.002c.053.02.106.04.159.058l.018.007.05.017.08.029c.019.006.037.011.055.018l.058.02a15.145 15.145 0 0 0 .161.051l.022.007h.002l.15.045.03.009.05.014.064.018.081.022.044.011.02.006.144.036.017.004a.58.58 0 0 0 .04.01l.088.02.063.015.047.01a72.266 72.266 0 0 0 .175.037c.002.002.006.002.009.003a4.132 4.132 0 0 0 .133.026l.055.01.026.006.012.001.05.01.143.023.143.022a7.71 7.71 0 0 1 .083.012l.059.009.142.018.146.017.048.005.026.002.07.008.146.013.146.01c.01.002.021.002.032.003l.024.001.094.006.15.007.15.005h.017c.043.002.088.002.132.003H47.944c.01-.001.019 0 .028-.002.053 0 .105-.002.157-.003l.157-.007.048-.002.034-.002.089-.005.169-.012.12-.011a.352.352 0 0 1 .024-.002c.008 0 .016 0 .024-.002a7.863 7.863 0 0 0 .356-.041l.012-.002.005-.001.061-.009a7.94 7.94 0 0 0 .109-.016l.016-.002.08-.013.09-.014.023-.005c.029-.004.056-.01.083-.015l.08-.014.025-.005.154-.03.05-.011.012-.002c.072-.016.143-.032.214-.05h.003l.022-.005a12.718 12.718 0 0 0 .203-.052l.052-.014.141-.04.03-.009.054-.016.11-.034.085-.028.107-.035.041-.014.044-.016.105-.038a6.03 6.03 0 0 0 .19-.072l.049-.018.035-.014.102-.043.083-.034.1-.045c.02-.008.039-.016.057-.025l.025-.011.1-.048.08-.037.1-.05c.02-.01.042-.02.061-.031l.015-.007.017-.01c.047-.024.093-.048.138-.074l.025-.013.002-.002c.06-.033.12-.067.179-.102l.009-.005.043-.026.124-.075.02-.013.043-.029.11-.07.03-.02.039-.027.092-.063.07-.05.089-.065a1.042 1.042 0 0 0 .067-.051l.089-.069.064-.052.003-.001Z" fill="#B2B2B2"/></g><g filter="url(#filter1_df_1337_20700)"><path d="M189.784 52.93c1.67-.627 3.3-.947 4.823-.986 1.522-.04 2.95.2 4.191.698 1.247.498 2.312 1.255 3.12 2.24.809.985 1.364 2.215 1.578 3.641l6.721 44.926c.249 1.668.106 3.391-.37 5.076-.475 1.686-1.289 3.344-2.369 4.863a18.39 18.39 0 0 1-3.985 4.062 17.782 17.782 0 0 1-5.182 2.68l-52.397 16.753c-1.722.55-3.37.731-4.875.585-1.505-.145-2.852-.609-3.994-1.349a7.895 7.895 0 0 1-2.713-2.977c-.647-1.228-1.022-2.678-1.061-4.309L132.214 84.7c-.034-1.407.245-2.857.778-4.275.53-1.412 1.314-2.795 2.291-4.074a18.45 18.45 0 0 1 3.461-3.453c1.311-1 2.767-1.828 4.309-2.408l46.731-17.56Z" fill="url(#paint1_linear_1337_20700)"/><path opacity=".9" d="M159.022 118.035a12.071 12.071 0 0 0 2.248-.947 12.89 12.89 0 0 0 3.753-3.063 10.93 10.93 0 0 0 1.301-1.95l12.368-23.94c.325-.63.562-1.259.706-1.876a6.262 6.262 0 0 0 .164-1.793 4.92 4.92 0 0 0-.373-1.624 4.658 4.658 0 0 0-.897-1.37l-6.536-6.831a1.55 1.55 0 0 0-.447-.319 1.824 1.824 0 0 0-.543-.159 2.407 2.407 0 0 0-.601-.005 3.363 3.363 0 0 0-.629.135 3.75 3.75 0 0 0-1.71 1.131c-.154.18-.286.375-.396.585l-22.439 42.958c-.233.445-.324.869-.298 1.241.026.373.166.705.402.957.236.251.56.433.949.509.389.075.853.055 1.353-.101l11.618-3.546m37.766-11.515a3.66 3.66 0 0 0 1.293-.698c.363-.304.655-.661.849-1.035.195-.374.296-.764.28-1.133a1.491 1.491 0 0 0-.411-.989l-9.751-10.173a1.57 1.57 0 0 0-.458-.33 2.053 2.053 0 0 0-.553-.167 2.516 2.516 0 0 0-.615-.012c-.211.02-.425.064-.641.13a3.575 3.575 0 0 0-.633.265c-.206.11-.405.239-.59.385a3.448 3.448 0 0 0-.509.496 3.111 3.111 0 0 0-.396.596l-8.017 15.597c-.218.427-.301.833-.271 1.191.03.358.174.672.406.917.232.244.554.412.936.483.381.072.831.048 1.32-.102l17.761-5.421Z" fill="#C8383A"/><path d="m213.309 109.922.013-.195c.002-.033.005-.065.006-.098l.001-.037c.004-.067.005-.134.008-.202l.004-.127.001-.218v-.11a8.78 8.78 0 0 0-.006-.282v-.046a8.83 8.83 0 0 0-.018-.327v-.008a8.563 8.563 0 0 0-.018-.23c0-.013-.002-.025-.004-.039l-.007-.077-.012-.114a2.871 2.871 0 0 0-.011-.097l-.01-.083c-.003-.016-.004-.032-.006-.05l-.033-.229-6.854-44.645-.014-.091-.015-.09c-.005-.03-.01-.06-.017-.09l-.017-.09-.013-.057a1.137 1.137 0 0 1-.011-.056l-.024-.116-.055-.223-.01-.04a.115.115 0 0 0-.004-.017l-.009-.03-.036-.133c-.022-.074-.043-.146-.066-.217l-.008-.024-.008-.027-.046-.137c-.021-.062-.044-.124-.067-.186a.314.314 0 0 0-.018-.043c-.002-.005-.003-.011-.006-.016l-.009-.022-.039-.1-.076-.18-.03-.066-.017-.035-.029-.064c-.025-.054-.052-.107-.078-.16a2.362 2.362 0 0 0-.06-.115l-.007-.014-.005-.008-.012-.021a12.028 12.028 0 0 0-.162-.287l-.019-.032c-.003-.008-.008-.014-.012-.021l-.047-.078-.081-.127a9.024 9.024 0 0 1-.083-.125c-.955-1.4-1.91-2.8-2.866-4.198.073.108.144.219.212.33l.013.022c.067.11.13.224.191.34l.011.023c.058.11.114.225.167.34l.016.035c.051.114.1.229.146.346l.015.038c.047.12.09.243.13.367l.009.028c.039.124.076.249.11.375l.013.047c.033.125.062.252.088.38l.012.055c.028.138.053.277.074.42l6.721 44.926c.014.093.027.187.038.281l.011.082.022.213.008.079.021.279c.007.11.013.22.017.33v.048c.002.094.005.189.005.282v.111c0 .074 0 .147-.003.22a7.113 7.113 0 0 1-.022.467l-.014.196a6.618 6.618 0 0 1-.013.14l-.019.192-.016.143-.024.191-.021.144a10.69 10.69 0 0 1-.093.55l-.024.127-.052.245-.022.101a14.314 14.314 0 0 1-.177.688c-.012.047-.026.092-.04.139l-.056.186-.045.143-.06.182-.049.144c-.022.06-.042.12-.063.181l-.054.144c-.022.059-.044.119-.068.178l-.057.144-.072.177-.061.143a5.51 5.51 0 0 1-.077.176l-.063.141-.081.176a9.563 9.563 0 0 1-.153.316l-.067.134-.116.224-.057.109a11.7 11.7 0 0 1-.16.289l-.021.038c-.062.109-.125.218-.19.326l-.057.093a8.702 8.702 0 0 1-.239.381l-.078.123-.111.166-.076.112c-.041.061-.084.12-.126.18l-.064.092a17.379 17.379 0 0 1-.872 1.126c-.142.17-.288.338-.438.504l-.028.03c-.152.167-.306.331-.464.492-.004.004-.008.009-.013.012-.159.163-.324.324-.489.481l-.031.029a18.236 18.236 0 0 1-1.056.923l-.033.026c-.177.143-.356.282-.54.419-.018.012-.035.026-.053.039l-.226.166c-.013.008-.026.019-.038.027-.086.062-.174.123-.262.184l-.07.047a16.37 16.37 0 0 1-.217.145l-.061.04c-.089.059-.178.115-.268.172l-.066.041c-.072.045-.145.09-.219.134l-.077.047a15.598 15.598 0 0 1-.313.182l-.251.14-.091.049-.216.115-.079.042c-.097.051-.196.1-.294.149l-.057.028-.244.118-.104.048c-.068.031-.137.063-.206.093l-.108.048-.197.085-.129.054c-.072.031-.146.06-.219.089l-.105.043c-.109.043-.216.083-.326.124l-.042.015c-.1.037-.201.073-.302.107l-.014.005c-.114.04-.229.078-.344.114l-52.397 16.753c-.111.036-.219.068-.328.1l-.091.027c-.086.025-.172.048-.259.072l-.075.02a9.692 9.692 0 0 1-.316.078l-.128.029a5.942 5.942 0 0 1-.215.047l-.14.028-.201.038-.146.025c-.064.012-.13.022-.195.032l-.145.021-.192.026-.145.017a5.935 5.935 0 0 1-.192.02c-.047.006-.093.009-.14.013l-.194.014-.135.009-.201.009-.123.005-.231.004h-.09c-.106 0-.213-.002-.318-.005-.021 0-.041-.003-.063-.003-.083-.003-.167-.006-.249-.011l-.113-.008-.197-.015-.124-.013c-.06-.006-.121-.012-.182-.02l-.128-.016a10.432 10.432 0 0 1-.174-.026l-.128-.02c-.057-.01-.114-.019-.169-.03l-.127-.024-.168-.036c-.042-.009-.082-.017-.124-.028a4.566 4.566 0 0 1-.168-.04l-.119-.03-.172-.048-.109-.032a6.066 6.066 0 0 1-.191-.061c-.028-.009-.057-.017-.085-.028a7.829 7.829 0 0 1-.27-.096c-.013-.005-.024-.01-.037-.013-.077-.03-.154-.06-.229-.092l-.091-.039a6.602 6.602 0 0 1-.169-.073c-.035-.015-.069-.032-.103-.048l-.137-.066a8.478 8.478 0 0 1-.411-.216c-.022-.013-.045-.027-.069-.039a9.079 9.079 0 0 1-.391-.24l-.062-.042a7.379 7.379 0 0 1-.379-.269l-.042-.033a7.428 7.428 0 0 1-.38-.309l3.81 3.311c.123.107.249.209.378.308l.042.032c.123.094.249.182.378.268l.062.042c.128.084.257.163.39.24l.068.04c.134.075.269.148.408.216l.023.012.113.054.077.036a.296.296 0 0 0 .025.012l.17.074c.03.013.059.027.089.039.076.032.152.062.228.091l.037.014c.088.034.178.066.269.096l.084.028c.063.02.126.042.191.061l.107.031.172.05.118.03.167.042.122.028.095.021.071.014.127.025.168.031.072.012c.019.003.038.005.056.009.056.009.115.018.173.025l.126.018c.06.008.12.014.181.02l.123.013.196.016.111.009.247.013.064.003c.104.003.209.006.315.006h.09l.202-.001h.027c.04 0 .081-.003.121-.004l.2-.008c.045-.002.09-.005.134-.009.064-.003.128-.009.191-.014l.051-.003c.029-.003.058-.007.088-.009l.191-.019c.047-.005.095-.01.142-.017l.191-.024a3.28 3.28 0 0 0 .143-.02l.193-.03.143-.024.2-.037.139-.026c.071-.014.142-.031.214-.046a5.858 5.858 0 0 0 .153-.033c.085-.02.171-.04.257-.062a.223.223 0 0 0 .032-.009l.073-.019.152-.04.103-.029c.031-.009.061-.018.091-.025l.065-.018c.086-.025.173-.052.259-.08l51.847-16.381c.033-.01.066-.02.099-.032l.097-.031.098-.033.045-.015.014-.005.038-.013c.086-.029.171-.059.256-.091l.046-.016h.003l.304-.114.015-.007.106-.041.18-.072a.613.613 0 0 1 .035-.015l.126-.054.137-.056.06-.027.106-.047.096-.043.107-.049.103-.048.048-.023.192-.092.057-.028c.003 0 .005-.003.008-.004l.254-.128.029-.015.078-.04.128-.067.086-.047.09-.048.057-.03c.064-.036.129-.072.192-.109l.033-.019.004-.003a10.3 10.3 0 0 0 .227-.132l.045-.027.074-.045c.032-.019.065-.038.096-.058l.121-.075.064-.041.029-.017c.071-.044.142-.09.211-.136l.024-.016a.861.861 0 0 0 .059-.039l.126-.084c.03-.02.061-.04.091-.062l.067-.045c.015-.01.031-.02.046-.032l.201-.14.012-.009a.39.39 0 0 1 .036-.025c.05-.036.101-.072.15-.109l.076-.055.037-.027a.174.174 0 0 0 .015-.013l.07-.052.193-.147c.065-.05.128-.1.191-.151l.079-.063a.34.34 0 0 1 .031-.025l.079-.064a13.897 13.897 0 0 0 .375-.314l.061-.053.033-.03.091-.079.183-.165.181-.166.041-.038.029-.028.115-.109c.061-.058.121-.118.181-.177.059-.059.12-.119.178-.179l.009-.009.011-.012.156-.16a15.575 15.575 0 0 0 .302-.326l.028-.031.032-.035.175-.199.174-.201.052-.062.036-.044.096-.115.18-.224.125-.16.025-.032c.009-.011.018-.021.026-.033a15.688 15.688 0 0 0 .37-.504l.005-.008.06-.086.106-.153.015-.023.076-.112.087-.129.022-.034.077-.12.073-.114.024-.038.14-.226.045-.075.01-.016c.063-.108.127-.214.187-.323l.003-.003.019-.035a19.17 19.17 0 0 0 .171-.311l.041-.081c.04-.073.078-.147.114-.221.008-.015.017-.031.024-.047l.042-.086.085-.174.064-.138c.027-.058.055-.116.08-.174l.03-.067c.012-.024.022-.05.032-.074a22.43 22.43 0 0 0 .205-.49l.034-.084.023-.059.065-.176.054-.143.062-.177c.011-.032.024-.065.034-.098l.014-.044.058-.18.045-.143a12.588 12.588 0 0 0 .088-.293l.007-.027.009-.031a8.18 8.18 0 0 0 .068-.258l.013-.046v-.005a11.128 11.128 0 0 0 .085-.358l.017-.083c.018-.081.035-.161.051-.242l.008-.039.015-.087c.014-.072.026-.145.039-.217.004-.021.008-.04.01-.06l.013-.081a10.481 10.481 0 0 0 .071-.518l.01-.084.005-.059.017-.19c.004-.046.009-.093.012-.14l.001-.005Z" fill="#B2B2B2"/></g><g filter="url(#filter2_d_1337_20700)"><path d="m207.332 335.596-.012-.232a23.644 23.644 0 0 0-.062-.88l-.534-5.718c.028.298.048.595.065.892l.013.237c.012.26.019.519.023.778l.003.122c.001.293-.002.587-.011.88l-.008.226c-.009.244-.024.487-.04.731l-.012.183c-.022.291-.052.583-.084.873l-.026.201c-.028.239-.061.478-.098.715a30.424 30.424 0 0 1-.188 1.076c-.01.05-.022.101-.034.152-.05.243-.105.487-.163.731l-.055.229c-.072.285-.146.571-.228.856-.005.022-.013.044-.019.066a21.731 21.731 0 0 1-.32 1.019c-.088.258-.176.514-.272.769-.01.025-.019.053-.027.077-.105.283-.219.562-.336.839l-.102.239a30.3 30.3 0 0 1-.393.869c-.115.238-.229.477-.353.712l-.053.108c-.139.27-.286.536-.435.802l-.129.224a21.18 21.18 0 0 1-.35.589c-.05.079-.098.161-.15.241a23.92 23.92 0 0 1-.436.669l-.071.109-.088.124a27.012 27.012 0 0 1-.872 1.192c-.188.244-.381.484-.58.722l-.225.273c-.269.317-.546.631-.832.936a27.414 27.414 0 0 1-.89.906c-.162.159-.328.316-.495.474l-.123.116c-.233.212-.469.42-.707.627l-.184.153c-.192.164-.39.323-.588.482l-.196.156c-.251.197-.505.391-.766.581-.039.029-.08.055-.119.084a24.07 24.07 0 0 1-.918.633c-.239.158-.478.313-.723.465l-.113.07c-.176.108-.355.21-.534.314-.14.084-.278.167-.421.248-.192.107-.386.209-.581.312-.135.072-.267.146-.403.215-.218.113-.44.219-.662.324-.118.056-.232.116-.351.172-.343.159-.687.314-1.04.462L85.446 399.115a29.466 29.466 0 0 1-9.742 2.287 27.856 27.856 0 0 1-9.398-1.043 25.965 25.965 0 0 1-8.204-4.039 24.313 24.313 0 0 1-6.194-6.678l2.983 4.775a24.026 24.026 0 0 0 6.106 6.593 25.665 25.665 0 0 0 8.084 3.987 27.425 27.425 0 0 0 9.253 1.036 28.92 28.92 0 0 0 9.588-2.25l102.904-43.409c.344-.145.681-.295 1.018-.451l.007-.001c.114-.052.224-.111.337-.166.215-.104.432-.206.644-.315a.03.03 0 0 0 .013-.008c.138-.07.27-.146.405-.218.18-.097.364-.192.541-.291.008-.002.014-.008.021-.012.139-.078.274-.16.412-.243.168-.097.336-.194.5-.292l.032-.02.108-.069c.24-.15.478-.302.714-.46.076-.049.152-.101.228-.152.068-.048.14-.094.209-.142.158-.11.313-.219.467-.331.04-.029.08-.055.117-.083.216-.158.432-.319.642-.481.037-.028.074-.059.113-.09.066-.052.129-.101.194-.154.196-.156.389-.314.579-.474.039-.034.081-.066.119-.099.022-.018.041-.037.06-.054l.097-.082c.203-.175.402-.353.6-.535l.121-.115c.125-.118.253-.235.377-.355.038-.037.073-.077.111-.113.266-.261.528-.525.781-.796.025-.028.055-.052.08-.08a26.521 26.521 0 0 0 .834-.94c.024-.031.054-.057.078-.088.049-.059.094-.122.145-.181.194-.235.383-.472.569-.713.044-.057.093-.114.137-.171.031-.043.058-.084.09-.127.216-.288.426-.582.63-.878.022-.033.048-.064.069-.096l.017-.027c.023-.035.046-.071.072-.107.147-.217.289-.439.427-.659.022-.033.045-.066.066-.101.028-.047.054-.093.082-.137.052-.083.103-.165.154-.25.065-.111.126-.22.192-.331.043-.073.086-.146.126-.221a25.88 25.88 0 0 0 .43-.79l.052-.103a18.403 18.403 0 0 0 .463-.958c.042-.09.085-.178.124-.268.05-.113.097-.227.144-.339.035-.079.069-.155.101-.233.111-.269.219-.537.322-.808l.008-.023c.01-.025.017-.052.027-.077.094-.252.183-.505.266-.758l.075-.225a31.815 31.815 0 0 0 .261-.843c.064-.223.124-.447.182-.674l.04-.172.025-.097c.011-.043.018-.085.029-.126.056-.239.11-.48.16-.72l.032-.152c.057-.282.106-.566.152-.851l.031-.211c.018-.111.037-.222.051-.335.017-.123.031-.248.046-.371.009-.066.018-.132.024-.197.033-.287.061-.574.082-.861.005-.06.007-.119.012-.182.017-.241.03-.48.038-.719l.008-.224.006-.149c.005-.241.008-.479.005-.72a64.038 64.038 0 0 0-.026-.888l.001.005Z" fill="#B2B2B2"/><path d="M126.905 220.811a29.837 29.837 0 0 1 10.109-2.266 28.39 28.39 0 0 1 9.758 1.242c3.074.963 5.929 2.46 8.356 4.438 2.435 1.981 4.45 4.443 5.862 7.335l43.396 88.93a23.817 23.817 0 0 1 2.433 9.965 24.402 24.402 0 0 1-1.863 9.846 26.377 26.377 0 0 1-5.747 8.577c-2.511 2.514-5.602 4.629-9.179 6.137L85.452 399.108c-3.605 1.52-7.315 2.273-10.935 2.334a27.515 27.515 0 0 1-10.368-1.817c-3.231-1.246-6.156-3.098-8.607-5.486a24.092 24.092 0 0 1-5.697-8.654l-35.688-92.749a21.209 21.209 0 0 1-1.342-9.269c.234-3.098 1.118-6.16 2.56-9.019 1.44-2.851 3.439-5.501 5.91-7.783a29.69 29.69 0 0 1 8.753-5.582l96.867-40.272Z" fill="url(#paint2_linear_1337_20700)"/><path d="m87.486 259.483.036.076c.011.023.03.052.042.075.011.023.03.052.042.075l.036.076c1.208 2.984 2.419 5.974 3.63 8.97l3.644 9.006 3.66 9.048 3.675 9.084c.006.031.018.054.03.084.013.029.012.055.019.086l.018.087.019.086c-.016.016-.032.033-.055.044-.024.012-.04.028-.056.044-.016.017-.039.028-.055.044-.016.017-.038.034-.054.051l-2.181 2.149a863.46 863.46 0 0 1-2.188 2.151 356.36 356.36 0 0 0-2.186 2.158c-.726.722-1.46 1.434-2.187 2.157-.68.667-1.365 1.336-2.043 2.01-.678.674-1.363 1.343-2.042 2.011-.68.667-1.364 1.343-2.044 2.01-.679.668-1.363 1.343-2.041 2.017-.845.832-1.695 1.672-2.546 2.505-.85.833-1.694 1.671-2.545 2.505-.852.833-1.695 1.671-2.546 2.505-.851.833-1.7 1.673-2.546 2.505-.065.059-.129.124-.194.183l-.195.177-.195.177-.195.178c.037-.189.08-.385.117-.574.037-.189.079-.385.115-.58.036-.195.08-.385.115-.58.036-.195.08-.385.116-.58.037-.188.08-.385.117-.573.037-.189.079-.385.121-.582l.122-.581c.042-.196.08-.385.116-.573.345-1.688.694-3.383 1.038-5.071l1.035-5.056c.344-1.688.691-3.363 1.037-5.044.346-1.681.687-3.355 1.032-5.037.478-2.335.957-4.665 1.436-6.995.478-2.329.953-4.651 1.433-6.975.48-2.323.955-4.639 1.43-6.955.476-2.316.953-4.625 1.428-6.941.191-.951.39-1.898.582-2.843.193-.945.392-1.891.583-2.842.192-.951.392-1.891.584-2.836.193-.945.392-1.891.584-2.836.007-.028.01-.048.018-.069l.024-.069c.008-.022.015-.049.024-.07.008-.021.015-.049.024-.07l.012-.002Z" fill="#7A7A7A"/><path d="M102.43 296.249c.044-.009.09-.006.14-.01.051-.005.096-.008.141-.011l.14-.01c.044-.003.095-.008.141-.005.059.001.116-.005.167-.009.051-.005.109-.004.16-.009.051-.004.103-.002.154-.006a.926.926 0 0 1 .149 0c.078.003.149.001.227.003.078.003.149.001.227.004.079.002.149 0 .228.003.078.002.149 0 .227.003.356.002.714.009 1.071.011.356.002.714.009 1.072.017.358.008.714.009 1.07.011.357.001.715.009 1.071.011.052.002.105.003.155-.001.051-.004.105.004.156-.001.051-.004.104.004.155 0 .051-.005.104.003.155-.001a.464.464 0 0 1 .098.005c.034.005.065-.001.098.005.034.005.065-.001.099.004.033.006.064 0 .098.005l1.714.023c.571.007 1.143.015 1.713.016.57.001 1.141.009 1.713.016.571.008 1.141.009 1.713.016.038-.001.07-.002.11.003.04.004.071-.002.111.002.04.004.071-.002.11.002.04.005.071-.002.111.003.479.001.96.008 1.439.009.48.002.961.009 1.441.016.481.008.961.009 1.435.018.475.008.96.008 1.441.016.097-.002.189.005.286.003.097-.001.188.005.285.004.097-.001.189.005.286.004.097-.001.189.005.286.004l.266.001c.084.002.181 0 .265.002l.266.001c.085.002.181 0 .266.002.487.006.974.012 1.459.012.486 0 .974.012 1.46.012.485 0 .974.012 1.459.012.486 0 .974.012 1.46.012.577.006 1.154.006 1.725.013.571.008 1.149.014 1.725.014.577 0 1.149.014 1.726.014.576 0 1.155.012 1.726.019.286.004.565.009.844.008.278-.001.557.004.837.009.279.005.557.004.829.004.272 0 .552.005.831.01h.091l.091.001h.181c.019-.004.045-.003.063-.007l.062-.014.062-.013.056-.012.005.116-.77.938c-.257.313-.513.626-.772.933-.258.307-.513.626-.771.933-.258.306-.514.626-.77.938-.267.328-.533.656-.806.986a57.98 57.98 0 0 0-.804.991c-.265.334-.539.657-.804.991-.266.334-.54.657-.812.987l-1.295 1.573c-.432.525-.865 1.043-1.296 1.567-.432.525-.865 1.043-1.296 1.568-.432.524-.863 1.049-1.301 1.575-.324.391-.643.776-.961 1.166l-.954 1.172-.953 1.171c-.318.391-.636.781-.961 1.167-.386.463-.765.931-1.152 1.395-.386.463-.766.925-1.153 1.388-.386.463-.767.925-1.153 1.388-.386.464-.765.932-1.152 1.395-.308.376-.617.745-.919 1.119-.302.374-.61.75-.918 1.125-.308.376-.61.75-.918 1.126l-.924 1.126c-.216.266-.431.531-.652.798-.221.266-.432.524-.653.791-.221.266-.432.524-.653.791-.221.267-.438.526-.653.791a3982.146 3982.146 0 0 1-3.288-8.036c-1.091-2.679-2.181-5.346-3.264-8.015-1.083-2.668-2.164-5.331-3.24-7.994-1.075-2.664-2.148-5.315-3.221-7.967l-.028-.071-.028-.072-.03-.077-.029-.078.006.031Z" fill="#121212"/><path d="m102.355 296.232.057.085a.456.456 0 0 1 .044.081c.013.03.024.053.036.076a.388.388 0 0 1 .029.078c1.073 2.651 2.147 5.309 3.221 7.966 1.074 2.658 2.157 5.326 3.234 7.996l3.246 8.019 3.258 8.049s-.052-.002-.077.003c-.025.006-.051.005-.077.004-.026-.001-.051.004-.077.003a1.297 1.297 0 0 1-.072-.004c-3.04-.347-6.08-.694-9.114-1.042-3.033-.349-6.066-.691-9.1-1.039a8914.11 8914.11 0 0 0-9.08-1.037c-3.025-.343-6.045-.688-9.067-1.039l-1.103-.133c-.366-.045-.736-.082-1.108-.126-.372-.043-.737-.082-1.109-.125-.371-.044-.737-.089-1.108-.126l-.086-.072c.056-.07.12-.135.178-.193.06-.058.123-.123.188-.182s.124-.117.189-.176c.065-.059.124-.116.188-.182.85-.833 1.7-1.673 2.545-2.505.845-.832 1.695-1.671 2.546-2.505.851-.833 1.695-1.671 2.546-2.505.85-.833 1.694-1.671 2.54-2.503.685-.669 1.363-1.343 2.048-2.012.686-.669 1.364-1.343 2.043-2.01l2.043-2.011 2.043-2.01 2.186-2.158c.728-.716 1.46-1.434 2.187-2.157.726-.723 1.454-1.433 2.187-2.151.734-.718 1.455-1.433 2.188-2.151l.048-.049c.016-.016.033-.026.055-.044s.04-.028.055-.044c.016-.016.04-.028.056-.044l-.006-.025Z" fill="#323232"/><path d="M144.138 302.638c-.155.64-.316 1.274-.478 1.909-.162.635-.33 1.272-.497 1.914-.167.643-.342 1.274-.517 1.912-.174.637-.35 1.269-.524 1.906-1.134 4.109-2.266 8.224-3.405 12.341-1.138 4.117-2.278 8.259-3.419 12.395-1.141 4.137-2.29 8.294-3.433 12.451-1.143 4.156-2.296 8.327-3.448 12.504-.002.02-.012.035-.014.055-.002.02-.012.035-.014.055-.002.02-.012.035-.014.055-.002.019-.012.034-.014.054a.254.254 0 0 1-.081-.073l-.057-.085c-.019-.028-.025-.059-.04-.095l-.041-.101c-.841-2.087-1.69-4.172-2.53-6.253l-2.521-6.237-2.517-6.224-2.508-6.207c-.008-.037-.027-.065-.041-.101-.014-.036-.021-.066-.034-.096-.013-.03-.02-.067-.033-.096l-.04-.095c.631-.774 1.269-1.542 1.901-2.31l1.901-2.309c.632-.768 1.265-1.535 1.901-2.31.637-.775 1.265-1.535 1.895-2.308 1.547-1.879 3.087-3.757 4.634-5.636 1.547-1.879 3.082-3.749 4.623-5.626a3848.97 3848.97 0 0 1 4.617-5.62c1.542-1.871 3.078-3.741 4.613-5.612a.668.668 0 0 0 .029-.044c.01-.015.027-.026.037-.041a.129.129 0 0 1 .044-.035c.018-.01.027-.025.038-.034l-.013-.003Z" fill="#2E2E2E"/><path d="m76.758 329.847.61.064.615.063.616.063c.205.02.41.041.617.068 1.732.2 3.471.397 5.21.595l5.216.594c1.74.198 3.478.396 5.218.6 1.74.204 3.486.401 5.224.599 1.421.162 2.835.326 4.257.494 1.422.169 2.841.325 4.256.495 1.416.17 2.841.325 4.262.487l4.261.488.198.016.197.016.198.016.198.016c.006.031.02.066.033.096.013.03.021.067.034.096l.039.095.04.095 2.508 6.207 2.518 6.224 2.52 6.236 2.531 6.254c.008.037.027.065.035.102.007.037.02.067.027.098.007.031.014.068.027.097.013.03.015.068.029.104l-.338-.186c-.117-.066-.226-.12-.338-.187-.111-.066-.227-.126-.337-.186-.11-.061-.222-.127-.333-.194-2.904-1.706-5.803-3.42-8.7-5.127-2.897-1.708-5.787-3.41-8.671-5.114-2.884-1.704-5.766-3.402-8.648-5.1-2.876-1.699-5.751-3.392-8.62-5.086-1.275-.755-2.55-1.504-3.823-2.253-1.275-.748-2.542-1.499-3.817-2.248-1.274-.748-2.541-1.499-3.81-2.249-1.267-.75-2.541-1.499-3.81-2.249-.022-.015-.044-.029-.068-.05-.024-.021-.04-.037-.063-.051-.022-.015-.04-.037-.063-.051-.022-.015-.04-.037-.064-.058l.01.011Z" fill="#7B7B7B"/><path d="M87.486 259.483s.036.018.056.02c.02.002.035.012.056.021.022.008.035.011.056.02a.196.196 0 0 0 .055.014c.501.345 1.001.684 1.495 1.025.494.34.988.68 1.48 1.015.493.334.979.669 1.465 1.005l1.459 1.006c.697.472 1.388.951 2.085 1.422.697.472 1.389.951 2.085 1.422.697.472 1.387.945 2.085 1.422.698.478 1.388.945 2.086 1.422.713.488 1.424.969 2.131 1.458.707.488 1.419.97 2.132 1.457.713.487 1.42.976 2.131 1.457.712.482 1.426.975 2.132 1.458.722.498 1.442.99 2.17 1.487.728.497 1.45.996 2.177 1.487.727.491 1.45.995 2.177 1.486.726.491 1.45.996 2.176 1.487.706.482 1.417.963 2.124 1.452.707.489 1.419.97 2.131 1.451.711.482 1.418.97 2.131 1.458.713.487 1.425.968 2.138 1.456l2.192 1.496c.735.502 1.457 1 2.191 1.496.734.496 1.458 1 2.192 1.496.734.496 1.464.999 2.193 1.502.419.292.83.579 1.254.87.425.29.843.576 1.261.868.419.291.848.574 1.273.865l1.275.871c.022.015.037.025.054.041a.36.36 0 0 0 .054.04c.022.014.031.025.047.041.017.016.033.032.054.04l-.062.014-.062.013-.062.013a.123.123 0 0 1-.064.001c-.025.005-.052-.002-.078-.003l-.079-.003-.078-.002-.078-.003c-.28-.005-.552-.005-.831-.01-.28-.005-.552-.006-.83-.004-.278.001-.551-.006-.83-.005-.278.002-.551-.005-.831-.01l-1.745-.016c-.584-.004-1.155-.012-1.733-.018a166.67 166.67 0 0 0-1.731-.012c-.576 0-1.155-.013-1.725-.014-.487-.006-.974-.012-1.46-.012-.485 0-.974-.012-1.459-.012-.486 0-.974-.012-1.46-.012-.485 0-.974-.012-1.459-.012h-.544c-.091-.001-.181-.001-.273-.007-.092-.006-.182 0-.274-.006-.09 0-.187.001-.279-.005-.092-.007-.188.001-.28-.005-.092-.007-.187.001-.279-.005-.092-.007-.188.001-.28-.005-.479-.002-.96-.009-1.441-.016-.48-.008-.96-.009-1.434-.018-.475-.008-.961-.008-1.441-.016-.481-.007-.96-.008-1.44-.01a.58.58 0 0 1-.11-.002c-.04-.004-.071.002-.111-.002-.04-.005-.071.002-.111-.002-.039-.005-.07.002-.11-.003l-1.714-.022c-.572-.008-1.143-.015-1.713-.016-.57-.002-1.142-.009-1.713-.017-.571-.007-1.142-.008-1.713-.016a.464.464 0 0 1-.098-.005c-.034-.005-.065.001-.098-.005-.034-.005-.065.001-.098-.005-.034-.005-.065.001-.099-.004-.052-.002-.104-.004-.155 0-.051.005-.104-.003-.155.001-.051.004-.104-.003-.155.001-.051.004-.105-.004-.156.001-.357-.008-.714-.01-1.072-.017-.357-.008-.714-.01-1.072-.017a54.61 54.61 0 0 0-1.07-.011c-.357-.002-.715-.01-1.077-.01-.079-.003-.149-.001-.228-.003-.078-.003-.149-.001-.227-.003-.078-.003-.149-.001-.227-.004-.079-.002-.149 0-.228-.003-.052-.002-.103.003-.149-.001-.046-.003-.096.002-.147.006-.051.005-.097.001-.148.006-.051.004-.097.001-.148.005-.051.005-.109.004-.16.009a1.573 1.573 0 0 1-.154.007c-.052-.002-.095.007-.146.011l-.14.011c-.027-.033-.047-.068-.066-.096-.019-.028-.032-.058-.045-.087a.552.552 0 0 1-.031-.084c-.005-.025-.018-.054-.031-.084l-3.672-9.077c-1.223-3.02-2.439-6.035-3.659-9.042l-3.646-9.012c-1.211-2.996-2.421-5.986-3.632-8.977-.006-.03-.024-.052-.035-.076-.012-.023-.03-.051-.042-.075-.012-.023-.03-.051-.042-.075l-.036-.076.008.037Z" fill="#2E2E2E"/></g><defs><linearGradient id="paint0_linear_1337_20700" x1="61.131" y1="44.152" x2="28.061" y2="22.174" gradientUnits="userSpaceOnUse"><stop stop-color="#fff"/><stop offset="1" stop-color="#F0F0F0"/></linearGradient><linearGradient id="paint1_linear_1337_20700" x1="204.752" y1="83.712" x2="139.726" y2="98.686" gradientUnits="userSpaceOnUse"><stop stop-color="#fff"/><stop offset="1" stop-color="#F0F0F0"/></linearGradient><linearGradient id="paint2_linear_1337_20700" x1="181.544" y1="272.037" x2="45.505" y2="342.403" gradientUnits="userSpaceOnUse"><stop stop-color="#F9F9F9"/><stop offset="1" stop-color="#F0F0F0"/></linearGradient><filter id="filter0_df_1337_20700" x=".918" y="8.111" width="141.427" height="132.13" filterUnits="userSpaceOnUse" color-interpolation-filters="sRGB"><feFlood flood-opacity="0" result="BackgroundImageFix"/><feColorMatrix in="SourceAlpha" values="0 0 0 0 0 0 0 0 0 0 0 0 0 0 0 0 0 0 127 0" result="hardAlpha"/><feOffset dx="30" dy="40"/><feGaussianBlur stdDeviation="20"/><feComposite in2="hardAlpha" operator="out"/><feColorMatrix values="0 0 0 0 0 0 0 0 0 0 0 0 0 0 0 0 0 0 0.1 0"/><feBlend in2="BackgroundImageFix" result="effect1_dropShadow_1337_20700"/><feBlend in="SourceGraphic" in2="effect1_dropShadow_1337_20700" result="shape"/><feGaussianBlur stdDeviation="1.5" result="effect2_foregroundBlur_1337_20700"/></filter><filter id="filter1_df_1337_20700" x="122.211" y="49.94" width="161.131" height="170.89" filterUnits="userSpaceOnUse" color-interpolation-filters="sRGB"><feFlood flood-opacity="0" result="BackgroundImageFix"/><feColorMatrix in="SourceAlpha" values="0 0 0 0 0 0 0 0 0 0 0 0 0 0 0 0 0 0 127 0" result="hardAlpha"/><feOffset dx="30" dy="40"/><feGaussianBlur stdDeviation="20"/><feComposite in2="hardAlpha" operator="out"/><feColorMatrix values="0 0 0 0 0 0 0 0 0 0 0 0 0 0 0 0 0 0 0.1 0"/><feBlend in2="BackgroundImageFix" result="effect1_dropShadow_1337_20700"/><feBlend in="SourceGraphic" in2="effect1_dropShadow_1337_20700" result="shape"/><feGaussianBlur stdDeviation="1" result="effect2_foregroundBlur_1337_20700"/></filter><filter id="filter2_d_1337_20700" x="2.752" y="218.515" width="274.606" height="267.564" filterUnits="userSpaceOnUse" color-interpolation-filters="sRGB"><feFlood flood-opacity="0" result="BackgroundImageFix"/><feColorMatrix in="SourceAlpha" values="0 0 0 0 0 0 0 0 0 0 0 0 0 0 0 0 0 0 127 0" result="hardAlpha"/><feOffset dx="30" dy="40"/><feGaussianBlur stdDeviation="20"/><feComposite in2="hardAlpha" operator="out"/><feColorMatrix values="0 0 0 0 0 0 0 0 0 0 0 0 0 0 0 0 0 0 0.1 0"/><feBlend in2="BackgroundImageFix" result="effect1_dropShadow_1337_20700"/><feBlend in="SourceGraphic" in2="effect1_dropShadow_1337_20700" result="shape"/></filter></defs></svg>