<svg xmlns="http://www.w3.org/2000/svg" width="371" height="657" viewBox="0 0 371 657" fill="none"><g filter="url(#filter0_d_1337_11132)"><path d="M241.7 300.3c4.2-1 8.6-1 13-.2 4.4 1 8.7 2.7 12.8 5.1a50.4 50.4 0 0 1 20 22.2l62 131.3c2.4 5 3.9 10.1 4.6 15 .6 5 .5 10-.4 14.5s-2.6 8.7-5 12.2a25.3 25.3 0 0 1-9.6 8.3l-119 59.2a35 35 0 0 1-15.7 3.7c-5.5 0-11-1.3-16.1-3.6a47.2 47.2 0 0 1-14.4-10c-4.3-4.4-8-9.7-10.6-15.8L93.6 382.8a45.3 45.3 0 0 1-3.9-17.1c0-5.6 1-10.8 3-15.4a32.2 32.2 0 0 1 22.4-18.9l126.6-31.1Z" fill="url(#paint0_linear_1337_11132)"/><path d="M201.3 571.4a41 41 0 0 1-15-4.3 47.6 47.6 0 0 1-13.2-10c-4-4.2-7.3-9.2-9.8-15L93.6 382.9a47 47 0 0 1-3.6-22.3 35.9 35.9 0 0 1 7.6-18.4L88.5 353a32.4 32.4 0 0 0-7.6 18 45.2 45.2 0 0 0 3.5 21.8l67.4 154.8a50.7 50.7 0 0 0 22.4 24.2 40 40 0 0 0 14.6 4.2c5 .4 10-.2 14.7-2l12.8-4.4c-4.9 1.7-10 2.3-15 1.8Z" fill="#B2B2B2"/><path d="M258.4 337.9a22.9 22.9 0 0 1 8.5 3.5l-34 10.7-3.6-7.4 20.7-6.4a15.9 15.9 0 0 1 6.2-.7l2.2.3Z" fill="#F43E4F"/><path d="m273.7 347.5-37.4 12-3.5-7.4 34.1-10.7a28.5 28.5 0 0 1 6.8 6.1Z" fill="#EFEFEF"/><path d="M273.7 347.5a29.1 29.1 0 0 1 3.7 5.9l.5 1-38 12.7-3.6-7.5 37.4-12Z" fill="#F43E4F"/><path d="m239.8 367 38.1-12.5 3.5 7.2-38 12.8-3.6-7.4Z" fill="#EFEFEF"/><path d="m246.9 382-3.6-7.5 38-12.8 3.5 7.3-38 13Z" fill="#F43E4F"/><path d="M250.4 389.6 247 382l37.9-13.1 3.5 7.2-37.9 13.4Z" fill="#EFEFEF"/><path d="m254 397.1-3.6-7.5 37.9-13.4 3.4 7.3-37.8 13.6Z" fill="#F43E4F"/><path d="m243.3 402.5-.2-.3-.1-.3-.2-.4-.2-.3 49.1-17.7 3.5 7.3-49 18-2.9-6.3Z" fill="#EFEFEF"/><path d="m249.8 416.5-3.6-7.7 49-18 3.5 7.3-48.9 18.4Z" fill="#F43E4F"/><path d="m253.4 424.2-3.6-7.7 48.9-18.4 3.5 7.3-48.8 18.8Z" fill="#EFEFEF"/><path d="m257 431.9-3.6-7.7 48.8-18.8.5 1.2a31.6 31.6 0 0 1 2.2 6.5L257 431.9Z" fill="#F43E4F"/><path d="m260.6 439.6-3.6-7.7L305 413a26.5 26.5 0 0 1 .2 8.7l-44.5 17.8Z" fill="#EFEFEF"/><path d="m264.2 447.3-3.6-7.7 44.5-17.8a19.5 19.5 0 0 1-3.2 7.7 15 15 0 0 1-6.4 5l-31.3 12.8Z" fill="#F43E4F"/><path d="m201.8 353.1 27.5-8.4L254 397l-11.3 4.1a27.2 27.2 0 0 0-3.1-4.7l.2-.5v-.2h-.2l-.5.1a28.8 28.8 0 0 0-11.1-8 23.6 23.6 0 0 0-8.4-1.5l.2-.4h-1.4l-1-1v1.4l-1.1.4-.6.1-.5.2-.5.1-.5.2-4.8 1.6-.9-1v-.1h-.2v.1l.1 1.4-10.5 3.5-5.4-11.6v-.2l-.2-.3v-.2h-.1l-.2-.6c0-.2-.1-.3-.2-.3v-.2c-1.1-3-1.6-6-1.7-8.8 0-2.8.5-5.4 1.4-7.8a16 16 0 0 1 10.4-9.8Zm35.4 26.8v-.1h-.1v-.1h-.1l-1.1.4-1-1.1h-.2l.2 1.4-1.1.4h-.1v.2l.1.2 1.3.4.2 1.4.2.1h.1l.6-1 1.3.3h.1v-.2l-1-1.1.6-1.1v-.1m-15.6-.9v-.2h-.2l-1.2.3-.9-1.1h-.1v-.1h-.1l-.1.2.2 1.3-1.1.4-.1.1v.2h.1l1.3.6.2 1.3v.1h.2v.1h.2l.5-1.1 1.3.4h.1l.1-.1v-.2l-1-1.1.6-1m-18-7.6h.1l.1.1 1.3.5.3 1.4.1.1h.2l.6-1 1.3.4h.2V372.6l-1-1.1.6-1.1v-.2h-.1l-.1-.1-1.2.4-1-1.1v-.1h-.2v.2l.2 1.3-1.2.4-.1.2m31.6 15v-.2h-.2l-1.2.3-1-1.1h-.2v.1l.2 1.4-1.1.4h-.1v.2l.1.1 1.3.5.2 1.3v.1h.1v.1h.2l.6-1.1 1.3.4h.1v-.2l-.9-1.2.6-1m-29.6-8.6v-.2h-.2l-1.2.3-1-1.1-.1-.1h-.1v.1l.1 1.5-1.1.4h-.1v.2l.1.1 1.3.5.2 1.4.1.1h.2l.7-1.1 1.3.4h.1v-.2l-1-1.2.7-1m19.8-11.2-1-1 .6-1.1v-.2l-.1-.1h-.1l-1.2.3-1-1v-.1h-.2v.1l.2 1.4-1.1.3v.1l-.1.1v.1h.1l1.3.6.2 1.3v.1h.4l.5-1 1.3.4h.1l.1-.2m-19.8-2.4.1.1 1.3.5.2 1.4.2.2h.1v-.1l.6-1 1.3.4h.2v-.2l-1-1.2.6-1V363.3h-.2l-1.2.3-1-1.1-.1-.1-.1.2.2 1.3-1.2.4v.2m33.7 10.8-1-1.2.6-1v-.2h-.1l-.1-.1-1.1.4-1-1.1v-.1h-.2v.1l.2 1.4-1.1.4h-.1v.2l.1.1 1.3.5.2 1.3v.1l.2.1h.1l.6-1.1 1.2.4h.2v-.2m-31.5-17.1.1.1 1.3.5.2 1.4.2.1h.1l.7-1 1.2.4h.2v-.2l-1-1.2.6-1v-.2l-.1-.1h-.1l-1.2.3-.9-1.1-.1-.1h-.1v.1l.1 1.4-1.1.4h-.1v.2m17.6-5.6v.2h.1l1.3.5.2 1.3v.1h.1l.1.1h.1l.6-1 1.2.4h.1l.1-.1v-.2l-1-1.1.6-1v-.2l-.1-.1h-.1l-1.1.3-1-1v-.1h-.2l.2 1.4-1.2.4v.1M203.7 385v-.1h-.2l-1.2.3-1-1.1-.1-.1h-.1v.1l.1 1.5-1.2.4V386.2h.1l1.3.5.2 1.4h.1l.1.2h.1v-.1l.7-1.1 1.3.5h.1l.1-.2v-.1l-1-1.2.6-1v-.2m23.3-27v-.1h-.2l-1.2.3-1-1.1-.1-.1h-.1v.2l.2 1.3-1.1.4h-.1v.2l.1.1 1.3.5.2 1.3v.1H225.4l.6-1 1.3.4h.1v-.2l-.9-1.2.6-1v-.1m-7.1 15.2v.1h.1l1.3.6.2 1.3v.1h.1l.1.1h.1l.6-1.1 1.3.4h.2v-.2l-1-1.2.6-1v-.2l-.1-.1h-.1l-1.2.3-1-1v-.1h-.1l-.1.1.2 1.4-1.1.4h-.1v.1m28.4 19.8v-.1h-.1l-.1-.1-1.2.4-.9-1.1-.1-.1h-.1v.1l.2 1.4-1.1.4-.1.1v.2h.1l1.3.5.2 1.4.1.1h.2l.6-1 1.2.3a.3.3 0 0 0 .1 0h.1v-.2l-1-1.1.6-1.1v-.1m-28-38.3V354.3h-.2l-1.1.3-1-1v-.1h-.2v.1l.2 1.4-1.2.3v.4l1.3.4.3 1.4.1.2h.1l.1-.1.6-1 1.3.4h.1v-.2l-1-1.2.7-1m10 21.5v-.2l-.1-.1h-.1l-1.2.4-1-1.2h-.2v.1l.2 1.4-1.1.4-.1.2.1.1 1.3.5.2 1.3v.2H228.8l.6-1.1 1.3.4h.2v-.2l-1-1.1.6-1.1m13.5 7.4v-.2h-.2l-1.2.3-1-1v-.1h-.1v.1l.1 1.4-1 .4h-.1V384.7l1.3.5.3 1.3v.1l.1.1h.1l.6-1.1 1.3.4h.1v-.2l-.9-1.2.5-1m-10-21.7v-.2h-.2l-1.2.3-1-1v-.1h-.2v.1l.2 1.3-1.1.4-.1.2.2.2 1.2.4.2 1.4h.1v.1h.2l.6-1 1.3.4h.2v-.2l-1-1.2.6-1m-5.2 8.2v.1h.2l1.2.6.3 1.3v.1h.2l.7-1 1.2.4h.2v-.2l-1-1.2.6-1v-.2l-.1-.1h-.1l-1.2.3-.9-1v-.1h-.2v.1l.1 1.4-1 .4h-.2v.1m0 12.8v-.2l-.2-.1-1.2.3-1-1v-.1h-.2v.1l.2 1.4-1.2.4v.2l.1.1 1.3.5.2 1.3v.2H227l.6-1.1 1.3.4h.1V385l-.9-1 .6-1.2m13.1 6.8V389.4h-.2l-1.1.4-1-1.1h-.2l.2 1.4-1.1.4-.1.2v.1h.2l1.2.5.3 1.4a.2.2 0 0 0 0 .1h.2l.6-1 1.3.3h.1v-.2l-.9-1.1.6-1.1M214.7 375v-.2a.2.2 0 0 0-.2-.1l-1.2.3-1-1v-.1h-.2v.1l.1 1.4-1.1.4-.1.1v.1l.1.1 1.3.5.3 1.3v.2h.2l.7-1.1 1.3.4h.1v-.2l-1-1.2.6-1m-16.3-1.7a.2.2 0 0 0 0-.3h-.2l-1.2.4-1-1.1v-.1h-.2v.1l.2 1.4-1.2.4-.1.1v.2l.1.1 1.4.5.2 1.3v.2H196.6l.6-1.1 1.3.4h.2v-.2l-1-1.2.6-1m4.3-13.4v-.2h-.2l-1.2.3-1-1.1h-.2l.2 1.4-1.2.4-.1.2v.1h.1l1.3.6.3 1.3v.1H201l.6-1 1.3.4h.1l.1-.1v-.1l-1-1.2.6-1m-2.2 6.3v-.2l-.2-.1h-.1l-1.2.4-1-1.2h-.2v.1l.2 1.4-1.2.4-.1.1v.2h.1l1.4.5.2 1.4.1.1h.2l.6-1 1.3.4h.2V368.6l-1-1.1.6-1.1m16 1v-.1h-.1c0-.1 0-.1-.1 0l-1.2.3-1-1.1v-.1h-.1l-.1.2.2 1.3-1.2.4v.2l.1.1 1.3.5.2 1.4.2.1h.2l.5-1 1.3.4h.1l.1-.1v-.2l-1-1.1.6-1.1m-3.6 14.4v-.2l-.2-.1-1.2.4-1-1.1v-.1h-.1l-.1.2.2 1.3-1.2.4V383.1l1.4.5.2 1.4v.1l.2.1h.2l.6-1.1 1.3.4h.1v-.2l-1-1.2.6-1.1m5.5-21.2v-.2h-.1l-.1-.1-1.2.4-.9-1.2h-.2v.1l.1 1.4-1.1.3v.1l-.1.1v.1h.1l1.3.6.2 1.3v.1h.2v.1h.1l.7-1.1 1.2.4h.2v-.2l-1-1.2.6-1m-26.8 5.2v.1H191.8l.7-1 1.3.4h.1l.1-.2-1-1.2.6-1.1v-.2h-.2l-1.2.3-.5-.6-.2.5-.2.5-.2.5-.2.5.4.1.3 1.4" fill="#1838C4"/><path d="M219.5 385.7h.2V386l-.2.4a27.6 27.6 0 0 0-2.6.3l-.8.2 1.2-.5-.2-1.4v-.1h.2l1 1.2 1.2-.4ZM208.2 387.9h.2l1 1.1-1 .4-.3-1.3v-.1l.1-.1ZM226.9 353.4l-1.3-.5h-.1V352.5l1.2-.4-.3-1.3v-.1H226.8l1 1.1 1-.3h.2l.1.1v.1l-.5 1 .9 1.2v.2h-.2l-1.2-.4-.6 1v.1h-.2l-.1-.2-.2-1.3ZM231.6 363.5l-1.3-.4v-.1l-.1-.1v-.1l1.2-.5-.2-1.3v-.1h.2l1 1.1 1.1-.3h.1l.1.1v.1l-.5 1 .9 1.2v.2h-.1l-1.3-.4-.6 1v.1h-.2v-.2l-.3-1.3ZM236.9 374.8l-1.3-.5-.1-.2v-.1l1.2-.4-.2-1.3v-.2h.2l1 1.2 1-.4h.2l.1.2-.5 1.1.9 1.2v.2h-.2l-1.2-.4-.6 1H237l-.2-1.4ZM226.7 357.7h.2V358l-.5 1 .9 1.2v.2h-.1l-1.3-.4-.6 1H225l-.2-1.4-1.3-.5-.1-.2v-.1l1.2-.4-.2-1.3v-.1h.2l1 1 1.1-.3ZM243.6 383.3h.2v.2l-.5 1.1 1 1.1V386h-.2l-1.3-.4-.5 1v.1h-.2v-.1h-.1l-.2-1.4-1.3-.5-.1-.2v-.1l1.2-.4-.3-1.4v-.1H241.7l1 1.1 1-.3ZM230 370.9l-1.2-.5h-.1V370l1.1-.4-.2-1.4.1-.1h.2l1 1.1 1-.3h.2l.1.1v.2l-.5 1 .9 1.1V371.8h-.1l-1.3-.4-.6 1H230.2v-.1l-.3-1.3ZM248 392.7h.2v.2l-.4 1.2.9 1V395.5h-.1l-1.3-.4-.6 1.1h-.2v-.1l-.3-1.4-1.3-.4-.1-.2v-.1l1.2-.4-.2-1.4v-.1h.2l1 1.1 1-.4ZM220.1 354.3h.2v.2l-.5 1.1.9 1.1V357h-.1l-1.3-.4-.6 1H218.3v-.1l-.3-1.4-1.2-.4-.1-.1v-.2l1.2-.5-.3-1.3v-.1H218l1 1.1 1.1-.3ZM237 379.7h.2V380l-.5 1 .9 1.2v.2h-.2l-1.2-.4-.6 1.1h-.2l-.1-.1-.2-1.4-1.3-.4-.1-.1v-.2l1.2-.5-.3-1.3v-.1H235l1 1.1 1-.4h.1ZM225.1 364.6v.1l-.6 1.1 1 1.1V367.2h-.1l-1.3-.5-.6 1-.1.2h-.1l-.1-.1v-.1l-.3-1.4-1.3-.4V365.6l1.1-.5-.2-1.3v-.1H222.9l1 1.1 1-.3h.2l.1.1ZM241.5 389.4h.2v.2l-.5 1.2 1 1V392.2h-.2l-1.3-.4-.5 1v.1H239.8v-.1l-.3-1.4-1.3-.4-.1-.2v-.1l1.2-.5-.2-1.3v-.1h.2l1 1 1.1-.3ZM230.2 375.8h.2v.2l-.6 1.2 1 1V378.6h-.1l-1.4-.4-.5 1v.1H228.4v-.2l-.3-1.3-1.3-.5-.1-.1v-.2l1.2-.4-.2-1.4v-.1h.2l1 1.2 1.1-.4ZM218 360.5h.2v.2l-.5 1.1.9 1.2v.2h-.2l-1.3-.4-.5 1-.1.1h-.2v-.2l-.3-1.3-1.3-.5-.1-.2v-.1l1.2-.4-.2-1.4v-.1h.2l1 1.2 1.2-.4ZM234.7 387.6l1 1.1v.2h-.1v.1h-.1l-1.3-.4-.5 1v.1h-.1a.2.2 0 0 1-.1 0h-.1v-.1l-.3-1.4-1.3-.5-.1-.2v-.1l1.2-.4-.2-1.4v-.1h.2l1 1.1 1.1-.4h.1l.1.1v.2l-.5 1v.1ZM221.3 373.8l-1.3-.5-.1-.2v-.1l1.2-.5-.2-1.3v-.1h.2l1 1.1 1.2-.4.2.1v.2l-.6 1.1 1 1.1V374.7h-.1l-1.4-.5-.5 1.1H221.5v-.1l-.3-1.4ZM209.3 359l-1.3-.6-.1-.1v-.2l1.2-.4-.2-1.3v-.1h.1v-.1h.2l1 1.2 1.1-.3h.2v.2l-.5 1 .9 1.2v.2h-.1l-1.3-.4-.6 1-.1.1h-.2v-.1l-.3-1.4ZM228.3 382.7h.2v.2l-.5 1.1 1 1.2v.2h-.2l-1.3-.4-.6 1v.1a.3.3 0 0 1-.1 0h-.2v-.1l-.2-1.4-1.3-.5h-.1V383.8l1.1-.4-.2-1.4.1-.1h.2l1 1.2 1-.4h.1ZM216 367.3h.2l.1.2-.5 1.2.9 1v.4h-.2l-1.3-.5-.5 1-.1.1h-.2v-.2l-.3-1.3-1.3-.5-.1-.2v-.1l1.2-.4-.2-1.4.1-.1h.2l1 1.2 1-.4ZM207.1 365.2l-1.3-.5-.1-.1v-.2l1.2-.4-.2-1.3v-.1l.1-.1h.2l1 1.2 1.1-.4h.1l.1.1v.2l-.5 1 1 1.2v.2h-.2l-1.3-.4-.6 1v.1H207.3v-.1l-.3-1.4ZM214.4 374.8h.2V375.1l-.5 1 1 1.2v.2h-.2l-1.3-.4-.6 1v.1H212.6v-.2l-.3-1.3-1.3-.5V375.8l1.1-.4-.2-1.4v-.1H212.4l1 1.1 1.1-.4ZM205.1 372.1l-1.3-.5-.1-.1v-.2l1.2-.4-.2-1.4.1-.1h.2l1 1.2 1.2-.4h.2v.2l-.6 1.2 1 1V373h-.2l-1.3-.4-.6 1v.1h-.2l-.1-.1-.3-1.4ZM221.5 378.7l.1.1v.2l-.5 1 .9 1.2V381.5h-.1l-1.3-.5-.6 1.1H219.6l-.3-1.4-1.3-.5V379.8l1.1-.5-.2-1.3v-.1h.1v-.1h.2l1 1.2 1.1-.4h.1ZM202.4 359.9h.2v.2l-.6 1.1 1 1.1V362.6h-.2l-1.3-.4-.6 1h-.2l-.1-.1-.3-1.4-1.3-.4v-.1l-.1-.1v-.1l1.2-.5-.2-1.3v-.1H200.3l1 1.1 1.2-.3ZM212.5 381.7h.2a.2.2 0 0 1 0 .3l-.5 1 1 1.2v.2l-.1.1h-.1l-1.3-.4-.6 1-.1.1h-.2v-.2l-.3-1.4-1.3-.4h-.1V382.8l1.2-.5-.2-1.3v-.2h.2l1 1.2 1.2-.4ZM200.1 366.2h.2v.2l-.5 1.2.9 1.1v.2h-.2l-1.3-.4-.6 1v.1h-.2l-.1-.1-.2-1.4-1.3-.5h-.1V367.3l1.2-.4-.2-1.4v-.1h.2l1 1.2 1.2-.4ZM205.6 377.7l.1.2v.1l-.6 1.1 1 1.1V380.5h-.2l-1.3-.4-.6 1v.1H203.6v-.1l-.3-1.4-1.3-.5-.1-.2v-.1l1.3-.5-.3-1.3v-.1l.1-.1h.2l1 1.2 1.2-.4ZM191.7 366.2h-.1l-.1-.1v-.1l-.3-1.4-.4-.1.2-.5.2-.5.2-.5.2-.5.5.6 1.2-.4h.2V363l-.6 1 1 1.2V365.5h-.2l-1.3-.5-.6 1.1h-.1ZM198.1 373.1h.1l.1.1v.2l-.5 1.1.9 1.1V376h-.2l-1.3-.4-.6 1v.1H196.2v-.2l-.3-1.3-1.3-.5-.1-.2v-.2l1.3-.4-.3-1.3v-.1h.1v-.1h.2l1 1.2 1.2-.4ZM203.5 384.7l.2.1v.2l-.6 1.1 1 1.2v.2h-.1l-1.4-.4-.6 1.1H201.6v-.1l-.3-1.4-1.3-.5-.1-.1v-.2l1.2-.4-.2-1.4v-.1h.1v-.1h.2l1 1.2 1.2-.4Z" fill="#EFEFEF"/><path d="M239.6 435.8h.2c.1 0 .2 0 .2.2l.1.2v.2l-1.1 2.3 1.9 2.3v.5l-.1.1h-.2l-2.6-.8-1.2 2.3v.1h-.5v-.1l-.1-.1v-.1l-.5-2.9-2.6-.8h-.1v-.1a.5.5 0 0 1-.1 0v-.1h-.1v-.5h.1l2.3-1-.4-2.8V434.3h.1l.1-.1h.2l.1.1 2 2.3 2.3-.9ZM223.6 425.9l-.1-.1h-.1V425.4c-.1 0 0 0 0 0V425.1h.1l2.3-1-.4-2.7V421.2h.1l.1-.1H226v.1l2 2.3 2.3-.9H230.6v.1h.1v.1h.1v.4l-1.1 2.3 1.9 2.3v.2l.1.2v.1l-.2.1h-.2l-2.6-.8-1.2 2.3h-.1l-.2.1h-.2l-.1-.2v-.2l-.6-2.8-2.6-1ZM243.1 450h.1l.1.1.1.1V450.6l-1.1 2.4 1.9 2.3v.2l.1.2v.1l-.2.1h-.1l-2.7-.8-1.2 2.4-.1.1H239.7l-.2-.2v-.1l-.5-3-2.6-.8h-.2v-.1l-.1-.1v-.4l.1-.1 2.4-1-.5-2.8v-.2l.1-.1.1-.1H238.7v.1l2 2.3 2.3-1h.2ZM216.9 415.9h.2l.2.1.1.2v.3l-1.2 2.2 2 2.4v.5H217.8l-2.7-.8-1.2 2.3h-.1v.1h-.4l-.1-.1v-.1h-.1v-.2l-.5-2.8-2.6-.9h-.2v-.1l-.1-.1v-.5h.1l2.4-1-.4-2.7V414.4h.1v-.1h.4v.1l2 2.3 2.4-.8ZM239 463.6h.2l.2.2v.4l-1 2.4 1.8 2.3a1.3 1.3 0 0 0 .1.1 3.2 3.2 0 0 1 0 .1v.4h-.1a6.4 6.4 0 0 1-.2 0l-2.7-.8-1.2 2.4v.1h-.1v.1H235.6l-.1-.1v-.1h-.1v-.1l-.5-3-2.7-.8h-.1v-.1l-.1-.1v-.1l-.1-.1V466.5h.1l2.4-1-.4-3v-.2l.1-.1h.4v.1l2 2.3 2.4-1ZM203.2 417.4h.1v.1h.1v.4l-1.2 2.4 2 2.3v.5l-.1.1h-.2l-2.7-.9-1.3 2.3v.1h-.1l-.2.1h-.2l-.1-.2v-.2l-.5-2.9-2.7-.9h-.2v-.1l-.1-.1v-.4l.1-.1 2.5-1-.5-2.8v-.1a.3.3 0 0 1 .2-.2h.4v.1l2 2.3 2.5-.8h.1ZM228.8 473.1h.1v.1h.1v.1l.1.1V473.7l-1.2 2.5 2 2.3v.5l-.1.1h-.2l-2.7-.8-1.2 2.5a.4.4 0 0 1-.2.1H225.2l-.1-.1-.1-.2-.5-3-2.7-.8-.1-.1-.1-.1a2 2 0 0 1 0-.2s-.1 0 0 0V476h.1l2.4-1.1-.4-3v-.2h.1v-.1h.4v.1l2 2.3 2.4-1h.2ZM192.6 424.8h.1v.1h.1v.1l.1.1V425.4l-1.3 2.4 2 2.4v.5h-.2c0 .1 0 0 0 0h-.1l-2.8-.8-1.3 2.4-.1.1h-.4v-.2l-.2-.2-.4-2.9-2.8-.9h-.1v-.1h-.1v-.2l-.1-.1v-.2h.1a.3.3 0 0 1 .1-.1l2.5-1-.4-2.9v-.2a.3.3 0 0 1 .1-.1h.4l.1.1 2 2.3 2.5-.8h.1ZM215 473.6v.1h.1v.1h.1v.4l-1.2 2.5 2 2.4v.2a.4.4 0 0 1 0 .3l-.1.1h-.2l-2.8-.8-1.2 2.5-.1.1h-.4l-.1-.1-.1-.2-.5-3-2.7-.9h-.2v-.1l-.1-.1v-.4l.1-.1 2.5-1-.4-3V472.2h.1v-.1h.4v.1l2 2.3 2.5-1h.2ZM180.7 442h-.1v-.1h-.1v-.2l-.1-.1v-.2h.1v-.1h.1l2.5-1-.4-3v-.2h.1v-.1h.5v.1l2 2.4 2.6-1h.2l.2.2v.5l-1.2 2.4 2 2.3a1.3 1.3 0 0 0 0 .1v.1l.1.1v.2h-.1v.1H188.7l-2.8-.8-1.3 2.4-.1.1h-.5v-.2h-.1v-.1l-.5-3-2.8-.9ZM200.8 467h.3l.2.1v.5l-1.2 2.4 2 2.4v.6a.3.3 0 0 1-.2 0h-.2l-2.7-.8-1.3 2.5v.1a.4.4 0 0 1-.2 0H197.1l-.1-.1v-.1l-.1-.1-.5-3-2.7-.9h-.2v-.1l-.1-.1v-.5h.1l2.5-1-.4-3V465.6h.1v-.1h.5v.1l2 2.3 2.5-1ZM191.7 461l-2.8-1-1.3 2.5v.1h-.1l-.2.1h-.2l-.1-.2-.1-.2-.5-3-2.8-.8v-.1h-.1l-.1-.1v-.5l.1-.1 2.6-1-.5-3v-.2h.1v-.1h.1l.1-.1h.2l.1.1 2 2.4 2.6-1H191.2l.1.1v.1h.1v.4L190 458l2 2.4.1.2V460.8l-.2.1h-.2Z" fill="#F9DB58"/><path d="m242.6 401.2.2.3.2.4.1.3.2.3 26.3 56.4a29.5 29.5 0 0 1 2.7 13.6 23.4 23.4 0 0 1-2.3 8.4 19 19 0 0 1-5.1 6.3c-1.1.8-2.3 1.5-3.5 2L210.6 512a19.9 19.9 0 0 1-8.8 1.7 22.7 22.7 0 0 1-9.2-2.2 26.5 26.5 0 0 1-8.1-5.8 29.6 29.6 0 0 1-5.8-8.4L151 436a28 28 0 0 1-2.3-14.4 22 22 0 0 1 3.1-8.5 19.3 19.3 0 0 1 10-8l52.2-17.7.5-.1.5-.2.5-.1.5-.1.8-.2.9-.1.8-.1h.9a20 20 0 0 1 8.4 1.4 24.8 24.8 0 0 1 7.2 4.2 28.8 28.8 0 0 1 4 3.8v.1l.2.2.1.1.1.2a30 30 0 0 1 3.2 4.7Zm-55 61.3 1.3-2.4 2.8.8h.4V460.2l-2-2.4 1.2-2.4v-.5h-.1v-.1h-.1a.3.3 0 0 0-.2 0l-2.6 1-2-2.4-.1-.1h-.1v-.1H185.7v.1h-.1a.4.4 0 0 0 0 .2v.1l.4 3-2.6 1h-.1v.6l.1.1h.2l2.7 1 .5 3v.1a.5.5 0 0 0 .4.2h.2v-.1h.1m5.3-37.4v-.2h-.1v-.1h-.2l-.1-.1h-.1l-2.5 1-2-2.4v-.1a.4.4 0 0 0-.2 0H187.4l-.1.1v.2l.4 2.9-2.5 1h-.1v.1h-.1v.4h.1l.1.1h.1l2.8 1 .4 2.9.1.2.2.1.1.1h.2l.1-.1 1.3-2.4 2.8.8H193.7V430l-2-2.3 1.3-2.4v-.2m8.4 42.4v-.5l-.2-.1h-.3l-2.5 1-2-2.4v-.1h-.5v.1h-.1V466l.4 3-2.5 1h-.1v.6h.1v.1h.1l2.8.9.5 3v.1l.1.1a.4.4 0 0 0 .1.1h.4l1.4-2.6 2.7.8h.4v-.5l-2-2.5 1.2-2.4m-20.9-26v.2h.1v.1h.1v.1h.1l2.8 1 .5 2.9v.2h.1l.1.1h.4v-.1l1.4-2.4 2.7.8h.4v-.5l-2-2.4 1.2-2.5v-.4l-.2-.2h-.3l-2.5 1-2-2.4-.1-.1h-.4v.1h-.1V437.5l.4 2.9-2.5 1h-.1v.1l-.1.1v.1m59.7-5.2v-.5h-.3c0-.1-.1-.1-.2 0l-2.3.8-2-2.3-.1-.1H234.8v.1a.3.3 0 0 0-.1.1v.2l.4 2.8-2.3 1h-.1v.4a.4.4 0 0 0 0 .1h.1v.1h.1l2.7.9.4 2.8v.1l.1.1v.1h.1l.1.1H236.7l.1-.1 1.2-2.3 2.6.8h.2l.1-.1v-.2a1.6 1.6 0 0 0 0-.1v-.2l-2-2.3 1.2-2.3m-22.7-20v-.4l-.3-.1h-.2l-2.4.8-2-2.3h-.1v-.1H212v.1l-.1.1v.1l.4 2.9-2.4.9a.3.3 0 0 0-.1.1V418.9a.7.7 0 0 0 0 .1v.1h.2v.1l2.7 1 .5 2.8v.1l.1.1.1.1h.4v-.1l1.3-2.3 2.6.9H218.2v-.1h.1v-.2a1.6 1.6 0 0 0 0-.2v-.1l-2-2.3 1.2-2.3m-2.1 57.5v-.1h-.1v-.1l-.1-.1H214.7l-2.5 1-2-2.4h-.1v-.1h-.4v.1h-.1v.2l.4 3-2.4 1v.1h-.1l-.1.1v.5h.1v.1h.1l2.8.9.5 3a.5.5 0 0 0 .2.3h.4l.1-.1 1.3-2.5 2.7.8H216v-.3c.1 0 .1 0 0-.1v-.2l-2-2.4 1.2-2.4v-.2m8.1-48.6v.2h.1v.1h.2l2.6 1 .5 2.8.1.2.1.1h.2c0 .1.1.1.1 0h.2l1.2-2.3 2.6.8H231.5v-.2c.1 0 .1-.2 0-.2v-.2l-2-2.3 1.2-2.3v-.4h-.1v-.1H230.3l-2.4.8-2-2.3-.1-.1H225.4v.1l-.1.1v.2l.4 2.8-2.3.9h-.1v.2h-.1v.1m20.1 24.8v-.1l-.1-.1-.1-.1h-.2l-2.4.9-2-2.3h-.1v-.1H238.1v.2h-.1v.1l.4 3-2.3.9-.1.1v.4l.1.1.1.1 2.7.9.5 2.8v.2l.2.2h.4v-.1l1.2-2.4 2.6.8H244.3l.1-.2v-.2l-.1-.2-1.9-2.3 1.1-2.3v-.2m-4 13.8s.1-.2 0-.2v-.3h-.2c0-.1-.2-.1-.2 0l-2.4.9-2-2.3v-.1h-.4v.1l-.1.1v.1l.4 3-2.3 1h-.1v.5l.1.1h.1l2.7.9.5 3v.1h.1v.1h.1l.1.1h.2l.1-.1 1.2-2.5 2.7.8H240.4v-.5l-2-2.4 1.2-2.4m-36-46.5-.1-.1v-.1h-.1v-.1H203l-2.5.8-2-2.3-.1-.1H198a.2.2 0 0 0-.1 0V416.2l.3 2.9-2.4 1h-.1v.5h.1v.1h.1l2.7 1 .5 2.8a.5.5 0 0 0 .4.4h.2v-.1l1.3-2.4 2.7.9a.4.4 0 0 0 .1 0H204.2V422.5l-2-2.3 1.2-2.3v-.2m25.7 55.7v-.2h-.1v-.1h-.4l-2.4 1-2-2.4-.1-.1h-.4V472l.4 3-2.4 1-.1.1-.1.1v.4l.1.1h.1v.1l2.8.8.5 3v.2l.2.1h.4v-.1l1.3-2.4 2.6.7h.4a.4.4 0 0 0 0-.4v-.2l-2-2.3 1.2-2.5v-.2" fill="#0A46B1"/></g><g filter="url(#filter1_df_1337_11132)"><path d="M330 70.5c-1.2.2-2.5.1-3.7-.2a11 11 0 0 1-3.4-1.6c-1.1-.8-2.1-1.8-3-3L296.3 33a11 11 0 0 1-2-4.8 8.3 8.3 0 0 1 .8-4.6l-1 1.8-.1.4-.1.2v.1l-.1.1v.1l-.2.2a7.5 7.5 0 0 0-.8 4.5 9.3 9.3 0 0 0 1.9 4.7l22.9 31.9a10.7 10.7 0 0 0 6.3 4.4c1.1.3 2.3.3 3.4.2 1.2-.2 2.3-.5 3.3-1.2l2.6-1.6c-1 .6-2 1-3.3 1.2Z" fill="#B2B2B2"/><path d="M325.6 7c1-.4 2-.6 3-.6s2 .1 3.1.5a11.7 11.7 0 0 1 5.6 4L358 37.7a12 12 0 0 1 1.7 3.2c.4 1 .6 2.2.7 3.3 0 1-.2 2-.6 3-.3.9-1 1.7-1.7 2.3l-24 19.3a8 8 0 0 1-3.3 1.6c-1.3.3-2.6.3-3.9 0a11 11 0 0 1-3.7-1.6c-1.2-.7-2.3-1.8-3.2-3L296.3 33c-.9-1.1-1.5-2.4-1.8-3.7a8.5 8.5 0 0 1 0-3.6 7.5 7.5 0 0 1 4-5.4L325.7 7Z" fill="url(#paint1_linear_1337_11132)"/><g opacity=".8"><path d="M327.5 28a5.8 5.8 0 0 1 2.5 1.6l.7.7 7.8 10.5a6.6 6.6 0 0 1 1.2 2.8 5.4 5.4 0 0 1 0 1.9 4.3 4.3 0 0 1-.8 1.6l-.6.6-9.5 7.6a4.5 4.5 0 0 1-2.8 1 5 5 0 0 1-2.1-.4 5.8 5.8 0 0 1-1.9-1.2l-.8-1-8.7-12.3a6 6 0 0 1-1-3 5 5 0 0 1 .3-2 4.4 4.4 0 0 1 2-2.2l10.3-5.9a3.7 3.7 0 0 1 1.2-.4 4.3 4.3 0 0 1 1.8 0 5.4 5.4 0 0 1 .4.2Zm-5.8 17.5.2-.6h.6l-.5-.5.2-.6v-.1h-.1l-.6.3-.5-.4h-.1l.2.7-.5.4v.1h.7l.2.7h.1Zm3.2.4h-.1l-.6.3-.5-.4h-.1l.2.7-.5.3v.2h.7l.2.7h.2l.2-.6h.6a.1.1 0 0 0 0-.1l-.5-.4.2-.7m-5.7-4.6h.1l.7.1.2.6v.1h.1l.2-.6h.7v-.1l-.5-.5.2-.5v-.1h-.1l-.6.3-.5-.4h-.1l.2.7-.5.3m2-4h-.1V37l-.6.3-.5-.4h-.1l.2.7-.5.3v.1l.7.1.2.6h.1l.2-.5h.7v-.1l-.5-.4.1-.6Zm10.3.2h-.1l-.5.2-.5-.4h-.1v.1l.2.6-.4.3v.1h.6l.2.7h.1l.2-.6.6.1v-.1l-.5-.4.2-.6Zm-5.6-3.2h-.1l-.5.2-.5-.4h-.1l.2.7-.4.3v.1h.6l.2.7h.1l.2-.6.6.1h.1v-.1l-.5-.4.1-.6Zm6.7 9.2v-.1h-.1l-.5.3-.5-.4h-.1l.2.7-.4.3v.1h.6l.3.7h.1l.2-.6h.6l-.5-.5v-.5m-4.5 3.3v-.1h-.1l-.5.3-.5-.4h-.1v.1l.2.7-.5.3v.1l.7.1.2.6v.1h.1l.2-.6h.7v-.1l-.5-.5.1-.6m-.5-10.8h.1l.6.1.2.6h.1l.2-.5h.6l-.5-.5.2-.5V35h-.1l-.5.3-.5-.4h-.1l.2.6-.4.3Zm5.3 4.3h-.1l-.5.3-.5-.4h-.1l.2.6-.4.3v.1a.2.2 0 0 0 0 .1h.6l.3.6v.1h.1l.1-.6h.6l-.4-.5v-.5m-9.6-5.2h-.1l-.5.2-.6-.4v.1l.1.6-.4.3v.1l.6.1.2.6h.2l.2-.5h.6V36l-.5-.4.2-.5V35Zm7.8 10.8v-.1h-.1l-.5.3-.5-.4h-.1v.1l.2.6-.4.4v.1h.6l.2.7a.1.1 0 0 0 .1 0h.1l.1-.6h.7l-.5-.5v-.6Z" fill="#0A46B1"/><path d="M328.4 24.2a3.4 3.4 0 0 1 1.2-.4 4.2 4.2 0 0 1 1.3 0 5.1 5.1 0 0 1 1.8.6 6.8 6.8 0 0 1 3 3.2 5.6 5.6 0 0 1 .5 2.2 3.9 3.9 0 0 1-.6 2 3.1 3.1 0 0 1-.9.9 3.5 3.5 0 0 1-1.3.5h-.5l-2.2-2.9A6.4 6.4 0 0 0 327 28a4.4 4.4 0 0 0-.4-.1 6.7 6.7 0 0 1 0-1 3.9 3.9 0 0 1 .5-1.6 3.2 3.2 0 0 1 1.2-1.1Z" fill="#F5494C"/><path d="M329.2 17.3a3.1 3.1 0 0 1 1.5-.4 4.4 4.4 0 0 1 1.6.3 5.7 5.7 0 0 1 1.6.8 6.5 6.5 0 0 1 1.3 1.3l7.2 9.5a6.3 6.3 0 0 1 1.1 2.5 4.6 4.6 0 0 1 0 1.6 3.3 3.3 0 0 1-.6 1.3l-.5.5-5.5 4-4-5.5a4.2 4.2 0 0 0 1.4-.3 3.4 3.4 0 0 0 1.3-1 3.2 3.2 0 0 0 .5-1.2 4.4 4.4 0 0 0-.1-2.7 5.5 5.5 0 0 0-.7-1.3 7 7 0 0 0-3-2.5 6 6 0 0 0-1.8-.5 4.5 4.5 0 0 0-1.7.3 3.5 3.5 0 0 0-1 .7 3.2 3.2 0 0 0-1 1.4 3.9 3.9 0 0 0-.1 1.8 4.7 4.7 0 0 0-2 .2l-.6.2-3.2 1.8-1.6-2.2a5.8 5.8 0 0 1-.9-1.7 4.6 4.6 0 0 1 0-1.8 3.5 3.5 0 0 1 .5-1.6 3.3 3.3 0 0 1 1.3-1l9-4.5Z" fill="#F0F0F0"/><path d="M327.7 36v-.2l.4-.3-.2-.6.6.4.4-.3h.1v.6l.4.4v.1h-.6l-.1.5h-.1l-.3-.6h-.6ZM325.9 34.1a.1.1 0 0 1 .1 0v.1l-.1.6.5.4v.1h-.7l-.1.5h-.1l-.3-.6-.6-.1V35l.4-.3-.2-.6V34h.1l.5.4.5-.3ZM330.9 45.8v.7l.5.4a.1.1 0 0 1 0 .1h-.7l-.1.6h-.1l-.3-.6h-.6v-.2l.4-.4-.2-.6.6.3.5-.3ZM321.2 37v.2l-.1.6.5.4v.1h-.7l-.2.5a.1.1 0 0 1-.1 0l-.2-.6h-.7V38l.5-.3-.2-.6V37l.6.4.5-.3ZM328 46.6h.1v.1l-.1.6.5.4a.1.1 0 0 1 0 .1h-.7l-.1.7h-.1l-.3-.7h-.7v-.1l.5-.4-.2-.7.6.3.5-.3ZM324.7 45.8h.1V46.7l.4.4v.1h-.6l-.2.6h-.1l-.3-.6-.6-.1h-.1v-.1l.5-.4-.2-.7h.1l.5.4.5-.4ZM331.4 37.3h.1v.7l.4.4v.1h-.6l-.1.5h-.1l-.3-.6h-.6v-.2l.4-.3-.2-.6h.1l.5.3.4-.3ZM332.8 40.2v.6l.4.4v.1h-.6v.6h-.2l-.3-.6-.5-.1h-.1V41l.4-.4-.2-.5V40h.1l.5.4.4-.3ZM332.6 43.3v.6l.5.4v.1h-.6l-.2.6h-.1l-.3-.6h-.6v-.2l.4-.3-.2-.6v-.1h.1l.5.4.5-.3ZM323 35a.3.3 0 0 1 .1 0v.1l-.1.6.5.4v.1h-.6l-.2.5a.1.1 0 0 1-.1 0l-.3-.6h-.6v-.2l.4-.3-.2-.6h.1l.6.3.4-.3ZM319.3 41.4v-.2l.5-.3-.2-.7.6.4.5-.3h.1l-.1.6.5.5v.1h-.7l-.2.6h-.1l-.2-.7h-.7ZM322.5 45h-.6l-.2.5h-.1l-.3-.6h-.6v-.1h-.1v-.1l.5-.4-.2-.6v-.1h.1l.5.4.5-.3h.1v.7l.4.4v.1Z" fill="#F2C811"/></g></g><g filter="url(#filter2_df_1337_11132)"><path d="M167.6 96.6a27 27 0 0 1 12.9 7.8 26 26 0 0 1 4.3 5.8 18 18 0 0 1 2 6.3L195 183c.3 2.5 0 4.7-.6 6.7-.7 2-1.9 3.6-3.4 4.9a12.6 12.6 0 0 1-5.7 2.6c-2.2.5-4.7.4-7.4-.1l-82.5-17.7a28.4 28.4 0 0 1-15.3-9c-2-2-3.5-4.5-4.6-7-1.1-2.5-1.7-5-1.7-7.6l.7-69c0-2.1.6-4 1.6-5.6 1-1.6 2.4-3 4.2-3.8 1.8-1 3.9-1.5 6.2-1.7a23 23 0 0 1 7.5.9l73.7 20Z" fill="url(#paint2_linear_1337_11132)"/><path d="M192 193.6a11.5 11.5 0 0 1-1.4 1.3l-.1.1-.5.3-.5.4h-.1a11.1 11.1 0 0 1-1.2.7l-.6.2h-.2l-.6.3a14.7 14.7 0 0 1-1.4.4h-.1a14.5 14.5 0 0 1-1.4.2h-1l-.7.1h-.9a21.7 21.7 0 0 1-1.6-.1h-.2l-.7-.2h-.2c-.3 0-.5 0-.8-.2l-82.5-17.6-.6-.2h-.2l-.4-.1h-.2l-.4-.2h-.2l-.4-.1-.2-.1-.4-.1-.2-.1-.4-.2h-.2l-.5-.2-.6-.3h-.2l-.4-.2a407.9 407.9 0 0 1-1.3-.7l-.3-.1a18.9 18.9 0 0 1-.6-.3l-.2-.1a25.6 25.6 0 0 1-.5-.3 33 33 0 0 1-.9-.6H86l-.7-.5-.2-.2a29 29 0 0 1-1-.6v-.1l-.8-.6-.3-.2-.5-.5-.3-.3c-.2 0-.3-.2-.5-.4l-.3-.3-.4-.4-.4-.3a30 30 0 0 1-2.4-3l-.3-.3c0-.2-.2-.3-.3-.5a28.1 28.1 0 0 1-.5-.9l-.3-.4a18 18 0 0 1-1-1.8l-.2-.5-.2-.5v-.1l-.2-.3v-.2l-.2-.2v-.3l-.1-.2-.1-.2v-.3l-.1-.2-.1-.2v-.3l-.1-.2-.1-.2v-.3l-.1-.2v-.2l-.1-.3v-.2l-.1-.3v-.2a11.4 11.4 0 0 1-.1-.5v-.4l-.1-.3V156l.6-69a12.3 12.3 0 0 1 .8-4l.5-1.1-.4.8-.3.5h-.1l-.3.6-.1.3-.1.2-.2.2-.3.5-.3.6v.2h-.1l-.2.3-.1.3-.4.6v.2h-.1l-.2.4-.2.3A10.2 10.2 0 0 0 71 93l-1 68.7a12 12 0 0 0 0 1l.1.1v1l.1.2v.5l.1.2v.3l.1.2v.5l.1.2.1.3v.2l.1.2v.3l.2.2a53.5 53.5 0 0 1 .2.7v.2l.2.3v.2l.1.2.1.2v.2l.2.2.1.3.2.5.2.4.3.5.2.4a17.7 17.7 0 0 0 .5.9l.2.3.1.1a17.6 17.6 0 0 0 .6 1l.3.3a22 22 0 0 0 1.3 1.7l.1.1.2.3.2.2.2.1c0 .2.2.3.4.5l.3.3.1.1.3.3.3.3.5.4.3.3.5.5.3.2.7.6h.2l.8.7.3.2.6.4h.2l.8.6h.1a48.6 48.6 0 0 0 .6.4l.4.2.2.1.3.2.2.1a15.7 15.7 0 0 0 1.1.5l.4.2h.2l.6.3.5.2h.2l.4.2h.2a23.8 23.8 0 0 0 .5.2h.1l.4.2h.2a23.7 23.7 0 0 0 .6.2h.4l.2.1.6.2 81.8 17.2.8.2h.1l.8.1h.1a16 16 0 0 0 1.6.1h2.6l.7-.1.7-.2h.2a11.8 11.8 0 0 0 .6-.2c.3 0 .5 0 .6-.2h.2l.6-.2a13 13 0 0 0 1.9-1c.2 0 .4-.2.5-.3h.1l.5-.4h.1l.4-.4.5-.4v-.1l.5-.5 4.7-5Z" fill="#B2B2B2"/><g opacity=".9"><path d="M163.5 113.2h-.1a8.4 8.4 0 0 1-.2 0h-.1.4ZM133.6 105.9h.4-.4Z" fill="#EFEFEF"/><path d="M159.1 133.2a1.4 1.4 0 0 0 .3.3l.1.1 1.3.8-5 1.4a.8.8 0 0 0-.3.2l-.2.1a.7.7 0 0 0 0 .4 1 1 0 0 0 0 .5l.6 1.2-4.6-1.4H151a.2.2 0 0 0 0 .1v.1l.4 4.4-1-.3V137a.3.3 0 0 0-.1 0v-.1l-.1-.1-.1-.1h-.1v-.1h-.1l-4.5-.7v-.3l.3-.7v-.2a1 1 0 0 0 0-.3 1.3 1.3 0 0 0-.2-.5 1.7 1.7 0 0 0-.2-.3v-1.2a9.2 9.2 0 0 0-.6-2.6 12.2 12.2 0 0 0-1.3-2.6H143.8a.6.6 0 0 0 .2-.1v-.2h.1l.2-.9 2.2 2.6v.1a.7.7 0 0 0 .2.1.5.5 0 0 0 .3 0h.2V128.4l-1.1-4.6 1.3.6h.2a1.3 1.3 0 0 0 .3.1.8.8 0 0 0 .2 0 .6.6 0 0 0 .3-.2l1.3-2 1.5 2.6a1.3 1.3 0 0 0 .9.6h1.5l-.6 4.3v.2l.2.1a.7.7 0 0 0 .4.2h.2l2-1.6.2.8a1 1 0 0 0 0 .2h.1v.1a1.3 1.3 0 0 0 .2.2 1 1 0 0 0 .2.2 1 1 0 0 0 .2 0v.1h2.6l-.2 2.5V133.2l.1.1Z" fill="#E64547"/><path d="M145.7 134a1.2 1.2 0 0 1 0 .6v.2l-.3.7v-2a1.7 1.7 0 0 1 .2.4v.1Z" fill="#EFEFEF"/><path d="M132.8 128.4Z" fill="#142161"/><path d="m163.5 113.3 3.9 44h-.5.4l-20.7-4.5-1.2-17 4.4.7h.2a.6.6 0 0 1 .2.1v.2h.1v.1l.2 4.2.9.3-.5-4.3v-.2h.1a.2.2 0 0 1 .2-.1h.1l4.6 1.4-.6-1.2a1.5 1.5 0 0 1 0-.4 1 1 0 0 1 0-.3.7.7 0 0 1 .2-.3.9.9 0 0 1 .3-.2l5-1.4-1.3-.8a1.4 1.4 0 0 1-.3-.3 1.2 1.2 0 0 1-.2-.3V132.7l.2-2.4H156.9a.8.8 0 0 1-.3 0l-.2-.1a.9.9 0 0 1-.1-.2h-.1l-.1-.2-.1-.1v-.1h-.1l-.3-1-1.9 1.7h-.1a.4.4 0 0 1-.2 0h-.2l-.1-.2-.1-.2v-.1l.5-4.3h-1.3a.5.5 0 0 1-.2 0 1.3 1.3 0 0 1-.9-.6l-1.5-2.6-1.3 2a.5.5 0 0 1-.2.1.6.6 0 0 1-.2 0v.1h-.5v-.1l-1.4-.7 1.1 4.7v.2l-.2.1H146.6a.7.7 0 0 1-.2-.2l-2.2-2.6-.2.8v.2h-.1v.1h-.2v.1h-.2a12.6 12.6 0 0 0-2-2.4 16.9 16.9 0 0 0-7.2-4.5l-.7-14.3h.4l29 7.2.5.1Z" fill="#EFEFEF"/><path d="M123.8 112.7a7 7 0 0 1 .6-3.4c.5-1 1.2-1.7 2-2.4 1-.6 2-1 3.2-1.2 1.2-.2 2.6-.1 4 .2l.7 14.4-.2-.1h-.2l-.3-.2h-.2l-9.4-2.3-.2-5ZM163.5 113.2a15 15 0 0 1 7.2 4.6c1 1 1.8 2.2 2.4 3.4.6 1.2 1 2.5 1 3.7l2.5 24.8a8 8 0 0 1-.4 3.6c-.4 1-1 2-1.8 2.6a7 7 0 0 1-3 1.5 10 10 0 0 1-4.1 0h-.2l-.2-.1h.5l-3.9-44Z" fill="#E64547"/><path d="m103.6 122.2-.2-9.4h-.5a4.5 4.5 0 0 1 .5 0h.2l.3.1h-.5l.2 9.3Z" fill="#253BB1"/><path d="M103 112.8H102.6l-.1-.1h-.2.5Z" fill="#142161"/><path d="m102.2 119.6-7-5.4h-.3l-.1.2.1-.1.2-.1 7 5.4ZM92.2 119.6v.2-.2Z" fill="#253BB1"/><path d="M118.9 119.3v1.4l-7 2.3-2.7-.6 9.7-3ZM98.1 119.8l-4.8-3.8a5.5 5.5 0 0 1 .5-.6l.2-.2 6.8 5.2-2.7-.6ZM110.5 128.6l2.6.6 6.3 4.8v1.5l-8.9-7Z" fill="#E9454E"/><path d="m107.6 113.8.3 9.4L119 126l.1 3.5-11.3-2.6.3 9.7-4.3-1-.2-9.7-11.5-2.6v-3.6l11.4 2.6-.2-9.3h.2a3 3 0 0 1 .3 0l3.7 1Z" fill="#E9454E"/><path d="m92.3 128.4 7.3-2.3 2.6.6-10 3.1v-1.4Z" fill="#E9454E"/><path d="m103.6 122.2-11.4-2.6v-.6l.1-.3v-.3l4.1 1-3.5-2.7a5.2 5.2 0 0 1 .3-.5l.1-.2 4.9 3.8 2.6.6-6.8-5.2v-.2h.2v-.2h.2v-.1a6.2 6.2 0 0 1 .4-.3l.1-.1.2-.1 7 5.4v-7H102.4l.3.1h.2l.3.1h.2l.2 9.4ZM118.9 119.3l-9.7 3 2.6.7 7.1-2.3v1.7l-4 1.3 4.1 1v1.2l-11.1-2.7-.3-9.4 1.4.4.2 7 9.6-3v1.1ZM108.2 136.5l-.3-9.7 11.3 2.6v1.2l-4-1 4.1 3.3v1.1l-6.2-4.8-2.6-.6 9 6.9v1.8l-10-7.9.1 7.4-1.4-.3ZM92.2 124.4v-1.2l11.5 2.6.2 9.7-1.5-.3-.1-7.4-10 3.3v-1.3l10-3.1-2.7-.6-7.3 2.3v-1.7l4.2-1.4-4.3-1ZM129.9 129.3h-.1v-.2l1.2-.4-.8-1.2v-.1h.1l1.4.8.3-1.1h.2l.6 1.3 1.3-.1h.1v.1l-.7.9 1.3 1v.1l-1.5-.2.3 1.2v.1h-.2l-1-1.2-1 .7h-.2v-.1l.1-1.2-1.4-.4ZM144 137.6v.1l-1.5-.2.3 1.3v.1h-.2l-1-1.2-1 .7h-.2v-.1l.1-1.2-1.4-.5h-.1v-.1l1.3-.4-1-1.2v-.1h.2l1.4.7.3-1.1h.2l.6 1.4 1.3-.2h.1v.2l-.7.9 1.3.9ZM138 143.3h.2v.2l-.9.5.4 1h-.2l-1-.7-.8.3h-.1l-.1-.1.3-.9-1-.8v-.1h.1l1.1.2.3-.9h.2l.1.1.4 1 1 .2ZM125.8 139.2v.1l-1.5-.2.3 1.3v.1h-.2l-1-1.2-1 .7h-.2l-.1-.1.2-1.2-1.5-.5h-.1v-.1l1.3-.4-.9-1.3v-.1h.1l1.5.8.3-1.2h.2v.1l.6 1.3 1.3-.1h.2v.1l-.8 1 1.3.9ZM136.1 155.5l.1.1v.1h-.1l-1.5-.2.3 1.4h-.2l-1-1.2-1 .8h-.2v-.1l.1-1.3-1.5-.5h-.1v-.1l1.3-.4-.9-1.3v-.1h.1l1.5.7.3-1.1h.2l.6 1.4 1.3-.2h.2v.2l-.8 1 1.3.8ZM111.7 150.2h.1V150.6h-.2l-3.2-.4.6 2.8v.2h-.2a.3.3 0 0 1-.1 0h-.1v-.1l-2.3-2.5-2 1.5H104a4 4 0 0 1-.1 0h-.1v-.2l.4-2.7-3.2-.8a.3.3 0 0 1-.1-.1l-.1-.1V147.7l2.8-.8-1.8-2.6v-.2a.2.2 0 0 1 0-.1h.1a.6.6 0 0 0 .1 0h.1l3 1.7.8-2.4.1-.1H106.4l.1.1v.1l1 2.8 3-.4h.1v.1a.3.3 0 0 1 .1 0V146.4l-1.7 2 2.8 1.9Z" fill="#FBFBFB"/><path d="m115 123.7 4-1.3v2.3l-4-1ZM118.8 116.5v1.7l-9.6 3-.2-7 9.8 2.3ZM95.1 114.2a7.8 7.8 0 0 1 3.1-1.4 10.8 10.8 0 0 1 3.8-.2l.2 7-7-5.4ZM119.3 133l-4.2-3.3 4.2 1v2.2ZM96.4 119.4l-4-1a7.5 7.5 0 0 1 .5-1.7l3.5 2.7ZM109.6 136.8l-.2-7.4 10.1 7.9v1.8l-9.9-2.3ZM92.2 124.4l4.3 1-4.3 1.3v-2.3ZM92.3 132.9V131l10-3.3.1 7.4-10.1-2.3Z" fill="#253BB1"/><path d="M143.4 127.1a13.5 13.5 0 0 1 1.6 4l.2 1.2 1.7 25.9a8.8 8.8 0 0 1-.6 3.7 7 7 0 0 1-2.3 2.9 8 8 0 0 1-3.7 1.5 11.2 11.2 0 0 1-4.5-.2l-31-6.6a16 16 0 0 1-6.9-3.3 16.9 16.9 0 0 1-4.6-5.8 11.6 11.6 0 0 1-1-4.2v-13.3l11.6 2.6-.2-9.7.2 9.7 15.7 3.6-.3-6.2-4.2-3.2 4.2 3.2v-3.5l-.3-4.7v-2.3l-4 1.3 4-1.3-.2-3-4.8 1.5 4.8-1.6v-1l-9.6 3 9.6-3v-1.8l14.6 3.5h.2l.3.1h.2l.2.2a16 16 0 0 1 5.6 3 16.9 16.9 0 0 1 3.5 3.8Zm-31.8 23.5h.1l.1-.2v-.1l-.1-.1-2.8-2 1.7-1.8V146a.5.5 0 0 0-.1-.1h-.1l-3 .3-1-2.8v-.1h-.1v-.1H106l-1 2.5-2.9-1.7H101.7v.1a.3.3 0 0 0 0 .2l1.8 2.6-2.7.8h-.1V148.2l.1.1h.1l3.2 1-.5 2.5v.1l.1.1a.5.5 0 0 0 .1.1H104.3l2.1-1.5 2.2 2.5h.1l.1.1h.2v-.1s.1 0 0-.1l-.5-2.8 3.2.5m24.6 5-1.4-1 .8-.9v-.2h-.1l-1.4.2-.5-1.4h-.1v-.1h-.1l-.4 1.2-1.5-.8h-.1v.1l.9 1.3-1.3.4v.2l1.6.5-.2 1.2v.1h.2l1-.7 1 1.2H135l-.3-1.4 1.5.2h.1m-6.4-26.6v.1l1.5.5-.1 1.2v.1h.1l1-.7 1 1.2h.2l-.2-1.3 1.4.2h.1v-.1l-1.3-1 .8-.8v-.1l-.2-.1-1.3.1-.5-1.3h-.2l-.4 1-1.4-.7h-.1v.1l.8 1.2-1.2.4m14.2 8.6v-.1l-1.3-1 .7-.8a.1.1 0 0 0 0-.2h-.1l-1.3.2-.5-1.3v-.1h-.2l-.4 1.1-1.4-.8h-.1v.2l.9 1.2-1.3.3v.2l1.5.5-.1 1.2.1.1h.1l1-.7 1 1.2h.2l-.3-1.4 1.4.3h.1v-.1m-18.1 1.6v-.1l-1.4-1 .8-.8v-.2h-.1l-1.4.1-.5-1.3h-.1v-.1h-.1l-.4 1.2-1.4-.8h-.2v.1l.9 1.3-1.3.3v.2l1.6.5-.2 1.2v.1h.2l1-.7 1 1.2h.2l-.2-1.4 1.5.3v-.1m12.4 4.3v-.2h-.1l-1.1-.3-.4-1h-.1v-.1h-.1l-.4.9-1-.3h-.1v.2l.9.8-.3.8v.2h.2l.9-.3.9.7h.2l-.4-1 .9-.4" fill="#253BB1"/></g></g><defs><linearGradient id="paint0_linear_1337_11132" x1="324" y1="387.4" x2="127.9" y2="464" gradientUnits="userSpaceOnUse"><stop stop-color="#fff"/><stop offset="1" stop-color="#F0F0F0"/></linearGradient><linearGradient id="paint1_linear_1337_11132" x1="348.5" y1="22.8" x2="308" y2="49.7" gradientUnits="userSpaceOnUse"><stop stop-color="#fff"/><stop offset="1" stop-color="#F0F0F0"/></linearGradient><linearGradient id="paint2_linear_1337_11132" x1="194.1" y1="132.8" x2="82.5" y2="149.6" gradientUnits="userSpaceOnUse"><stop stop-color="#fff"/><stop offset="1" stop-color="#F0F0F0"/></linearGradient><filter id="filter0_d_1337_11132" x="3" y="287.9" width="372.1" height="380.1" filterUnits="userSpaceOnUse" color-interpolation-filters="sRGB"><feFlood flood-opacity="0" result="BackgroundImageFix"/><feColorMatrix in="SourceAlpha" values="0 0 0 0 0 0 0 0 0 0 0 0 0 0 0 0 0 0 127 0" result="hardAlpha"/><feOffset dx="-30" dy="40"/><feGaussianBlur stdDeviation="20"/><feComposite in2="hardAlpha" operator="out"/><feColorMatrix values="0 0 0 0 0 0 0 0 0 0 0 0 0 0 0 0 0 0 0.1 0"/><feBlend in2="BackgroundImageFix" result="effect1_dropShadow_1337_11132"/><feBlend in="SourceGraphic" in2="effect1_dropShadow_1337_11132" result="shape"/></filter><filter id="filter1_df_1337_11132" x="222.7" y="3.4" width="147.5" height="148.9" filterUnits="userSpaceOnUse" color-interpolation-filters="sRGB"><feFlood flood-opacity="0" result="BackgroundImageFix"/><feColorMatrix in="SourceAlpha" values="0 0 0 0 0 0 0 0 0 0 0 0 0 0 0 0 0 0 127 0" result="hardAlpha"/><feOffset dx="-30" dy="40"/><feGaussianBlur stdDeviation="20"/><feComposite in2="hardAlpha" operator="out"/><feColorMatrix values="0 0 0 0 0 0 0 0 0 0 0 0 0 0 0 0 0 0 0.1 0"/><feBlend in2="BackgroundImageFix" result="effect1_dropShadow_1337_11132"/><feBlend in="SourceGraphic" in2="effect1_dropShadow_1337_11132" result="shape"/><feGaussianBlur stdDeviation="1.5" result="effect2_foregroundBlur_1337_11132"/></filter><filter id="filter2_df_1337_11132" x=".1" y="73.8" width="205" height="208.9" filterUnits="userSpaceOnUse" color-interpolation-filters="sRGB"><feFlood flood-opacity="0" result="BackgroundImageFix"/><feColorMatrix in="SourceAlpha" values="0 0 0 0 0 0 0 0 0 0 0 0 0 0 0 0 0 0 127 0" result="hardAlpha"/><feOffset dx="-30" dy="40"/><feGaussianBlur stdDeviation="20"/><feComposite in2="hardAlpha" operator="out"/><feColorMatrix values="0 0 0 0 0 0 0 0 0 0 0 0 0 0 0 0 0 0 0.1 0"/><feBlend in2="BackgroundImageFix" result="effect1_dropShadow_1337_11132"/><feBlend in="SourceGraphic" in2="effect1_dropShadow_1337_11132" result="shape"/><feGaussianBlur stdDeviation="1" result="effect2_foregroundBlur_1337_11132"/></filter></defs></svg>