<svg xmlns="http://www.w3.org/2000/svg" width="291" height="487" viewBox="0 0 291 487" fill="none"><g filter="url(#filter0_df_1337_11133)"><path d="M67.7 25.3A9 9 0 0 1 70 27c.6.6 1.1 1.3 1.4 2 .3.8.4 1.6.3 2.3 0 .8-.4 1.5-.9 2.2l-16.5 21a7 7 0 0 1-2.3 1.9c-.9.5-2 .8-3 1a10.9 10.9 0 0 1-6.7-1.3L14 40c-1-.5-1.7-1.1-2.3-1.8-.5-.7-.9-1.5-1-2.3-.2-.8-.1-1.6.1-2.3.3-.8.8-1.6 1.4-2.2l18.5-18.3c.6-.6 1.3-1 2.1-1.4a11 11 0 0 1 8.4.3l26.6 13.2Z" fill="url(#paint0_linear_1337_11133)"/><g opacity=".8"><path d="M29.4 24.9ZM30.8 24.8l.2.4-1.2-.6a3.1 3.1 0 0 1 .6-.4l.4.6ZM31.8 23.8a5.7 5.7 0 0 1 3 .2L33 25.8l-1.2-2Z" fill="#2238A6"/><path d="m31.6 25.5-.9-1.5H31a3.9 3.9 0 0 1 .2-.1l1.1 2-.7-.4Z" fill="#DC4149"/><path d="m33 26.7 2.2-2.5H35h.2l.1.1h-.1l-2.3 2.4Z" fill="#2238A6"/><path d="m29.5 24.8.1-.1h.1l.1-.1 1.2.6-.6-1h.1l.2-.1.9 1.4.7.4-1.1-2a4.2 4.2 0 0 1 .6-.1l1.2 2 1.7-1.7a6 6 0 0 1 .5.1l-2.3 2.5-3.4-1.9Z" fill="#F1F1F1"/><path d="m40 26.7-.5.5-4.3-.2 1.7-1.9 3 1.6ZM28.3 26l1.3.7h-1.8l.5-.7Z" fill="#2238A6"/><path d="m39.3 27.5-2.7-.1-1.7-.1.8.4 3.2.1-.4.5-1.8-.1 1.3.7-.3.3-3.5-1.9 2.3-2.4.4.2-1.7 1.9 4.3.2-.2.3Z" fill="#F1F1F1"/><path d="M36.6 27.4h2.7l-.4.4-3.2-.1-.8-.4h1.7ZM27.4 27l3.1.2.8.4-4.3-.2.4-.3Z" fill="#DC4149"/><path d="M36.7 28.2h1.8l-.5.7-1.3-.7ZM26.3 28.2l.4-.5 4.4.2-1.8 2-3-1.7Z" fill="#2238A6"/><path d="m28.3 26 .3-.3 3.5 1.9-2.3 2.4-.5-.2 1.8-1.9-4.4-.2.3-.3 4.3.2-.8-.4-3.1-.1.4-.5 1.8.1-1.3-.7Z" fill="#F1F1F1"/><path d="m36 31-.7-1.3 1.3.7-.6.6Z" fill="#2238A6"/><path d="m36.5 25-2.3 2.3 3.5 1.9-.8 1-3.5-2-2.3 2.6-1.3-.8 2.3-2.4-3.5-1.9.8-.8 3.5 1.8 2.3-2.5v.1h.1l1.2.6Z" fill="#DC4149"/><path d="m31 30.8 2.4-2.5 3.5 1.8-.3.3-1.3-.7.7 1.3-.2.3-1.1-1.9-.8-.4 1.5 2.7-.4.5-1.7-3.1-1.8 1.9-.4-.2ZM36.6 38.8l-.5-.2-.3.4-.2-.5-.5.1.3-.3-.4-.3v-.1h.6v-.4l.4.4.4-.3v.5h.5v.1l-.5.2.2.4Z" fill="#F1F1F1"/><path d="m33.9 29 .8.4 1 2-.3.3L34 29Z" fill="#DC4149"/><path d="m31.5 31 1.8-2 1.7 3.2-.4.4-3.1-1.6Z" fill="#2238A6"/><path d="M29 34.6v.1h-.1l-1-.5-.6.8a.1.1 0 0 1-.1 0L27 34l-1.2.2v-.1l.7-.7-.9-.5v-.1h1.2v-.8l.1-.1h.1l.7.8.9-.5h.1l-.3.9 1.1.2v.1l-1 .3.4.8Z" fill="#F1F1F1"/><path d="M46.7 31.8a2.4 2.4 0 0 1-.6 2l-6 7a3.5 3.5 0 0 1-1.3.9 4.7 4.7 0 0 1-1.6.5 5.7 5.7 0 0 1-3.4-.7l-9.6-5.3a4.5 4.5 0 0 1-1.2-1 3.3 3.3 0 0 1-.6-1.2 2.5 2.5 0 0 1 .3-2l.4-.5 3.2-3.3 3.5 1.8 2.3-2.4-2.3 2.4 4.8 2.6L36 31l-.7-1.3.7 1.3.6-.6.3-.3 1-1.2.6-.6-1.8-.1h1.8l.8-.7.2-.3-4.3-.2 4.3.2.4-.5 4.7 2.5a4.9 4.9 0 0 1 1.3 1 3.5 3.5 0 0 1 .7 1.2v.2a2 2 0 0 1 0 .2Zm-17.9 3a.1.1 0 0 0 .1-.1l-.5-.9 1.1-.3v-.1l-1.1-.2.3-.8v-.1h-.1l-1 .5-.6-.8h-.1v1l-1.2-.2h-.1v.1l1 .6-.9.6v.1H27l.1.8a.1.1 0 0 0 .2 0l.5-.8 1 .5m7.8 4.1-.2-.4.5-.1v-.1l-.6-.1.2-.4v-.1h-.1l-.4.3-.4-.4v.5l-.6-.1.4.4-.4.3h.6l.1.4h.1l.3-.4.5.2m4.3-7.6.5.3-.4.3h.6v.4h.1l.3-.3.5.2-.2-.4.5-.2-.6-.2.2-.4h-.1l-.4.3-.3-.4h-.1v.4h-.6Zm3.3 3.8-.2-.4.5-.1v-.1l-.6-.1.1-.4-.4.2-.4-.4v.5h-.6l.4.3-.3.3h.5l.2.4.3-.4.5.2M37 33.4l-.3-.4.5-.2-.5-.1.1-.4-.5.2-.3-.4v.4h-.6l.4.3-.4.3h.6l.1.4h.1l.2-.3.5.2m3.6 2.5-.3-.3.1-.3-.4.2-.4-.2.1.3-.3.2v.1h.5l.1.3h.1l.1-.3h.4" fill="#2238A6"/><path d="M41 31.2h-.1.6v-.4l.4.4.4-.3v.4l.5.1v.1l-.5.2.3.3h-.1L42 32l-.2.3h-.1l-.1-.4H41l.4-.3-.5-.3ZM36.9 33.4l-.6-.2-.2.4-.2-.5h-.5l.3-.3-.5-.2v-.1h.6v-.4h.1l.3.4.5-.3-.1.5h.5v.1l-.5.2.3.4ZM44.2 35l-.5-.2-.3.4-.2-.4h-.5l.3-.3-.4-.3h.6v-.4l.4.3.4-.2v.4l.5.1-.5.2.2.4ZM40.5 35.8v.1H40v.3h-.1l-.2-.3h-.5l.3-.3-.1-.3.4.2.3-.2h.1v.3l.3.2Z" fill="#F1F1F1"/><path d="M51.7 31.7a.4.4 0 0 1 .1.1.3.3 0 0 1 0 .1.2.2 0 0 1 0 .2l-1.4 1.7 2.4 1.2.1.1a.3.3 0 0 1 0 .1.2.2 0 0 1 0 .1.3.3 0 0 1 0 .1L51.7 37l-.2.1a.5.5 0 0 1-.3 0L49 35.6l-1.5 1.7h-.2a.5.5 0 0 1-.3 0l-2-1-.1-.1v-.1l-.1-.2 1.5-1.7-.4-.2.3-.3a2.7 2.7 0 0 0 .5-1 2.5 2.5 0 0 0 0-1l1.2.6 1.4-1.6a.3.3 0 0 1 0-.1.4.4 0 0 1 .2 0 .5.5 0 0 1 .3 0l2 1Z" fill="#EEE"/><path d="M58.1 30.6a5.1 5.1 0 0 1 1.3.9 3.8 3.8 0 0 1 .8 1.2 2.7 2.7 0 0 1 .1 1.3 2.4 2.4 0 0 1-.5 1.1l-5.7 7a3.3 3.3 0 0 1-1.1 1 4.5 4.5 0 0 1-1.6.5 5.6 5.6 0 0 1-3.4-.7l-6.7-3.6 4.5-5.2.4.2-1.4 1.6-.1.1v.2l.2.2 2 1a.5.5 0 0 0 .3 0h.2l1.5-1.7 2.3 1.2a.5.5 0 0 0 .3 0h.2l1.2-1.5a.3.3 0 0 0 0-.1.4.4 0 0 0 0-.1V35h-.1l-2.4-1.3 1.4-1.7V32a.2.2 0 0 0 0-.1.4.4 0 0 0-.1-.2l-2-1a.5.5 0 0 0-.3 0 .4.4 0 0 0-.2 0l-1.4 1.7-1.1-.6a2.7 2.7 0 0 0-.4-1.1 3.5 3.5 0 0 0-1-1l-.7-.5-3-1.6 1.2-1.3.5-.5a3.9 3.9 0 0 1 1.3-.6 5.1 5.1 0 0 1 1.6-.2 6 6 0 0 1 2.4.7l9.5 4.9Z" fill="#D84143"/></g><path d="m53 58.4.2-.2a13 13 0 0 0 .1-.1l.2-.2.1-.1.1-.1.1-.1v-.1h.1v-.1l16.4-21a3.7 3.7 0 0 0 0-.1h.1v-.1a5.7 5.7 0 0 0 .2-.2v-.2h.1v-.1l.1-.1v-.2h.1V35h.1V34.8h.1v-.2l.6-3v.5l-.2.3v.2l-.2.2v.2h-.1a4.4 4.4 0 0 1-.3.5l-16.5 21v.1h-.1v.2h-.1l-.1.1-.2.2a3.9 3.9 0 0 1-.1 0v.1l-.1.1h-.1v.2a2.7 2.7 0 0 1-.2 0l-.1.1a70.3 70.3 0 0 1-.3.2 5 5 0 0 1-.2.2h-.1l-.2.2a10 10 0 0 1-.4.2h-.2v.1h-.2v.1h-.2l-.1.1h-.1l-.1.1H51l-.1.1h-.1a4.5 4.5 0 0 1-.2.1H50.3l-.2.1h-.2l-.1.1a8.7 8.7 0 0 1-.3 0h-.2l-.2.1h-.4l-.4.1H46.5a10.5 10.5 0 0 1-.9-.2H45V57h-.2l-.2-.1h-.2l-.2-.1a11 11 0 0 1-.5-.2h-.2l-.1-.1h-.1l-.1-.1-.2-.1-.3-.1a7.8 7.8 0 0 1-.4-.2L14 40a7.6 7.6 0 0 1-.3 0V40h-.1l-.2-.2a4.3 4.3 0 0 1-.2-.1l-.1-.1h-.1v-.1h-.2v-.2h-.1a5.6 5.6 0 0 1-.3-.2l-.1-.2-.1-.1-.2-.2-.1-.1-.1-.2-.2-.1V38h-.1v-.1h-.1v-.2a2.8 2.8 0 0 1-.2-.1v-.2l-.1-.2-.1-.2V37h-.1V36.5l-.2-.3V36a4.4 4.4 0 0 1-.1-.6l.1 3v.2a4.3 4.3 0 0 0 .2.6v.4h.1v.2l.1.2a3.8 3.8 0 0 0 .1.2v.1h.1a12.5 12.5 0 0 0 0 .2l.1.1v.1h.1v.2h.1v.1h.1v.1l.1.1.2.2v.1h.1l.1.2.2.1v.1h.1v.1l.1.1h.1l.1.1v.1h.2v.1l.1.1.2.1.2.1v.1h.2v.1l.1.1h.1l.2.1L42.2 59h.1l.2.1.2.1.2.1.2.1h.1l.1.1h.2l.2.2h.4v.1H44.4l.1.1h.4v.1h.4v.1h.1a417.4 417.4 0 0 1 .3 0h.1l.2.1H48.3a7.8 7.8 0 0 0 .4 0h.5V60h.2l.3-.1a13 13 0 0 0 .2 0l.2-.1h.2v-.1h.2l.2-.1h.2v-.1h.2l.1-.1h.1l.1-.1h.1l.1-.1.2-.1.2-.1.2-.1.2-.2h.1l.1-.1h.1a1 1 0 0 0 0-.1l.2-.1Z" fill="#B2B2B2"/></g><g filter="url(#filter1_df_1337_11133)"><path d="M196.6 53c1.6-.7 3.2-1 4.8-1 1.5 0 3 .2 4.2.7a7.4 7.4 0 0 1 4.7 5.9l6.7 45c.2 1.6 0 3.3-.4 5a16 16 0 0 1-2.4 4.9 18.4 18.4 0 0 1-9.1 6.7L152.7 137c-1.7.5-3.3.7-4.8.6a8.8 8.8 0 0 1-4-1.4 8 8 0 0 1-2.7-3c-.7-1.2-1-2.7-1-4.3L139 84.8c0-1.5.2-3 .7-4.3a18.4 18.4 0 0 1 10-10L196.7 53Z" fill="url(#paint1_linear_1337_11133)"/><path d="M220 110V107.8a2.3 2.3 0 0 0 0-.2v-.2L213 62.7a12.9 12.9 0 0 0 0-.2v-.2l-.1-.1v-.3l-.1-.2v-.2h-.1v-.2l-.1-.2v-.2l-.2-.1v-.2l-.1-.2v-.1h-.1V60l-.2-.1v-.1a4.5 4.5 0 0 0-.2-.3l-2.9-4.2.2.3.3.4.1.4.2.3.1.4.2.5a6.9 6.9 0 0 1 .1.9l6.8 44.9v2.1a6.8 6.8 0 0 1 0 .5V106.9a3.7 3.7 0 0 1-.1.3v.3l-.1.3v.1a21.5 21.5 0 0 1-.2.7v.2l-.1.1v.2l-.1.2v.1l-.1.2v.1l-.2.2V110.2l-.1.2-.1.2v.1l-.2.2a9 9 0 0 1-.1.3v.1a49.5 49.5 0 0 1-.4.6l-.2.4v.1l-.2.2-.1.2-.1.1-.1.2-.2.3a21.2 21.2 0 0 1-1 1.1c0 .3-.2.4-.4.6a18 18 0 0 1-1 1 18.1 18.1 0 0 1-1 1h-.1l-.5.4-.3.2-.3.2-.3.2a24.5 24.5 0 0 1-.4.3l-.2.1a20.2 20.2 0 0 1-.4.2l-.3.2-.3.1-.3.2a18.3 18.3 0 0 1-.6.3h-.2l-.2.1v.1h-.3l-.1.1-.3.2h-.4l-.3.2-52.4 16.8h-.3l-.3.2H151.5a6 6 0 0 1-.3.2H150.5l-.2.1H147l-.1-.1h-.2a2.7 2.7 0 0 1-.3-.1h-.3v-.1h-.3v-.1l-.3-.1-.3-.1-.2-.1h-.1l-.2-.1a7.4 7.4 0 0 1-1.3-.8 6013.9 6013.9 0 0 0 4.2 3.6 8.4 8.4 0 0 0 1 .5 3 3 0 0 0 .1 0l.2.2h.1a7.2 7.2 0 0 0 .5.2h.1l.2.1H150.1l.1.1H150.5l.1.1h.4a6.8 6.8 0 0 1 .3.1H152l.3.1h1a6.4 6.4 0 0 0 .3 0h.7l.1-.1H154.7l.2-.1h.4l.1-.1h.3l.1-.1h.2l.1-.1h.4l51.8-16.5a3.8 3.8 0 0 0 .1 0h.1l.1-.1.3-.1.4-.1.3-.2H209.9v-.1h.1l.1-.1h.2v-.1l.3-.1.3-.2h.2l.1-.1.1-.1a7.3 7.3 0 0 0 .3-.1l.2-.2h.1l.1-.1h.1l.1-.1.2-.2h.1l.2-.1.1-.1.3-.2.2-.1v-.1h.1l.2-.2.2-.2h.1l.1-.1.2-.2.2-.2.2-.1.2-.2.1-.1.1-.1.1-.1.2-.2.2-.2.2-.2.1-.2h.2v-.1l.2-.2.2-.2v-.1l.2-.2.1-.2.2-.2a11.2 11.2 0 0 0 .4-.5v-.1l.2-.2v-.1l.1-.1.1-.2.1-.1a10.6 10.6 0 0 0 .2-.3l.2-.4.2-.3v-.1l.2-.2v-.2l.1-.1v-.2l.2-.2v-.3l.1-.1.1-.2v-.1l.1-.2v-.1l.2-.2V113l.1-.2v-.2l.1-.1v-.3a10.4 10.4 0 0 0 .2-.4 10.4 10.4 0 0 0 0-.4l.1-.3v-.4l.1-.2v-.5Z" fill="#B2B2B2"/><g opacity=".9"><path d="m169.2 77.9.1-.1ZM169.2 77.9Z" fill="#2238A6"/><path d="M173.6 74.2h-.1.1Z" fill="#142161"/><path d="M167.9 82.2ZM168.1 80.2l1 .2 1 .2-2.2.9a6.6 6.6 0 0 1 0-.7l.1-.3.1-.3Z" fill="#2238A6"/><path d="m174.4 79.9-6.5 2.3a5.5 5.5 0 0 1 0-.4V81.5l2.3-.9-2-.4V79.9l.1-.2 2.9.6 1.5-.6-4-.8V78.6l.1-.1.1-.1.1-.2.1-.2.1-.1 4.2.9-.4-4.3h.1a3.7 3.7 0 0 0 .1-.1l.2-.1h.2a15.2 15.2 0 0 1 .2-.2l.6 5.8Z" fill="#D3D3D3"/><path d="M169.1 78v.2h-.1v.1-.2h.1Z" fill="#142161"/><path d="M173.8 74.1ZM173.8 74.1h.2a3.2 3.2 0 0 0-.1 0ZM169.2 80.4l-1-.2 1 .2ZM167.9 82.2v.1a19 19 0 0 1 0 .2v-.2ZM169.6 77.4a10 10 0 0 1 3.4-3l.4 4.4-4.2-1h.1v-.1h.1v-.2h.1v-.1Z" fill="#2238A6"/><path d="m171.2 80.3-3-.6.2-.2v-.2l.1-.2.1-.2 4 .8-1.4.6Z" fill="#DC4149"/><path d="m182.8 70.8.2 1-5.5 5.5-.4-4.4 5.7-2.1ZM168.1 85.7v-.5l2.4-.9-.8.8-1.6.6Z" fill="#2238A6"/><path d="m179.7 75.8 3.3-3.3.1.9-4 4-1.5.5 2.1-2ZM171.5 84.4l.8-.7 1.5-.6-.8.8-1.5.5Z" fill="#DC4149"/><path d="M168 85.2v-.8l6.6-2.3.1 1.3a6.8 6.8 0 0 0-.7.1l-.2.1-.8.3.8-.8-1.5.6-.8.8-1.8.6.8-.8-2.4.9Z" fill="#D3D3D3"/><path d="m181 76.7 2.3-2.3.1 1.4-2.4 1Z" fill="#2238A6"/><path d="m183 72.5-3.3 3.3-2.1 2.1 1.5-.5 4-4 .2 1-2.3 2.3 2.4-.9v.8L177 79l-.6-5.8.8-.3.4 4.4 5.5-5.5v.7Z" fill="#D3D3D3"/><path d="M166.9 92.6v.1l-.6.7.3.7a.1.1 0 0 1 0 .1h-.1l-.8-.2-.6.7h-.2l.2-.9-.7-.2v-.1l.9-.4.2-.8v-.1h.1l.4.7.8-.3Z" fill="#DCC24E"/><path d="m177.3 83.2-.2-2 6.6-2.4.1.7-2.4.9 2.6.5v.7l-3.8-.8-1.6.6 5.6 1.1.1 1.1-6.3-1.3.2 1.1h-.3l-.2-.1a8 8 0 0 0-.4 0Z" fill="#D3D3D3"/><path d="M160.5 106.7v.2l-.6.7.3.7v.1h-.1l-.8-.2-.6.7h-.2l.2-.9-.7-.2v-.2l.9-.3.2-.9h.2l.3.6.9-.3ZM163.8 108.7v.1l-.6.7.3.7a.2.2 0 0 1 0 .2h-.1l-.8-.2-.6.7h-.2v-.1l.2-.9-.7-.2v-.2l.9-.3.2-.9a.1.1 0 0 1 .1 0h.1l.3.6.9-.2ZM175.5 101.6v.2l-.7.7.3.7v.1h-.1l-.8-.1-.6.7h-.2v-.1l.2-.9-.7-.2h-.1v-.2h.1l.9-.3.2-.9h.1l.4.6.9-.3ZM168.1 108.5v.2l-.6.7.3.7v.1a.2.2 0 0 1-.1 0l-.8-.2-.7.7s0 .1 0 0h-.1l.2-.9-.8-.2v-.2l1-.3.2-.9v-.1h.1l.4.7.8-.3h.1ZM172.4 105.7h.1v.1l-.6.8.3.7v.1a.2.2 0 0 1-.1 0l-.8-.2-.7.7h-.1l.1-.9-.7-.2v-.1a.2.2 0 0 1 0-.1l1-.3.1-.9h.1v-.1h.1l.4.7.8-.3Z" fill="#DCC24E"/><path d="M181 86a5.1 5.1 0 0 1 .4 1.4l1.8 16.8a6.7 6.7 0 0 1-.3 2.8 9 9 0 0 1-1.4 2.7 10.3 10.3 0 0 1-5 3.8l-18.4 6a7.7 7.7 0 0 1-2.7.4 5.5 5.5 0 0 1-2.3-.7 4.5 4.5 0 0 1-1.6-1.7 5.1 5.1 0 0 1-.7-2.4l-.7-16.7a6.4 6.4 0 0 1 .4-2.5 9 9 0 0 1 1.3-2.6 10.5 10.5 0 0 1 4.6-3.4l17.4-6.3h.2a6.7 6.7 0 0 1 1.4-.4 7.3 7.3 0 0 1 2.3 0 6 6 0 0 1 .6.3h.2a4.2 4.2 0 0 1 1 .6A4.4 4.4 0 0 1 181 86Zm-23.8 19.5.6-.7.7.2h.1v-.1l-.2-.7.6-.7v-.1l-.9.2-.3-.6h-.1l-.3.9-.8.3h-.1v.1l.7.3-.2.9h.1m3.4 1.4v-.1l-.9.2-.3-.6h-.2l-.2.9-.8.3h-.1v.1l.7.3-.2.9h.1l.7-.7.7.3h.1v-.1h.1v-.1l-.3-.7.6-.7m2.4-12-.9.2-.3-.6h-.2l-.2.9-.8.3a.1.1 0 0 0-.1 0v.2l.7.2-.2.8v.1h.1l.7-.7.7.2h.1v-.1l-.2-.7.6-.7m-5.4 4.7v.1l.7.3-.2.8h.2l.6-.7.7.3h.1v-.1h.1v-.1l-.3-.7.6-.7v-.1l-.9.3-.3-.7h-.1v.1l-.3.8-.8.3-.1.1m13.8-7.6v-.2l-.9.3-.3-.7h-.2v.1l-.2.8-.8.3h-.1v.2l.7.3-.2.8h.2l.6-.6.8.2.1-.1v-.1l-.3-.7.6-.6m4.8 5.5v-.1l-1 .2-.2-.6h-.1a.1.1 0 0 0-.1 0l-.3.9-.8.3h-.1v.2l.8.2-.2.9h.1l.7-.7.8.3.1-.1V99l-.3-.7.6-.7m-4-3v.1l.8.2-.2.9h.1l.7-.7.7.2h.2v-.1l-.3-.7.6-.7v-.1l-.9.2-.3-.6h-.1a.2.2 0 0 0-.1 0l-.2.9-.9.3v.1m.3 11.3v-.1l-1 .2-.3-.7h-.1v.1l-.3.9-.8.3h-.1v.1l.7.3-.1.9h.1l.7-.7.7.3h.1l.1-.1v-.1l-.3-.7.6-.7m3-4.2h-.1l-.9.2-.3-.6h-.2l-.2.9-.9.3-.1.1v.1l.8.2-.2.9v.1h.1l.7-.8.8.3h.1v-.2l-.3-.7.7-.7m-11.6 7v-.1h-.1l-.9.2-.3-.6h-.2l-.2.9-.9.3v.2l.7.2-.2.9v.1h.1l.7-.7.7.2h.2v-.1l-.3-.8.7-.7m4.3-.2h-.1l-.9.2-.3-.7h-.2v.1l-.3.9-.8.3h-.1v.1l.8.3-.2.9h.1l.7-.7.7.3h.1a.2.2 0 0 0 .1-.2l-.3-.7.6-.7m-1.2-16v-.1l-.9.3-.3-.7h-.2v.1l-.2.8-.9.3v.2l.7.2-.2.8v.1h.1l.7-.7.7.2h.1V94l-.2-.7.6-.7Z" fill="#093E9D"/><path d="M162.9 94.9v.1l-.6.7.3.6v.1a.2.2 0 0 1-.1.1l-.8-.2-.6.7h-.2l.2-.9-.7-.2v-.2l.9-.3.2-.8v-.1a.2.2 0 0 1 .1 0h.1l.3.6.8-.2h.1Z" fill="#DCC24E"/><path d="m176.3 73.2.6 5.8 6.6-2.4.2 2.2-6.6 2.4.2 2a6 6 0 0 0-2 0l-.6.2-.1-1.3-6.6 2.3-.1-2v-.1l6.5-2.4-.6-5.8h.1a3.2 3.2 0 0 0 .2 0l2.2-1Z" fill="#DC4149"/><path d="M157.5 99.8v-.1l1-.4.1-.8.1-.1h.1l.3.7.9-.3v.1l-.6.7.3.7v.1h-.1l-.8-.2-.6.7h-.1l.1-.8-.7-.3Z" fill="#DCC24E"/><path d="m184 81-2.6-.6 2.4-.9.2 1.4Z" fill="#2238A6"/><path d="M190 74.8v-.1l.8-.7-.6-.5v-.1h1v-.9h.2l.4.6.8-.6h.1v.1l-.4.8.8.1v.1l-.9.5.2.7-.8-.3-.5.8h-.1v-.8l-1 .3Z" fill="#D3D3D3"/><path d="M171.3 91.9v.2l-.6.6.3.7a.3.3 0 0 1 0 .1h-.1l-.8-.1-.6.6h-.1l.1-.8-.7-.3v-.1l.9-.4.2-.8h.2l.3.6.9-.3Z" fill="#DCC24E"/><path d="m178.6 81.4 1.6-.6 3.9.8v1l-5.5-1.2Z" fill="#DC4149"/><path d="m158.5 105-.7-.2-.6.7h-.2l.2-.9-.7-.2v-.2l.9-.3.2-.9h.2l.3.6.9-.3v.2l-.6.7.3.7v.1h-.1Z" fill="#DCC24E"/><path d="m184.3 83.6.1 1.1L181 86a4.6 4.6 0 0 0-1.5-1.9 4.6 4.6 0 0 0-1.3-.7l-.2-1.1 6.3 1.3Z" fill="#2238A6"/><path d="M188.1 82.6v.1l-.9.4.3.7v.1h-.1l-.7-.3-.6.8h-.1v-.9l-.9.3v-.1l.7-.7-.6-.5v-.1h1l.1-.9h.1l.4.6.8-.6h.1v.1l-.4.8.8.2Z" fill="#D3D3D3"/><path d="M172.2 94.7v-.2l.9-.3.2-.8v-.1h.1l.4.6.8-.2h.1v.1l-.6.7.3.7a.1.1 0 0 1 0 .1h-.1l-.8-.2-.6.7h-.2l.2-.9-.7-.2Z" fill="#DCC24E"/><path d="M199.2 74.8v.1l-1 .4.3.8h-.1l-.8-.3-.5.8h-.1v-.8l-1 .3V76l.8-.7-.7-.5v-.1h1.1v-.9h.2l.4.6.8-.6h.1l-.4 1h.8Z" fill="#D3D3D3"/><path d="M176 97.4h.1v.2l-.6.7.3.7v.1h-.1l-.8-.2-.6.7h-.2l.2-.9-.8-.2v-.2l1-.3.1-.8V97h.2l.4.6.8-.3Z" fill="#DCC24E"/><path d="m195.8 80.8-.4.6.2.5v.1h-.7l-.5.5h-.1v-.7l-.5-.2v-.1l.7-.3.1-.6v-.1h.2l.3.5.7-.2ZM195.2 89.4v.1l-1 .4.3.8-.8-.3-.6.8h-.1v-.9l-.9.3v-.1l.7-.7-.6-.5v-.1h1l.1-1h.1l.5.7.8-.6h.1l-.4 1h.8Z" fill="#D3D3D3"/><path d="M197 67.4a4.7 4.7 0 0 1 1.8 1.4 4.4 4.4 0 0 1 .8 2.1l2.5 16.3a6.2 6.2 0 0 1-.2 2.7 8.2 8.2 0 0 1-1.3 2.7 10.2 10.2 0 0 1-5 3.7l-12.8 4.4-1.4-13.3a4.6 4.6 0 0 0-.4-1.4l3.4-1.3-.1-1-.1-1.2-.2-1.6-2.6-.5 2.6.5-.2-1.4v-.7l-.4-3-.1-1.4-2.3 2.3 2.2-2.3-.2-1.9-3.3 3.3 3.3-3.3v-.7l-5.5 5.5 5.5-5.5-.2-1 9-3.3a9 9 0 0 1 2.7-.5 6.5 6.5 0 0 1 2.4.4Zm-1.7 22-1-.2.5-.8v-.1h-.1l-.8.6-.4-.7h-.1l-.2 1h-1l.6.6-.8.7h.1l1-.2-.1.9h.1l.6-.8.7.4h.1v-.1l-.2-.8 1-.4M190 74.6l1-.2v.8l.6-.8.7.4a.1.1 0 0 0 .1-.1l-.2-.7.9-.4v-.1l-.8-.2.4-.8h-.1l-.8.5-.4-.6h-.1l-.2.9h-.9v.1l.6.5-.8.6m9.2.3-1-.2.5-.8v-.1l-.9.6-.4-.7h-.1v.1l-.2.8h-.9v.2l.6.5-.8.6v.1l1-.2v.8h.1l.5-.8.7.4h.1V76l-.2-.8 1-.3v-.1m-11 7.8v-.1l-.9-.2.4-.8-.9.5-.3-.6h-.1l-.2.9h-1v.1l.6.5-.7.7 1-.2-.1.9h.1l.6-.8.6.3h.1l-.2-.8 1-.4m7.7-1.8v-.1h-.1l-.7.2-.3-.5h-.1l-.2.7-.7.3v.1l.6.2-.1.6v.1h.1l.5-.6.6.2h.1V82l-.2-.6.5-.5" fill="#2238A6"/></g></g><g filter="url(#filter2_d_1337_11133)"><path d="M214 335.8v-1.2l-.5-5.6V333.9l-.1.2v.7l-.1.2-.2.9v.1l-.2.8v.2l-.3.8v.1a25.7 25.7 0 0 1-1 2.7v.3a25.7 25.7 0 0 1-.4.8l-.4.7v.1l-.5.9-.1.2-.3.6-.2.2-.4.7h-.1v.2a26 26 0 0 1-1.5 2l-.3.2-.8 1a25.1 25.1 0 0 1-1.4 1.3l-.1.1-.7.7-.2.1-.6.5-.2.1-.7.6-.2.1a25.5 25.5 0 0 1-1.6 1.1h-.1l-.5.4-.5.2-.5.4-.4.2c-.3 0-.5.2-.7.3l-.4.2-1 .4-104.4 44.2a29.4 29.4 0 0 1-19.2 1.2A26 26 0 0 1 59 389.9l3 4.8A24 24 0 0 0 76 405.1a27.3 27.3 0 0 0 18.8-1.2l102.8-43.4 1-.5.4-.1.6-.3.4-.3.6-.3.4-.2.5-.3.1-.1a29.9 29.9 0 0 0 1-.6l.2-.2.5-.3.7-.5.1-.1.2-.2.6-.5h.1v-.1a7.1 7.1 0 0 0 .8-.6v-.2c.2 0 .3-.2.5-.3v-.1l.9-.8v-.1l.9-1 .2-.2.6-.7.1-.2v-.1l.7-.9v-.1h.1v-.1l.5-.7.1-.2.2-.3.2-.3.1-.2.4-.8.1-.1a18.4 18.4 0 0 0 .5-1v-.2l.2-.4.1-.2.4-.8v-.1a22.8 22.8 0 0 0 .8-2.5v-.4l.2-.7v-.2l.2-.9v-.5l.1-.4v-.2l.1-.8V337.8l.1-.3v-1.7Z" fill="#B2B2B2"/><path d="M133.8 221a29.8 29.8 0 0 1 19.8-1c3 .9 6 2.4 8.3 4.4 2.5 2 4.5 4.4 5.9 7.3l43.3 89a23.9 23.9 0 0 1 .6 19.8c-1.3 3.1-3.2 6-5.7 8.6a28.7 28.7 0 0 1-9.2 6.1L92.4 399.3a29.3 29.3 0 0 1-21.3.6 24.1 24.1 0 0 1-14.3-14.1l-35.6-92.9c-1.2-3-1.6-6.2-1.4-9.3.2-3 1.1-6.1 2.6-9A29.6 29.6 0 0 1 37 261.2l96.8-40.3Z" fill="url(#paint2_linear_1337_11133)"/><path d="M119.3 285.6a13.7 13.7 0 0 1 4.7 4.2c.5.7.8 1.3 1.1 2l14.6 32.5a13.8 13.8 0 0 1 .2 10.7 14.5 14.5 0 0 1-7.5 8l-.1.1h-.2l-.1.1.6-.2-25.3-58.2a14.8 14.8 0 0 1 12 .8Z" fill="#DD4245"/><path d="M127.8 271.7h.2a1.7 1.7 0 0 1 .5 0 1.2 1.2 0 0 1 1 .6l3.4 7.5 8.4-3.6h.5a1.8 1.8 0 0 1 .4 0h.1a1.7 1.7 0 0 1 .2 0 1 1 0 0 1 .3.3 1 1 0 0 1 .2.3l3 6.5.2.5-.1.4-.3.4-.4.3-8.5 3.6 3.5 7.7v1l-.3.4-.4.3-7.4 3c-.1.2-.3.2-.5.2a1.3 1.3 0 0 1-1-.3l-.2-.4-3.5-7.7-1.3.5-.7-1.4a13.2 13.2 0 0 0-5.8-6.2l4-1.7-3.4-7.5a1 1 0 0 1-.1-.7 1.1 1.1 0 0 1 .2-.4 1.4 1.4 0 0 1 .3-.4h.3l7.2-3.1Z" fill="#F3F3F3"/><path d="M62.6 318.4a13.1 13.1 0 0 1 .2-10.2 14.7 14.7 0 0 1 7.3-7.6l23.6 59a14.6 14.6 0 0 1-10.8-.2 13.7 13.7 0 0 1-7.4-7.7l-13-33.3ZM111.7 316.5a1.2 1.2 0 0 0 .4.1 1.3 1.3 0 0 0 .3.1h1.8l-5 6.2a2 2 0 0 0-.3.6 1.6 1.6 0 0 0 0 .8 1.6 1.6 0 0 0 .1.5l.2.2 1.2 1.2-5.8 2a.7.7 0 0 0-.1 0h-.1l-.1.1v.1l-.1.1V328.9l2.5 5.5-1 .5-2.2-5.6v-.1h-.1v-.1h-.1a.6.6 0 0 0-.3-.2h-.2l-5.5 3V330a1.6 1.6 0 0 0-.1-.5 1.4 1.4 0 0 0-.3-.5 1.6 1.6 0 0 0-1-.5l-8-.7 1.3-1.3a1.4 1.4 0 0 0 .2-.3 1 1 0 0 0 0-.3 1 1 0 0 0 0-.4 1 1 0 0 0 0-.3l-2-3.1 3.1-.5h.1a.7.7 0 0 0 .2 0h.1v-.1h.2v-.2h.2v-.1a1 1 0 0 0 .2-.2v-.4a.8.8 0 0 0 .1-.2l-.2-1.3 3.7 1.7h.1a.5.5 0 0 0 .3 0 .6.6 0 0 0 .3-.1l.1-.2v-.5l-3.5-5.4 1.8-.3h.2l.1-.1a1.6 1.6 0 0 0 .3-.2h.1a1.3 1.3 0 0 0 .3-.6v-.1l.6-3.8 3 2.3a1.1 1.1 0 0 0 .5.2 1.3 1.3 0 0 0 .7-.1h.1v-.1h.1l1.5-1.2 1.4 6.3.1.2.2.2a.6.6 0 0 0 .7-.2l.1-.2 1.4-3.8.7 1h.1l.2.2a2 2 0 0 0 .2 0 1 1 0 0 0 .2.1 1.4 1.4 0 0 0 .3 0h.5v-.1h.1l.1-.1 2.4-2 1 3.6a1.2 1.2 0 0 0 .1.3l.1.2h.1ZM134.8 251.6a16.5 16.5 0 0 1 11-.6 14.4 14.4 0 0 1 4.7 2.5 12.7 12.7 0 0 1 3.2 4.1l15 31.1a12.7 12.7 0 0 1-1.1 13.1 14.7 14.7 0 0 1-6.7 5.4l-24.3 10.4-10.8-24.4 1.3-.6 3.5 7.8.3.4.4.2a1.4 1.4 0 0 0 1 0l7.4-3.1a1.4 1.4 0 0 0 .7-.7l.1-.5-.1-.5-3.5-7.7 8.5-3.6a1.4 1.4 0 0 0 .7-.7 1.1 1.1 0 0 0 0-1l-3-6.4a1.3 1.3 0 0 0-.2-.2v-.1a1 1 0 0 0-.2-.2 1 1 0 0 0-.3 0 2.3 2.3 0 0 0-.2-.2h-.1a1 1 0 0 0-.3 0 1.4 1.4 0 0 0-.5.1l-8.4 3.6-3.4-7.5a1.1 1.1 0 0 0-.7-.6 1.5 1.5 0 0 0-.5 0 1.6 1.6 0 0 0-.5 0l-7.2 3.1a1.5 1.5 0 0 0-.4.3 1.2 1.2 0 0 0-.4 1v.3l3.4 7.5-3.9 1.7a14 14 0 0 0-8.9-1.6c-1 .2-2 .4-3.1.8l-.6.3-11.8 5-2.7-6.4a11.8 11.8 0 0 1-.5-7.6 13.4 13.4 0 0 1 2.3-4.9 15 15 0 0 1 6.5-5.1l34.3-14.5Z" fill="#DD4245"/><path d="m107.3 284.8 25.3 58.2-.6.2h.1a9.4 9.4 0 0 0 .3-.2h.2l-38.9 16.6-23.6-59 .6-.2 36.6-15.6Zm1.9 38.1 5-6.1-1.8-.1a1.2 1.2 0 0 1-.8-.3 1.2 1.2 0 0 1-.2-.3v-.2l-1-3.5-2.4 1.9h-.1l-.1.1h-.1l-.1.1H107.3a1.2 1.2 0 0 1-.6 0l-.1-.1a2 2 0 0 1-.2-.2l-.8-1-1.4 3.8a.6.6 0 0 1-.2.3h-.1l-.3.1h-.2l-.2-.2-.1-.2-1.4-6.3-1.5 1.1-.1.1h-.1a1.2 1.2 0 0 1-.7.2 1.2 1.2 0 0 1-.5-.2l-3-2.3-.5 3.8a1 1 0 0 1-.2.3 1.4 1.4 0 0 1-.3.4 1.2 1.2 0 0 1-.4.2h-.1l-2 .4L96 320v.4l-.1.2a.7.7 0 0 1-.3.2h-.1a.6.6 0 0 1-.3 0l-3.7-1.7.2 1.2v.1a1.1 1.1 0 0 1 0 .2v.1a1.1 1.1 0 0 1-.2.4 1 1 0 0 1-.1.2 1.8 1.8 0 0 1-.2.1H91v.1h-.2l-.1.1h-.2l-3 .5 1.8 3.1a1 1 0 0 1 .2.3 1 1 0 0 1-.3 1l-1.2 1.3 7.9.7a1.8 1.8 0 0 1 .5.2 1.5 1.5 0 0 1 .7.5 1.7 1.7 0 0 1 .2.5V331.7l5.4-2.8h.4a.5.5 0 0 1 .3 0v.2l2.2 5.7 1.1-.5-2.5-5.5v-.4h.1v-.1a.6.6 0 0 1 .2-.2l5.9-2-1.2-1a1.4 1.4 0 0 1-.4-.8 1.5 1.5 0 0 1 0-.9 1.7 1.7 0 0 1 .4-.5" fill="#F3F3F3"/></g><defs><linearGradient id="paint0_linear_1337_11133" x1="60.6" y1="44.2" x2="27.6" y2="22.2" gradientUnits="userSpaceOnUse"><stop stop-color="#fff"/><stop offset="1" stop-color="#F0F0F0"/></linearGradient><linearGradient id="paint1_linear_1337_11133" x1="211.5" y1="83.8" x2="146.5" y2="98.7" gradientUnits="userSpaceOnUse"><stop stop-color="#fff"/><stop offset="1" stop-color="#F0F0F0"/></linearGradient><linearGradient id="paint2_linear_1337_11133" x1="188.3" y1="272.2" x2="52.4" y2="342.4" gradientUnits="userSpaceOnUse"><stop stop-color="#F9F9F9"/><stop offset="1" stop-color="#F0F0F0"/></linearGradient><filter id="filter0_df_1337_11133" x=".5" y="8.1" width="141.3" height="132.2" filterUnits="userSpaceOnUse" color-interpolation-filters="sRGB"><feFlood flood-opacity="0" result="BackgroundImageFix"/><feColorMatrix in="SourceAlpha" values="0 0 0 0 0 0 0 0 0 0 0 0 0 0 0 0 0 0 127 0" result="hardAlpha"/><feOffset dx="30" dy="40"/><feGaussianBlur stdDeviation="20"/><feComposite in2="hardAlpha" operator="out"/><feColorMatrix values="0 0 0 0 0 0 0 0 0 0 0 0 0 0 0 0 0 0 0.1 0"/><feBlend in2="BackgroundImageFix" result="effect1_dropShadow_1337_11133"/><feBlend in="SourceGraphic" in2="effect1_dropShadow_1337_11133" result="shape"/><feGaussianBlur stdDeviation="1.5" result="effect2_foregroundBlur_1337_11133"/></filter><filter id="filter1_df_1337_11133" x="129" y="50" width="161" height="170.9" filterUnits="userSpaceOnUse" color-interpolation-filters="sRGB"><feFlood flood-opacity="0" result="BackgroundImageFix"/><feColorMatrix in="SourceAlpha" values="0 0 0 0 0 0 0 0 0 0 0 0 0 0 0 0 0 0 127 0" result="hardAlpha"/><feOffset dx="30" dy="40"/><feGaussianBlur stdDeviation="20"/><feComposite in2="hardAlpha" operator="out"/><feColorMatrix values="0 0 0 0 0 0 0 0 0 0 0 0 0 0 0 0 0 0 0.1 0"/><feBlend in2="BackgroundImageFix" result="effect1_dropShadow_1337_11133"/><feBlend in="SourceGraphic" in2="effect1_dropShadow_1337_11133" result="shape"/><feGaussianBlur stdDeviation="1" result="effect2_foregroundBlur_1337_11133"/></filter><filter id="filter2_d_1337_11133" x="9.8" y="218.6" width="274.4" height="267.7" filterUnits="userSpaceOnUse" color-interpolation-filters="sRGB"><feFlood flood-opacity="0" result="BackgroundImageFix"/><feColorMatrix in="SourceAlpha" values="0 0 0 0 0 0 0 0 0 0 0 0 0 0 0 0 0 0 127 0" result="hardAlpha"/><feOffset dx="30" dy="40"/><feGaussianBlur stdDeviation="20"/><feComposite in2="hardAlpha" operator="out"/><feColorMatrix values="0 0 0 0 0 0 0 0 0 0 0 0 0 0 0 0 0 0 0.1 0"/><feBlend in2="BackgroundImageFix" result="effect1_dropShadow_1337_11133"/><feBlend in="SourceGraphic" in2="effect1_dropShadow_1337_11133" result="shape"/></filter></defs></svg>