<svg xmlns="http://www.w3.org/2000/svg" width="371" height="657" viewBox="0 0 371 657" fill="none"><g filter="url(#filter0_d_2501_1521)"><path d="M241.707 300.265c4.174-1.03 8.578-1.019 12.968-.133 4.39.886 8.714 2.625 12.83 5.09s7.958 5.626 11.359 9.369a52.507 52.507 0 0 1 8.595 12.841l62.06 131.277c2.361 4.989 3.857 10.101 4.537 15.082.68 4.982.558 9.887-.345 14.392-.907 4.532-2.594 8.69-5.023 12.197-2.447 3.535-5.645 6.416-9.551 8.359l-118.965 59.158c-5.018 2.495-10.378 3.68-15.782 3.668-5.443-.01-10.919-1.23-16.104-3.539-5.184-2.309-10.115-5.731-14.391-10.089-4.276-4.359-7.917-9.672-10.577-15.761L93.635 382.782c-2.525-5.775-3.785-11.578-3.907-17.114-.123-5.536.884-10.736 2.89-15.398 2.006-4.662 4.958-8.693 8.772-11.929 3.813-3.236 8.393-5.59 13.709-6.899l126.608-31.177Z" fill="url(#paint0_linear_2501_1521)"/><path d="M201.271 571.429c-5.101-.44-10.178-1.925-14.958-4.343-4.803-2.432-9.299-5.803-13.223-10-3.929-4.2-7.272-9.214-9.763-14.911L93.635 382.782c-1.666-3.812-2.785-7.641-3.386-11.397-.601-3.747-.684-7.416-.294-10.927.39-3.498 1.252-6.83 2.55-9.921a32.688 32.688 0 0 1 5.122-8.417l-9.143 10.87a32.391 32.391 0 0 0-5.045 8.259 35.276 35.276 0 0 0-2.533 9.707c-.401 3.426-.33 7.006.235 10.659.57 3.66 1.645 7.387 3.262 11.098l67.39 154.919c2.408 5.532 5.652 10.395 9.476 14.472 3.819 4.064 8.2 7.331 12.888 9.68 4.669 2.338 9.625 3.767 14.623 4.178 4.962.407 9.947-.184 14.712-1.873l12.785-4.536c-4.855 1.723-9.94 2.315-15.01 1.88l.004-.004Z" fill="#B2B2B2"/><g clip-path="url(#clip0_2501_1521)" fill="#F5494C"><path d="m212.546 387.288 3.246-23.511c.279-.109 1.825-.694 4.427-1.477 2.603-.782 6.235-1.74 10.699-2.604a123.281 123.281 0 0 1 15.597-1.999c5.876-.373 12.308-.376 19.157.287-.061 2.94-.595 5.703-1.364 8.187-.768 2.485-1.79 4.721-2.813 6.597a38.62 38.62 0 0 1-2.855 4.484c-.804 1.083-1.372 1.731-1.482 1.847-1.335-2.042-2.722-3.57-4.307-4.604-1.584-1.033-3.384-1.577-5.521-1.647-2.136-.071-4.627.328-7.619 1.175-2.991.848-6.49 2.155-10.637 3.891l44.313 122.451-79.945-107.497c-4.284 1.799-7.781 3.433-10.553 5.006-2.772 1.573-4.83 3.113-6.214 4.704-1.384 1.591-2.11 3.245-2.246 5.069-.136 1.823.33 3.838 1.307 6.132-.183.005-1.173.003-2.739-.103a53.569 53.569 0 0 1-6.19-.802c-2.48-.468-5.302-1.166-8.216-2.221-2.915-1.056-5.931-2.476-8.795-4.372 4.293-5.5 8.88-10.205 13.342-14.189a115.369 115.369 0 0 1 12.614-9.758 106.99 106.99 0 0 1 9.561-5.735c2.431-1.283 3.974-1.96 4.258-2.087l22.972 12.76.003.016Z"/><path d="M195.258 355.15c4.684-1.85 9.65-3.557 14.905-5.049a164.44 164.44 0 0 1 16.523-3.779 168.238 168.238 0 0 1 18.113-2.16c6.32-.416 12.842-.505 19.687-.218l.125.594c.078.369.161.922.268 1.671.107.749.219 1.715.335 2.907.117 1.191.232 2.618.327 4.3a150.969 150.969 0 0 0-16.466-.291 146.06 146.06 0 0 0-16.196 1.504 139.687 139.687 0 0 0-15.813 3.328 135.483 135.483 0 0 0-15.308 5.168c-.146.064-.301.122-.447.186-.146.064-.301.122-.447.186-.146.064-.301.122-.447.187-.146.064-.302.122-.448.186-.155.058-.301.122-.456.18-.156.058-.302.122-.457.18-.156.058-.302.122-.457.18-.156.058-.302.122-.457.18a133.753 133.753 0 0 0-14.651 7.017 135.102 135.102 0 0 0-13.741 8.787 133.31 133.31 0 0 0-12.703 10.532 138.121 138.121 0 0 0-11.532 12.23 137.818 137.818 0 0 1-3.618-2.886 108.738 108.738 0 0 1-2.585-2.199 66.206 66.206 0 0 1-1.575-1.429 30.92 30.92 0 0 1-.589-.564 163.203 163.203 0 0 1 12.999-12.875 158.381 158.381 0 0 1 14.104-11.128 157.287 157.287 0 0 1 15.079-9.363 158.725 158.725 0 0 1 15.942-7.573l-.014.011Z"/></g></g><g filter="url(#filter1_df_2501_1521)"><path d="M329.94 70.55a9.462 9.462 0 0 1-3.596-.25 11.036 11.036 0 0 1-3.484-1.618 12.26 12.26 0 0 1-2.947-2.904l-23.657-32.74a10.953 10.953 0 0 1-1.331-2.42 9.465 9.465 0 0 1-.608-2.465 8.326 8.326 0 0 1 .084-2.377 7.576 7.576 0 0 1 .74-2.162l-.954 1.821-.199.382-.109.207-.025.049-.016.031-.075.143-.035.067h-.002c-.037.074-.079.153-.112.216a7.529 7.529 0 0 0-.731 2.123 8.236 8.236 0 0 0-.091 2.327 9.26 9.26 0 0 0 .582 2.407c.311.803.738 1.596 1.288 2.358l22.915 31.839a11.789 11.789 0 0 0 2.86 2.817 10.682 10.682 0 0 0 3.393 1.563 9.23 9.23 0 0 0 3.512.229 8.114 8.114 0 0 0 3.232-1.148l2.665-1.659a8.2 8.2 0 0 1-3.299 1.165v-.001Z" fill="#B2B2B2"/><path d="M325.628 7.03c.893-.438 1.889-.652 2.925-.667 1.036-.015 2.099.167 3.152.524 1.052.357 2.077.885 3.032 1.567a12.216 12.216 0 0 1 2.579 2.491l20.538 26.736a12.07 12.07 0 0 1 1.774 3.2c.401 1.096.616 2.215.636 3.282.02 1.073-.155 2.1-.53 3.015a5.853 5.853 0 0 1-1.744 2.366L334.037 68.82a8.081 8.081 0 0 1-3.385 1.609 9.182 9.182 0 0 1-3.815-.012 10.939 10.939 0 0 1-3.753-1.581 12.198 12.198 0 0 1-3.172-3.056l-23.656-32.742c-.857-1.186-1.43-2.44-1.732-3.69-.302-1.251-.333-2.48-.111-3.637a7.47 7.47 0 0 1 1.391-3.138c.701-.922 1.62-1.682 2.756-2.24l27.068-13.301Z" fill="url(#paint1_linear_2501_1521)"/><g clip-path="url(#clip1_2501_1521)" opacity=".8"><path d="M339.593 37.687a18.202 18.202 0 0 0 1.885-3.382 23.627 23.627 0 0 0 1.187-3.562c.301-1.195.524-2.406.697-3.614.174-1.207.295-2.381.401-3.547.115.733.203 1.953.228 3.43a54.348 54.348 0 0 1-.159 5.068c-.144 1.8-.4 3.696-.8 5.326-.407 1.657-.964 3.066-1.71 3.936-.245.286-.51.514-.797.672a2.01 2.01 0 0 1-.926.257 2.494 2.494 0 0 1-1.059-.224 4.913 4.913 0 0 1-1.193-.765 6.824 6.824 0 0 1-.611-.607 8.592 8.592 0 0 1-.562-.701c-.18-.249-.352-.512-.518-.788a13.987 13.987 0 0 1-.477-.866 18.63 18.63 0 0 1-.447-.923c-.144-.316-.283-.64-.418-.97-.136-.33-.268-.664-.397-1.003-.13-.338-.258-.68-.386-1.022-.195-.514-.454-1.21-.756-2.001a104.92 104.92 0 0 0-1.007-2.554 53.77 53.77 0 0 0-1.135-2.591c-.389-.818-.776-1.556-1.153-2.147l-.701-.878c-.468-.428-.952-.706-1.466-.865-.514-.158-1.06-.198-1.649-.148-.588.05-1.227.188-1.92.387-.694.199-1.455.46-2.285.75l.001.778 1.986.199a46.87 46.87 0 0 0-1.746 3.098c-.513 1-.956 1.965-1.356 2.922-.4.957-.761 1.927-1.101 2.91-.342.995-.666 2.014-1 3.092l2.119 1.07.928 3.594c.044-.019.144-.056.283-.118a6.129 6.129 0 0 0 1.192-.694 5.867 5.867 0 0 0 1.443-1.526c.221-.343.42-.729.581-1.166.16-.438.281-.921.347-1.462.067-.54.079-1.13.022-1.78l-.001-.019a.314.314 0 0 0-.016-.083.088.088 0 0 0-.023-.034 1.856 1.856 0 0 0-.235-.061 4.818 4.818 0 0 0-.284-.047 15.973 15.973 0 0 0-.331-.04l-.374-.043c.211-.166.469-.262.752-.296.284-.035.593-.006.908.076.316.083.638.219.948.401.31.183.607.412.874.68l-.348.352a4.023 4.023 0 0 0-.539-.444 4.374 4.374 0 0 0-.599-.347c.077.65.092 1.264.05 1.845a7.61 7.61 0 0 1-.294 1.64 6.49 6.49 0 0 1-.616 1.426c-.255.438-.562.84-.912 1.202a6.617 6.617 0 0 1-1.336 1.062c-.249.151-.51.29-.783.416a8.387 8.387 0 0 1-.851.336l3.007 2.604a7.195 7.195 0 0 0-.203 1.484 9.978 9.978 0 0 0 .099 1.87c.097.645.266 1.298.525 1.886.259.588.612 1.116 1.074 1.514l.16.103a6.758 6.758 0 0 0 .492.276 2.323 2.323 0 0 1 .155.03l.088.017.092.014a1.765 1.765 0 0 0 .435-.025 1.295 1.295 0 0 0 .376-.134c.299-.045.593-.13.878-.249.285-.12.563-.272.833-.453.27-.18.531-.39.783-.62.252-.231.496-.483.73-.752.633-.726 1.2-1.571 1.692-2.427.493-.856.904-1.707 1.241-2.473.334-.76.591-1.431.765-1.913.174-.482.263-.774.265-.785a38.397 38.397 0 0 1-.201 2.828c-.107.93-.267 1.865-.509 2.791a15.566 15.566 0 0 1-1.026 2.81 17.046 17.046 0 0 1-1.771 2.893c-1.087 1.198-2.264 1.887-3.468 2.134-1.204.247-2.446.046-3.636-.528-1.19-.574-2.332-1.518-3.36-2.746-1.023-1.222-1.931-2.719-2.666-4.404a37.677 37.677 0 0 1-1.93-5.04 29.678 29.678 0 0 1-1.07-5.127 24.689 24.689 0 0 1-.07-5.126 22.688 22.688 0 0 1 1.041-5.04c.154-.482.343-1.003.569-1.54.225-.536.484-1.082.783-1.624.3-.542.632-1.07 1.008-1.573.377-.503.787-.972 1.244-1.395l.025-.022.025-.022.024-.022.025-.021a9.188 9.188 0 0 1 2.184-1.44 6.787 6.787 0 0 1 2.491-.637 6.4 6.4 0 0 1 2.71.454c.933.366 1.891.963 2.866 1.849.769.682 1.463 1.58 2.104 2.613.645 1.038 1.238 2.213 1.796 3.438.559 1.225 1.093 2.522 1.607 3.767.518 1.256 1.019 2.47 1.519 3.541.212.448.422.84.632 1.164.21.323.42.578.63.746.21.168.419.25.63.23.21-.021.42-.143.631-.38l.029-.034.029-.034.029-.037.03-.038.004-.002Z" fill="#DE7025"/></g></g><g filter="url(#filter2_df_2501_1521)"><path d="M167.631 96.645c2.427.656 4.776 1.697 6.95 3.018a30.087 30.087 0 0 1 5.909 4.703c1.734 1.782 3.202 3.75 4.301 5.797 1.099 2.046 1.833 4.19 2.088 6.308l8.054 66.636c.299 2.471.056 4.718-.643 6.669a11.29 11.29 0 0 1-3.404 4.906c-1.547 1.29-3.471 2.194-5.682 2.634-2.211.44-4.727.415-7.427-.163l-82.484-17.667c-2.972-.637-5.816-1.784-8.408-3.309a29.845 29.845 0 0 1-6.896-5.588c-1.961-2.154-3.538-4.54-4.62-7.041-1.082-2.5-1.661-5.085-1.636-7.652l.65-68.918c.02-2.18.593-4.098 1.609-5.703 1.015-1.605 2.455-2.881 4.229-3.802 1.773-.921 3.854-1.475 6.165-1.623 2.311-.149 4.824.11 7.467.826l73.778 19.969Z" fill="url(#paint2_linear_2501_1521)"/><g clip-path="url(#clip2_2501_1521)"><path d="M136.268 103.909a53.775 53.775 0 0 1 6.666 2.635 57.853 57.853 0 0 1 6.363 3.526 59.782 59.782 0 0 1 5.94 4.333 59.582 59.582 0 0 1 5.399 5.062l-10.691 5.929a34.84 34.84 0 0 0-6.46-5.154 33.656 33.656 0 0 0-3.582-1.928 30.549 30.549 0 0 0-3.729-1.439c-2.5-.779-4.909-1.188-7.171-1.257-2.261-.07-4.391.199-6.305.777-1.914.578-3.634 1.476-5.074 2.649a12.807 12.807 0 0 0-3.449 4.36l-12.879-12.528c1.73-2.194 3.872-4.026 6.343-5.463 2.454-1.426 5.231-2.463 8.258-3.077 3.026-.613 6.26-.806 9.688-.551 3.428.255 6.991.95 10.683 2.126Z" fill="#E64547"/><path d="M155.059 152.634c.149-.24.288-.487.418-.743a11.488 11.488 0 0 0 .929-2.521c-.067.297-.15.587-.239.873a10.886 10.886 0 0 1-.674 1.634c-.134.26-.28.512-.435.759l.001-.002Z" fill="#309A4C"/><path d="M171.035 140.847c.014.049.025.099.039.148.014.048.025.099.037.147l.037.147.037.149c.117.477.225.959.324 1.438.098.48.183.963.257 1.441.074.478.132.95.178 1.416.045.465.074.923.085 1.368.072 2.712-.139 5.207-.603 7.483-.466 2.29-1.188 4.363-2.133 6.216a20.547 20.547 0 0 1-3.503 4.933 20.726 20.726 0 0 1-4.701 3.633l-12.43-12.195c.506-.135.994-.298 1.463-.489.47-.192.918-.407 1.345-.65a10.412 10.412 0 0 0 2.293-1.756c.123-.125.242-.256.358-.386.117-.131.228-.267.336-.404a9.168 9.168 0 0 0 .605-.856 9.948 9.948 0 0 0 .804-1.556 10.89 10.89 0 0 0 .544-1.71l.007-.029a.325.325 0 0 1 .007-.03l.006-.03.007-.029-20.645-6.14.158-12.944 35.091 10.684-.003.001Z" fill="#3C7ADF"/><path d="M171.187 141.438c.119.478.227.96.327 1.442s.185.964.259 1.44a22.475 22.475 0 0 1 .264 2.783c.14 5.311-.8 9.79-2.598 13.442a20.367 20.367 0 0 1-7.85 8.542c-3.338 2.004-7.391 3.186-11.815 3.495-4.461.312-9.322-.247-14.32-1.658-3.971-1.121-7.806-2.717-11.425-4.697a59.365 59.365 0 0 1-10.118-7.003 57.962 57.962 0 0 1-8.259-8.703c-2.388-3.119-4.369-6.404-5.886-9.778l13.945-4.873c.703 2.249 1.773 4.467 3.146 6.579a33.087 33.087 0 0 0 4.97 5.942 35.149 35.149 0 0 0 6.4 4.815 32.613 32.613 0 0 0 7.409 3.211c1.267.368 2.497.659 3.683.874a27.88 27.88 0 0 0 3.421.412 21.52 21.52 0 0 0 3.124-.039 16.24 16.24 0 0 0 2.796-.488l12.43 12.195c1.742-.99 3.32-2.2 4.702-3.634a20.41 20.41 0 0 0 3.502-4.933c.95-1.864 1.667-3.926 2.134-6.216.467-2.29.675-4.771.602-7.483a20.484 20.484 0 0 0-.085-1.368 23.107 23.107 0 0 0-.178-1.416 30.88 30.88 0 0 0-.257-1.44 34.821 34.821 0 0 0-.324-1.439l.001-.004Z" fill="#309A4C"/><path d="m101.293 110.882 12.882 12.535a13.983 13.983 0 0 0-.983 2.736c-.121.486-.218.987-.289 1.503a16.258 16.258 0 0 0-.14 1.594 18.212 18.212 0 0 0 .191 3.27c.081.557.185 1.118.316 1.682.131.563.284 1.131.463 1.7l-13.953 4.834a42.214 42.214 0 0 1-1.6-4.101 36.841 36.841 0 0 1-1.107-4.126 33.96 33.96 0 0 1-.593-4.112 29.782 29.782 0 0 1-.054-4.065c.069-1.297.224-2.559.467-3.78.244-1.221.57-2.393.98-3.524a22.245 22.245 0 0 1 1.475-3.233 21.186 21.186 0 0 1 1.949-2.912l-.004-.001Z" fill="#E9CE52"/></g><path d="M191.981 193.634c-.131.144-.269.283-.406.42-.031.03-.064.063-.097.093-.139.133-.28.265-.426.391l-.055.046c-.134.116-.272.227-.411.335-.034.027-.066.053-.1.077-.154.117-.31.23-.471.339-.029.022-.06.04-.089.06-.156.103-.314.205-.475.302l-.072.044a12.179 12.179 0 0 1-1.223.633l-.044.019a15.582 15.582 0 0 1-.678.279c-.197.075-.397.145-.6.212-.04.013-.08.024-.12.038a17.187 17.187 0 0 1-.655.191c-.213.056-.43.106-.648.154-.048.01-.097.019-.144.03-.22.045-.443.086-.667.121l-.08.01c-.212.033-.424.06-.641.084l-.131.014c-.23.024-.463.041-.698.056l-.146.008a20.19 20.19 0 0 1-.701.022h-.045c-.247.001-.496-.002-.745-.011l-.162-.005c-.248-.011-.5-.025-.753-.045-.037-.002-.076-.007-.113-.011a22.548 22.548 0 0 1-.71-.075c-.045-.008-.088-.011-.133-.016a18.395 18.395 0 0 1-.948-.145c-.27-.047-.542-.098-.816-.157L95.294 179.48a30.8 30.8 0 0 1-.79-.183 14.154 14.154 0 0 1-.628-.163c-.124-.035-.245-.067-.368-.103l-.233-.068c-.121-.036-.24-.072-.36-.11l-.23-.072-.367-.12c-.071-.024-.145-.048-.216-.074-.133-.046-.266-.094-.397-.141-.06-.022-.118-.042-.178-.066a20.722 20.722 0 0 1-.556-.213c-.006-.001-.01-.004-.015-.007a21.39 21.39 0 0 1-.57-.234l-.162-.07c-.133-.058-.267-.114-.398-.174a18.624 18.624 0 0 1-.205-.094 18.043 18.043 0 0 1-.352-.163c-.072-.034-.144-.068-.215-.104a24.437 24.437 0 0 1-.338-.165c-.073-.037-.145-.072-.216-.11a24.338 24.338 0 0 1-.9-.478l-.178-.099c-.158-.088-.316-.18-.471-.272-.018-.01-.038-.022-.057-.031l-.018-.011a32.964 32.964 0 0 1-.869-.532c-.04-.027-.08-.052-.122-.078-.217-.14-.427-.284-.64-.427-.093-.064-.188-.125-.279-.188a27.383 27.383 0 0 1-.875-.634c-.048-.035-.095-.075-.143-.111a27.292 27.292 0 0 1-.707-.552c-.1-.08-.197-.166-.296-.248-.176-.147-.353-.294-.526-.444-.111-.096-.218-.196-.327-.291-.158-.142-.315-.282-.468-.425-.112-.104-.222-.21-.331-.316-.146-.142-.293-.282-.434-.425-.11-.109-.216-.221-.324-.332a29.932 29.932 0 0 1-1.104-1.214 28.67 28.67 0 0 1-1.61-2.067 28.114 28.114 0 0 1-.584-.865 23.84 23.84 0 0 1-.287-.458c-.086-.14-.172-.28-.254-.421a18.32 18.32 0 0 1-.268-.469 18.5 18.5 0 0 1-.48-.905 30.424 30.424 0 0 1-.213-.428c-.079-.163-.151-.324-.225-.488-.074-.166-.152-.333-.222-.5-.024-.057-.048-.113-.07-.171l-.09-.22c-.031-.081-.064-.162-.094-.243l-.085-.221c-.03-.081-.058-.162-.089-.243l-.078-.222a8.042 8.042 0 0 1-.081-.243l-.074-.225-.075-.24-.07-.229-.067-.241-.064-.229-.061-.24-.058-.231a31.056 31.056 0 0 1-.107-.472l-.048-.244-.046-.229c-.016-.082-.028-.164-.042-.246a11.433 11.433 0 0 1-.107-.7c-.012-.085-.022-.171-.031-.256l-.026-.218-.024-.265-.019-.209a13.398 13.398 0 0 1-.017-.28l-.012-.193c-.005-.103-.007-.207-.01-.309l-.005-.164a19.662 19.662 0 0 1-.003-.473l.648-68.903c.004-.494.038-.973.096-1.438.06-.465.148-.917.26-1.353a10.283 10.283 0 0 1 .97-2.436l-.457.818-.036.063-.254.453-.062.11-.262.47-.065.12-.11.197c-.034.062-.07.128-.104.184l-.028.051c-.029.051-.06.104-.09.16l-.296.53a.552.552 0 0 1-.028.05l-.316.568-.096.171c-.014.026-.031.057-.048.084l-.118.214c-.06.106-.12.213-.17.305-.101.18-.234.422-.336.602l-.058.104-.057.103c-.009.016-.02.032-.028.049l-.209.374-.15.27a10.24 10.24 0 0 0-.974 2.436c-.113.436-.201.886-.262 1.351-.061.465-.097.943-.102 1.435l-.923 68.668a11.871 11.871 0 0 0 .005.627c.003.106.005.21.01.314l.01.19.017.282.017.208.023.263.023.217c.01.086.018.169.03.254.01.074.021.147.03.223.013.084.023.165.037.249.011.076.025.15.036.226.014.082.026.163.043.246.013.076.028.15.044.227l.034.175.015.066c.015.076.032.153.05.23.018.08.034.161.053.24.017.077.037.152.056.228l.06.24c.018.077.04.152.061.227.023.08.043.159.068.239.021.075.044.151.068.226l.073.24c.023.076.047.149.072.223.027.081.053.161.082.241l.076.222.087.242.083.221c.03.081.061.16.093.241.03.073.057.147.089.22.014.036.028.072.044.107.008.021.019.041.027.062.027.065.052.129.08.193.043.101.091.201.136.302.073.161.145.323.222.485.068.143.138.282.208.423.079.159.16.318.243.477.074.142.152.281.23.421.085.156.173.312.264.467l.25.418c.056.089.106.181.163.27.039.063.082.124.122.186.088.138.179.275.271.412.1.15.201.299.305.447.095.136.192.269.289.405a25.499 25.499 0 0 0 .977 1.259c.106.129.214.256.322.384l.159.19c.07.081.144.159.215.239.06.068.116.137.177.203l.131.139a71.413 71.413 0 0 0 .724.76c.041.041.08.085.123.126.1.1.205.197.308.296.108.106.216.209.325.313.151.143.307.282.463.422.107.095.212.192.321.288.023.02.045.042.068.061.147.128.301.254.451.378.098.082.195.166.295.246.23.186.466.368.702.547.048.036.093.073.14.109a29.744 29.744 0 0 0 .865.626c.092.063.187.124.278.187.184.124.365.25.552.371l.08.051c.04.027.082.051.121.076.284.18.57.357.86.527.004.001.01.006.013.008 0 0 .004.001.005.003l.058.034c.154.089.308.178.464.266.06.034.119.065.179.097.116.065.233.128.351.192l.068.037.137.07c.111.059.223.117.334.173l.213.107c.112.057.224.111.336.164l.212.101a17.846 17.846 0 0 0 .552.252c.131.058.263.116.394.171l.134.058.028.011c.187.079.375.156.563.229.006.001.012.004.015.006.183.072.366.14.55.209.06.021.12.041.178.063.13.048.26.093.392.139a23.823 23.823 0 0 0 .578.191c.033.011.067.023.101.033l.127.039c.119.035.236.073.355.106.078.023.154.046.231.066l.365.101c.074.02.148.04.223.058.133.034.264.068.398.1a20.22 20.22 0 0 0 .782.179l81.806 17.232a22.478 22.478 0 0 0 1.748.293c.045.008.088.011.133.016.237.03.471.052.705.071a19.23 19.23 0 0 0 .86.053c.026 0 .051.004.075.004h.087c.243.007.487.011.725.009.006.001.01-.001.017-.002h.043c.235-.003.467-.013.697-.025l.144-.008c.235-.015.467-.034.695-.059l.131-.014c.215-.024.428-.053.638-.086l.059-.008c.006-.001.014-.002.02-.005.225-.036.446-.077.664-.123l.144-.03c.208-.046.414-.093.616-.148l.027-.007.066-.019c.198-.053.394-.112.587-.174.04-.014.08-.025.119-.038.202-.067.402-.137.597-.213l.049-.016.072-.03c.187-.074.372-.151.555-.233l.044-.019a12.158 12.158 0 0 0 1.18-.616c.011-.008.024-.014.036-.022l.072-.044a10.878 10.878 0 0 0 .533-.341c.011-.006.02-.014.029-.021.159-.109.317-.223.469-.341l.041-.029c.021-.017.039-.034.06-.048.139-.109.276-.222.41-.335l.042-.035a13.179 13.179 0 0 0 .439-.402c.014-.014.031-.027.047-.042l.05-.052c.14-.136.276-.275.407-.419 1.558-1.705 3.118-3.41 4.676-5.117l.005.003Z" fill="#B2B2B2"/></g><defs><linearGradient id="paint0_linear_2501_1521" x1="323.984" y1="387.394" x2="127.874" y2="464.042" gradientUnits="userSpaceOnUse"><stop stop-color="#fff"/><stop offset="1" stop-color="#F0F0F0"/></linearGradient><linearGradient id="paint1_linear_2501_1521" x1="348.546" y1="22.755" x2="307.967" y2="49.705" gradientUnits="userSpaceOnUse"><stop stop-color="#fff"/><stop offset="1" stop-color="#F0F0F0"/></linearGradient><linearGradient id="paint2_linear_2501_1521" x1="194.103" y1="132.755" x2="82.487" y2="149.611" gradientUnits="userSpaceOnUse"><stop stop-color="#fff"/><stop offset="1" stop-color="#F0F0F0"/></linearGradient><clipPath id="clip0_2501_1521"><path fill="#fff" d="m130.453 364.344 167.715-35.296 34.17 162.366-167.714 35.296z"/></clipPath><clipPath id="clip1_2501_1521"><path fill="#fff" d="m303.474 24.238 40.047-14.672 14.352 39.198-40.047 14.672z"/></clipPath><clipPath id="clip2_2501_1521"><path fill="#fff" d="m103.314 85.707 81.925 18.553-18.553 81.925-81.925-18.553z"/></clipPath><filter id="filter0_d_2501_1521" x="2.98" y="287.919" width="372.143" height="380.081" filterUnits="userSpaceOnUse" color-interpolation-filters="sRGB"><feFlood flood-opacity="0" result="BackgroundImageFix"/><feColorMatrix in="SourceAlpha" values="0 0 0 0 0 0 0 0 0 0 0 0 0 0 0 0 0 0 127 0" result="hardAlpha"/><feOffset dx="-30" dy="40"/><feGaussianBlur stdDeviation="20"/><feComposite in2="hardAlpha" operator="out"/><feColorMatrix values="0 0 0 0 0 0 0 0 0 0 0 0 0 0 0 0 0 0 0.1 0"/><feBlend in2="BackgroundImageFix" result="effect1_dropShadow_2501_1521"/><feBlend in="SourceGraphic" in2="effect1_dropShadow_2501_1521" result="shape"/></filter><filter id="filter1_df_2501_1521" x="222.749" y="3.362" width="147.516" height="148.906" filterUnits="userSpaceOnUse" color-interpolation-filters="sRGB"><feFlood flood-opacity="0" result="BackgroundImageFix"/><feColorMatrix in="SourceAlpha" values="0 0 0 0 0 0 0 0 0 0 0 0 0 0 0 0 0 0 127 0" result="hardAlpha"/><feOffset dx="-30" dy="40"/><feGaussianBlur stdDeviation="20"/><feComposite in2="hardAlpha" operator="out"/><feColorMatrix values="0 0 0 0 0 0 0 0 0 0 0 0 0 0 0 0 0 0 0.1 0"/><feBlend in2="BackgroundImageFix" result="effect1_dropShadow_2501_1521"/><feBlend in="SourceGraphic" in2="effect1_dropShadow_2501_1521" result="shape"/><feGaussianBlur stdDeviation="1.5" result="effect2_foregroundBlur_2501_1521"/></filter><filter id="filter2_df_2501_1521" x=".068" y="73.809" width="204.99" height="208.943" filterUnits="userSpaceOnUse" color-interpolation-filters="sRGB"><feFlood flood-opacity="0" result="BackgroundImageFix"/><feColorMatrix in="SourceAlpha" values="0 0 0 0 0 0 0 0 0 0 0 0 0 0 0 0 0 0 127 0" result="hardAlpha"/><feOffset dx="-30" dy="40"/><feGaussianBlur stdDeviation="20"/><feComposite in2="hardAlpha" operator="out"/><feColorMatrix values="0 0 0 0 0 0 0 0 0 0 0 0 0 0 0 0 0 0 0.1 0"/><feBlend in2="BackgroundImageFix" result="effect1_dropShadow_2501_1521"/><feBlend in="SourceGraphic" in2="effect1_dropShadow_2501_1521" result="shape"/><feGaussianBlur stdDeviation="1" result="effect2_foregroundBlur_2501_1521"/></filter></defs></svg>