<svg xmlns="http://www.w3.org/2000/svg" width="291" height="487" viewBox="0 0 291 487" fill="none"><g filter="url(#filter0_df_2501_1522)"><path d="M67.685 25.297c.95.47 1.753 1.045 2.392 1.688s1.12 1.357 1.414 2.094c.296.74.407 1.506.317 2.252a4.323 4.323 0 0 1-.913 2.15L54.433 54.498c-.611.78-1.407 1.413-2.321 1.886a9.322 9.322 0 0 1-3.047.936c-1.09.145-2.237.12-3.365-.086a10.627 10.627 0 0 1-3.263-1.16L13.87 40.166c-.938-.522-1.689-1.162-2.242-1.872-.552-.71-.904-1.479-1.055-2.27a4.659 4.659 0 0 1 .165-2.374c.26-.775.727-1.522 1.409-2.196l18.437-18.248c.588-.582 1.322-1.046 2.145-1.387a9.428 9.428 0 0 1 2.679-.651c.946-.093 1.926-.06 2.89.105.963.164 1.912.46 2.79.892l26.598 13.131Z" fill="url(#paint0_linear_2501_1522)"/><path d="M52.929 58.444a5.691 5.691 0 0 0 .133-.11l.016-.014.09-.078.055-.05c.032-.028.063-.057.094-.087l.041-.039.006-.005c.04-.038.08-.077.118-.117l.02-.018c.045-.046.09-.093.133-.14l.003-.003.091-.1.015-.018.03-.034.044-.05.037-.045.031-.038.02-.023.084-.106 16.288-20.961.033-.043a4.813 4.813 0 0 0 .064-.086l.03-.044a.564.564 0 0 0 .02-.028l.02-.028.039-.057a5.424 5.424 0 0 0 .086-.134l.006-.008.009-.016.042-.07.066-.115.007-.013.008-.015.04-.075.052-.104a.263.263 0 0 0 .011-.025l.005-.01.005-.012.028-.058.045-.105.016-.04.008-.02.015-.039.037-.099c.01-.023.017-.047.025-.072a.076.076 0 0 0 .004-.014l.005-.013.031-.1.025-.086a.446.446 0 0 1 .006-.02l.004-.015.014-.051a4.36 4.36 0 0 0 .021-.087l.02-.086.624-2.932c-.016.075-.035.15-.055.225l-.004.014a3.65 3.65 0 0 1-.067.22l-.005.014c-.024.07-.05.14-.077.21l-.009.02a4.487 4.487 0 0 1-.088.203l-.01.022a4.071 4.071 0 0 1-.104.204l-.008.015a5.24 5.24 0 0 1-.116.2l-.015.024a4.435 4.435 0 0 1-.294.42L54.435 54.494l-.105.13-.03.037-.083.096-.03.035-.11.122-.135.14a5.878 5.878 0 0 1-.139.135l-.048.045c-.031.03-.063.06-.095.088l-.057.05-.09.077-.062.051c-.03.025-.06.05-.09.073l-.064.051a70.335 70.335 0 0 1-.158.12 6.58 6.58 0 0 1-.092.066l-.07.05a4.922 4.922 0 0 1-.162.11l-.11.07-.065.042c-.041.026-.083.05-.126.076l-.052.031a9.969 9.969 0 0 1-.366.201c-.025.014-.05.026-.076.039l-.102.05-.08.038a5.605 5.605 0 0 1-.102.048l-.082.037-.103.045-.083.035c-.035.015-.07.03-.105.043l-.084.033-.106.04-.085.032a4.244 4.244 0 0 1-.107.037l-.086.03-.109.036-.087.028a7.09 7.09 0 0 1-.11.033l-.085.025-.143.04-.07.02a7.14 7.14 0 0 1-.189.047l-.025.006-.217.05-.062.012a8.736 8.736 0 0 1-.261.05l-.085.016a4.257 4.257 0 0 1-.195.031l-.128.018-.066.01a9.907 9.907 0 0 1-.397.044l-.024.003c-.127.012-.255.02-.383.028l-.034.002c-.13.007-.262.011-.394.013h-.024c-.134.002-.267.001-.4-.002h-.01c-.136-.004-.271-.01-.406-.019l-.025-.001c-.133-.009-.267-.02-.4-.033l-.026-.003c-.134-.013-.267-.03-.4-.049l-.025-.003c-.133-.02-.266-.04-.4-.065l-.038-.007a8.528 8.528 0 0 1-.163-.031l-.028-.006a8.184 8.184 0 0 1-.185-.039l-.048-.011-.151-.036-.042-.01a12.271 12.271 0 0 1-.228-.058l-.146-.04c-.017-.006-.035-.01-.052-.015a7.635 7.635 0 0 1-.184-.056l-.022-.007-.162-.051-.058-.02-.138-.047a2.287 2.287 0 0 0-.05-.017l-.184-.067-.035-.014-.15-.058a2.064 2.064 0 0 1-.063-.026l-.124-.05c-.022-.01-.043-.02-.065-.028l-.117-.051-.075-.034-.128-.06-.06-.027a8.432 8.432 0 0 1-.187-.091l-.024-.012a8.228 8.228 0 0 1-.366-.194L13.873 40.165a7.227 7.227 0 0 1-.176-.101l-.049-.029-.136-.083-.04-.024a6.6 6.6 0 0 1-.162-.105l-.065-.044a4.327 4.327 0 0 1-.108-.074l-.069-.05-.098-.071-.07-.053-.094-.071-.068-.054-.09-.073-.066-.056a5.647 5.647 0 0 1-.15-.13l-.085-.078-.059-.055-.086-.084-.052-.05-.096-.1-.037-.038a5.515 5.515 0 0 1-.128-.14l-.024-.028a4.984 4.984 0 0 1-.097-.112l-.043-.052-.074-.091-.045-.059a5.071 5.071 0 0 1-.066-.087l-.045-.062-.06-.085-.044-.064-.057-.085-.041-.065-.054-.087a4.583 4.583 0 0 1-.09-.154l-.035-.063-.05-.094-.031-.06-.052-.107-.023-.048a5.827 5.827 0 0 1-.07-.155l-.008-.022a3.56 3.56 0 0 1-.055-.136l-.02-.055a4.272 4.272 0 0 1-.038-.103l-.022-.063-.027-.086a5.158 5.158 0 0 1-.076-.265l-.011-.046a5.18 5.18 0 0 1-.057-.266l-.008-.043a4.365 4.365 0 0 1-.066-.593l.14 2.983c.005.096.013.192.024.287l.003.031a4.335 4.335 0 0 0 .047.316c.017.088.035.176.057.265l.01.045c.023.089.048.176.075.264l.004.015.024.07.015.048.006.016.037.103.02.055.054.135.01.021a3.789 3.789 0 0 0 .09.203c.018.035.034.071.053.107l.03.06a12.542 12.542 0 0 0 .084.157l.05.089.039.064.03.05.022.036.041.065.056.085.024.036.019.027.06.086.044.061c.021.03.043.058.065.087l.045.058.073.091.042.052.095.112.025.029.126.139.037.038c.027.03.055.059.083.087l.011.012.051.05.085.084.059.054a5.1 5.1 0 0 0 .084.078l.022.02.04.035.086.075.065.054.088.073.067.054.092.071.069.052c.032.025.064.048.097.072l.068.05.107.073.064.044.013.01.131.086.017.01.038.024.08.049.054.033.048.03.034.02.14.08L42.154 58.95l.053.03.054.03.053.028.026.014.007.004.021.011c.048.026.096.05.144.074l.026.014c.058.03.115.058.174.086l.008.004.062.03.104.048.02.01.075.032.08.037.036.015.063.027.058.024.065.026.062.025.03.012.118.046c.011.005.023.01.035.013a12.332 12.332 0 0 0 .163.06l.018.007.05.018.08.028.056.018.057.02.036.012.125.04.022.006h.002l.15.045.03.009.05.014c.02.006.042.013.064.018l.08.022.044.012.02.005.144.037.017.004a.527.527 0 0 0 .04.009l.087.021.064.014.047.011.032.007.142.03.01.002a3.734 3.734 0 0 0 .133.026l.054.011.027.005.011.002c.017.002.034.006.05.009l.143.024.142.022.06.008.023.004.06.008.142.019.145.017.048.005.026.002.071.007c.049.005.097.01.145.013l.145.011.033.003h.024l.093.007.15.007.15.005a.188.188 0 0 0 .017 0l.132.003h.157l.106-.001H47.497l.157-.005.156-.006.048-.003c.011 0 .022 0 .034-.002l.089-.004.169-.013.12-.01a.431.431 0 0 1 .023-.002c.009-.001.017-.001.025-.003a7.244 7.244 0 0 0 .355-.04l.012-.003h.005l.061-.01.109-.015.016-.003.079-.012.09-.015c.009 0 .016-.003.024-.004l.083-.015.079-.014a8.353 8.353 0 0 0 .18-.036l.05-.01.01-.003c.073-.016.144-.031.215-.049h.003l.022-.006c.062-.015.124-.03.186-.047l.017-.004.051-.015.142-.04.03-.008.053-.017c.037-.01.073-.022.11-.034l.085-.027.107-.036.04-.014.045-.016.105-.038.085-.031.104-.04.05-.019.034-.014.102-.042.083-.035.1-.045c.02-.008.039-.016.057-.025l.025-.011.1-.048.08-.038.1-.05a2.313 2.313 0 0 0 .075-.037l.017-.01c.047-.024.093-.048.139-.074l.024-.013.002-.002c.06-.033.12-.067.179-.102l.009-.005.043-.026.124-.076.02-.012.043-.029.109-.07.03-.02c.013-.009.026-.019.04-.027.03-.02.06-.042.09-.064l.07-.049.09-.066.04-.029a.524.524 0 0 0 .027-.022c.03-.022.06-.045.088-.068l.065-.052.003-.002Z" fill="#B2B2B2"/><g opacity=".8" fill="#6DA83B"><path d="M40.104 27.933a9.773 9.773 0 0 0-.5-.252 14.888 14.888 0 0 0-.501-.227l1.151-1.239.133.062c.044.02.088.043.131.064l.133.065.133.066.064.033c.022.01.042.021.063.032l.062.033c.02.01.042.021.062.033a10.098 10.098 0 0 1 2.747 2.125 9.49 9.49 0 0 1 2.19 4.17c.116.493.146.82.15.88a24.773 24.773 0 0 1-3.887.58c-1.039.067-2.188.07-3.31-.071-1.12-.142-2.211-.428-3.136-.938a6.578 6.578 0 0 1-.715-.46 5.02 5.02 0 0 1-.563-.495l3.587-3.86c.43.292.742.562.965.833.224.271.362.543.442.84.08.297.102.62.098.993-.005.372-.037.797-.065 1.296l3.933-.165a3.549 3.549 0 0 0-.1-.515 5.346 5.346 0 0 0-.437-1.12 6.088 6.088 0 0 0-1.011-1.4 7.29 7.29 0 0 0-1.82-1.362Z"/><path d="M29.535 25.012c-.031.071-.202.46-.358 1.063a8.532 8.532 0 0 0-.272 2.364c.028.943.228 2 .76 3.065.531 1.064 1.406 2.15 2.775 3.12l-1.056 1.137c-1.911-1.284-3.159-2.703-3.951-4.11a9.638 9.638 0 0 1-1.224-4c-.1-1.214.037-2.28.206-3.062a8.445 8.445 0 0 1 .406-1.368c.104-.01.677-.062 1.57-.092.894-.03 2.106-.037 3.492.043a32.94 32.94 0 0 1 4.54.566c1.594.32 3.226.792 4.753 1.486l-.921.99a17.129 17.129 0 0 0-3.96-1.264 17.65 17.65 0 0 0-3.356-.31c-.979.004-1.796.088-2.386.177-.59.088-.952.179-1.017.195h-.001Z"/><path d="M33.747 27.814c-.014.032-.095.207-.179.483a4.694 4.694 0 0 0-.193 1.091c-.024.439.015.937.182 1.452.167.514.464 1.05.954 1.555l-.95 1.022c-.992-.771-1.616-1.591-1.992-2.388a5.276 5.276 0 0 1-.51-2.244 5.836 5.836 0 0 1 .243-1.691c.128-.429.26-.7.284-.748.047-.007.303-.044.72-.07a15.546 15.546 0 0 1 4.043.308c.868.184 1.801.46 2.753.87l-1.003 1.08a3.334 3.334 0 0 0-.246-.154 4.896 4.896 0 0 0-1.413-.519 6.985 6.985 0 0 0-1.275-.14 8.517 8.517 0 0 0-.98.037c-.25.024-.41.052-.438.057Z"/><path d="m42.86 23.41 18.625 9.876L49.097 48.34 29.774 37.492l1.61-1.731a20.167 20.167 0 0 0 .862.547c.1.06.203.119.308.178 1.088.606 2.483 1.227 4.047 1.815a55.104 55.104 0 0 0 5.068 1.616c1.767.473 3.56.862 5.236 1.119 1.675.256 3.231.38 4.524.323-.046-.162-.189-.42-.38-.727a30.1 30.1 0 0 0-.675-1.012c-.243-.354-.49-.706-.692-1.012-.203-.307-.364-.565-.438-.731a64.234 64.234 0 0 1-4.055.112 33.875 33.875 0 0 1-3.99-.253 23.21 23.21 0 0 1-3.9-.825 19.598 19.598 0 0 1-3.772-1.6 11.042 11.042 0 0 1-1.086-.687l1.122-1.207a9.73 9.73 0 0 0 .927.634c.113.068.23.136.352.203 1.322.731 2.867 1.177 4.446 1.433 1.58.256 3.188.32 4.643.29 1.452-.03 2.749-.154 3.71-.276.96-.121 1.584-.241 1.697-.263a8.906 8.906 0 0 0-.243-1.196 13.105 13.105 0 0 0-.986-2.556 13.526 13.526 0 0 0-2.184-3.108c-.98-1.047-2.224-2.048-3.829-2.906a11.089 11.089 0 0 0-.19-.1l-.097-.05-.097-.049a7.285 7.285 0 0 0-.132-.064l-.133-.064-.133-.062-.134-.062 1.684-1.812h-.004Z"/></g></g><g filter="url(#filter1_df_2501_1522)"><path d="M196.55 52.961c1.667-.627 3.295-.947 4.816-.986 1.521-.04 2.947.2 4.187.698 1.245.498 2.309 1.256 3.116 2.241.807.986 1.362 2.217 1.575 3.644l6.713 44.952c.248 1.669.106 3.393-.369 5.08-.475 1.686-1.287 3.346-2.366 4.865a18.396 18.396 0 0 1-3.98 4.064 17.707 17.707 0 0 1-5.176 2.682l-52.331 16.763c-1.719.55-3.365.731-4.868.586-1.504-.146-2.849-.61-3.99-1.35a7.907 7.907 0 0 1-2.709-2.979c-.647-1.228-1.021-2.679-1.06-4.311l-1.056-44.16c-.034-1.408.245-2.859.777-4.277.529-1.413 1.312-2.797 2.289-4.077a18.43 18.43 0 0 1 3.456-3.455c1.31-1 2.764-1.83 4.304-2.41l46.672-17.57Z" fill="url(#paint1_linear_2501_1522)"/><path d="M201.316 87.5c.066.19.12.433.164.694.044.26.078.54.104.804a22.59 22.59 0 0 1 .079 1.095c-.005.154-.011.308-.019.465a15.273 15.273 0 0 1-.162 1.415c-.042.178-.083.353-.128.531-.045.178-.092.354-.141.53-.048.176-.101.354-.153.53-.052.177-.108.354-.168.53-.093.289-.227.629-.386.993a24.04 24.04 0 0 1-1.123 2.244c-.195.341-.383.647-.548.887a20.71 20.71 0 0 1-2.139 2.595 30.089 30.089 0 0 1-2.603 2.396c-.92.757-1.88 1.466-2.846 2.116a36.668 36.668 0 0 1-2.874 1.754 39.48 39.48 0 0 1-2.475 1.232 33.647 33.647 0 0 1-3.354 1.319c-.42.141-.842.273-1.265.397-.424.124-.846.238-1.267.342l-.605.138a73.566 73.566 0 0 1-1.207.26l-.603.124c0 .007.007.043.017.099a10.722 10.722 0 0 1 .071.514c.011.102.019.207.023.306 0 .07-.004.142-.007.212-.004.07-.011.142-.02.214-.01.072-.019.142-.032.215a3.166 3.166 0 0 1-.042.216 1.693 1.693 0 0 1-.322.619c-.074.09-.157.174-.25.252a2.51 2.51 0 0 1-.315.224c-.065.04-.129.08-.194.118a4.816 4.816 0 0 1-.199.111c-.067.034-.134.071-.201.102-.068.03-.135.063-.202.09a2.91 2.91 0 0 1-.232.09c-.077.026-.156.048-.231.069a1.964 1.964 0 0 1-.459.063 1.572 1.572 0 0 1-.608-.105 1.39 1.39 0 0 1-.458-.304 2.079 2.079 0 0 1-.34-.46 3.568 3.568 0 0 1-.253-.573 12.304 12.304 0 0 1-.188-.556 34.028 34.028 0 0 1-.385-1.276c-.009.001-.057-.001-.132-.002l-.299-.008a21.472 21.472 0 0 1-.837-.029 24.625 24.625 0 0 1-4.985-.714 39.601 39.601 0 0 1-2.638-.867 20.91 20.91 0 0 1-.829-.363 10.3 10.3 0 0 1-.782-.407 8.037 8.037 0 0 1-.73-.479 6.077 6.077 0 0 1-.67-.58 3.007 3.007 0 0 1-.423-.512 2.221 2.221 0 0 1-.262-.566 2.26 2.26 0 0 1-.09-.65c0-.233.03-.486.093-.762.088-.385.268-.788.508-1.195.24-.407.538-.814.867-1.211.329-.398.684-.781 1.038-1.137a29.44 29.44 0 0 1 1.02-.97c.233-.21.59-.511 1.014-.854.425-.342.919-.73 1.422-1.114a50.853 50.853 0 0 1 1.483-1.094c.466-.33.886-.611 1.201-.793l.396-.23c.132-.079.263-.159.393-.24.129-.082.26-.163.389-.249.129-.085.259-.168.386-.255.018-.03.021-.135.015-.282a14.404 14.404 0 0 0-.121-1.131 11.63 11.63 0 0 0-.075-.473 8.966 8.966 0 0 1-.068-.767 89.558 89.558 0 0 1-.115-2.632 21.501 21.501 0 0 1-.012-.893 14.833 14.833 0 0 1 .063-1.1c.021-.23.051-.464.09-.67.039-.207.084-.383.141-.5a.663.663 0 0 1 .355-.34.652.652 0 0 1 .1-.036c.034-.008.068-.016.105-.022a.672.672 0 0 1 .21-.002c.402.05.765.256 1.085.564.321.307.602.712.845 1.157.244.445.447.932.613 1.396.166.464.294.911.386 1.276.056.221.113.47.167.717.054.247.11.496.157.718l.117.565c.029.146.047.24.052.256l.206-.095c.118-.055.28-.127.471-.214l.643-.29c.232-.104.479-.213.72-.318l.187-.08.181-.078c.058-.027.117-.05.175-.074l.167-.07c.257-.104.52-.203.79-.3.269-.095.543-.186.82-.274a49.007 49.007 0 0 1 1.661-.49 33.274 33.274 0 0 1 2.809-.644 22.563 22.563 0 0 1 1.597-.238c.517-.056 1-.085 1.418-.073a6.18 6.18 0 0 1 1.019.11c.331.065.65.157.943.276.294.118.564.264.797.435.233.171.428.369.574.59.136.203.243.4.321.596.077.195.125.395.143.603.018.207.009.425-.029.659a4.775 4.775 0 0 1-.202.765 5.11 5.11 0 0 1-.423.93 5.897 5.897 0 0 1-.607.86 5.542 5.542 0 0 1-.746.731 4.448 4.448 0 0 1-.845.54 6.247 6.247 0 0 1-.488.18 8.464 8.464 0 0 1-.616.173c-.21.051-.42.091-.602.113a1.313 1.313 0 0 1-.448-.006.225.225 0 0 1-.107-.065.268.268 0 0 1-.055-.11.36.36 0 0 1-.003-.135.472.472 0 0 1 .046-.145c.008-.017.05-.066.11-.135a21.212 21.212 0 0 1 .532-.55c.099-.1.197-.2.281-.283a3.473 3.473 0 0 0 .321-.377c.031-.044.065-.089.094-.135a5.26 5.26 0 0 0 .182-.284c.055-.094.104-.188.143-.277.039-.089.067-.18.079-.262a.607.607 0 0 0-.011-.242.467.467 0 0 0-.158-.233.735.735 0 0 0-.265-.13 1.622 1.622 0 0 0-.332-.052 2.895 2.895 0 0 0-.359.004c-.56.034-1.25.132-2 .27-.75.139-1.558.32-2.36.52-.803.2-1.596.42-2.319.636a29.789 29.789 0 0 0-2.497.858l-.606.236-.468.183-.21.082 2.024 10.317.182-.044.412-.099.545-.134c.194-.048.392-.1.581-.15.109-.03.305-.091.542-.17.238-.079.523-.17.807-.268.284-.097.57-.194.815-.279.244-.085.448-.159.569-.207l.281-.113.28-.116c.095-.038.189-.078.283-.117.094-.038.188-.079.284-.119.835-.354 1.681-.74 2.526-1.16a36.486 36.486 0 0 0 2.509-1.365 30.209 30.209 0 0 0 2.405-1.591 24.083 24.083 0 0 0 3.194-2.81c.315-.332.619-.671.906-1.02.286-.348.556-.701.805-1.065s.477-.734.68-1.114a9.693 9.693 0 0 0 .668-1.547 8.734 8.734 0 0 0 .367-1.583 7.893 7.893 0 0 0 .055-1.57 6.726 6.726 0 0 0-.274-1.503 5.922 5.922 0 0 0-.742-1.533 9.341 9.341 0 0 0-1.129-1.378 12.98 12.98 0 0 0-1.317-1.163 14.057 14.057 0 0 0-1.305-.895c-1.087-.652-2.318-1.187-3.641-1.617a27.829 27.829 0 0 0-4.175-.987 37.956 37.956 0 0 0-4.391-.437 41.517 41.517 0 0 0-4.301.04c-1.413.084-2.809.22-4.195.411a51.065 51.065 0 0 0-4.129.743 50.07 50.07 0 0 0-4.108 1.1 54.3 54.3 0 0 0-4.328 1.564c-.069.03-.14.059-.215.09l-.23.099-.245.107a45.73 45.73 0 0 0-1.29.593c-.456.218-.931.453-1.395.693-.464.239-.916.488-1.33.731-.414.243-.788.483-1.097.707-.054.039-.107.08-.161.118l-.16.12c-.054.038-.104.077-.156.114a5.759 5.759 0 0 1-.153.105 2.26 2.26 0 0 0-.24.191c-.038.034-.078.069-.113.104l-.109.111c-.016.027-.022.046-.021.062.001.017.011.027.027.035a.144.144 0 0 0 .056.014c.022.002.046.002.069.002.044-.001.122-.018.219-.046a8.39 8.39 0 0 0 .333-.105l.368-.122c.12-.038.233-.075.323-.098a1.447 1.447 0 0 1 .489-.049c.076.005.147.02.209.043a.413.413 0 0 1 .156.096.604.604 0 0 1 .097.115.335.335 0 0 1 .042.267.683.683 0 0 1-.064.166.979.979 0 0 1-.199.248c-.085.08-.189.162-.304.236a4.951 4.951 0 0 1-.372.218 6.666 6.666 0 0 1-.674.307c-.089.034-.172.068-.254.097l-.233.08a6.871 6.871 0 0 1-.682.181 2.891 2.891 0 0 1-.476.059c-.15.004-.287-.011-.399-.056a.456.456 0 0 1-.254-.222 1.131 1.131 0 0 1-.103-.418c-.01-.147 0-.304.026-.465.026-.162.068-.329.118-.496.049-.167.109-.334.17-.502a5.98 5.98 0 0 1 .432-.938c.166-.291.356-.565.572-.825.217-.26.456-.51.724-.751.267-.24.563-.476.886-.71a44.219 44.219 0 0 1 2.949-1.944 41.444 41.444 0 0 1 3.05-1.672l.275-.131.274-.128.275-.126.273-.121c.927-.411 1.852-.78 2.777-1.108a40.856 40.856 0 0 1 2.783-.879 47.54 47.54 0 0 1 2.81-.684c.942-.2 1.895-.372 2.857-.524a48.977 48.977 0 0 1 1.94-.265 60.745 60.745 0 0 1 4.188-.347c.681-.033 1.336-.05 1.94-.05.434-.003.932.006 1.461.026a60.93 60.93 0 0 1 3.268.211c.514.048.989.102 1.388.155.126.018.406.068.766.137.359.07.795.155 1.231.243.436.087.872.178 1.228.253.356.075.634.138.752.171a32.684 32.684 0 0 1 1.644.49 26.112 26.112 0 0 1 1.628.58 22.683 22.683 0 0 1 3.024 1.476c.505.294.995.61 1.44.935.445.325.849.66 1.183.993.08.082.156.164.23.246.074.083.152.166.23.252a8.537 8.537 0 0 0 .525.524c.035.03.101.104.184.2.083.097.182.22.279.344.098.124.198.256.28.37.083.115.149.215.182.282l.107.206.108.206c.032.064.064.12.087.16.024.041.04.067.044.069.014.035.047.112.092.21.044.096.099.219.153.347.054.127.108.263.153.386.044.123.078.238.091.325l.008.014Zm-30.884 21.015c.179-.004.386-.015.592-.027.206-.012.418-.025.608-.038.189-.012.357-.027.483-.037l.222-.017c-.006-.038-.048-.242-.112-.576a175.48 175.48 0 0 1-.946-5.356c-.063-.389-.121-.771-.177-1.13a170.83 170.83 0 0 1-.146-.974c-.043-.284-.077-.522-.102-.694a12.802 12.802 0 0 0-.043-.298c-.019.011-.131.066-.302.154-.171.088-.404.205-.668.341-.265.136-.559.289-.857.444a58.43 58.43 0 0 0-.872.464c-.351.188-.774.428-1.235.702a56.08 56.08 0 0 0-1.462.896c-.502.319-1.003.65-1.471.975-.468.326-.9.646-1.261.94-.108.087-.246.2-.39.33a6.599 6.599 0 0 0-.432.423c-.137.15-.261.3-.352.445a.845.845 0 0 0-.151.404.809.809 0 0 0 .22.585c.068.075.15.14.239.203s.187.119.285.178c.058.034.18.092.336.163a34.721 34.721 0 0 0 1.105.47c.172.067.318.124.404.154.367.118.824.235 1.336.344a26.182 26.182 0 0 0 3.456.487c.592.042 1.17.06 1.695.045" fill="#17498D"/><path d="m220.045 109.987.013-.195.006-.098c0-.013 0-.024.002-.037l.007-.202.004-.127.001-.219v-.11c0-.094-.002-.188-.006-.282v-.046a9.077 9.077 0 0 0-.018-.327v-.008a8.563 8.563 0 0 0-.018-.23l-.003-.039-.008-.077-.011-.114-.012-.098-.01-.082-.006-.05-.033-.229-6.845-44.672-.014-.091-.015-.09c-.005-.03-.01-.06-.017-.09l-.017-.09-.013-.057-.011-.057c-.008-.038-.015-.077-.024-.115l-.055-.224-.01-.039-.003-.018c-.003-.01-.007-.019-.009-.029l-.037-.134a6.38 6.38 0 0 0-.066-.216l-.007-.024-.009-.028-.046-.137-.066-.186a1.443 1.443 0 0 0-.018-.043c-.003-.005-.004-.011-.006-.016l-.009-.022-.039-.1-.076-.18a5.03 5.03 0 0 0-.031-.066l-.016-.036-.029-.063c-.025-.054-.052-.107-.078-.16-.019-.04-.04-.078-.06-.116l-.007-.014-.005-.007a11.408 11.408 0 0 0-.098-.177l-.075-.132a.297.297 0 0 1-.019-.031l-.013-.022-.047-.077a4.514 4.514 0 0 0-.081-.128l-.083-.125-2.862-4.2c.073.108.144.219.212.33l.013.022c.066.111.13.224.19.34l.012.023c.058.111.113.225.166.34l.017.035c.05.114.1.23.145.347l.015.038c.047.12.09.243.13.367l.009.028c.039.124.076.249.11.375l.013.047a6.832 6.832 0 0 1 .099.435c.028.138.054.278.075.42l6.713 44.953c.013.094.026.187.037.281l.011.082.022.214.008.078c.007.094.015.186.021.28.007.11.013.22.017.33v.048c.002.094.005.189.005.282v.112c0 .073 0 .146-.003.22 0 .043-.002.084-.005.127a6.806 6.806 0 0 1-.017.34l-.014.196-.013.14-.019.192-.016.143-.024.191-.021.144a3.73 3.73 0 0 1-.029.189 3.143 3.143 0 0 1-.024.14c-.012.074-.026.147-.04.222l-.024.126c-.016.082-.034.163-.052.246l-.021.101a21.513 21.513 0 0 1-.098.395 12.92 12.92 0 0 1-.079.293l-.041.139-.055.186-.046.143a9.687 9.687 0 0 1-.059.182l-.049.144-.063.181a8.459 8.459 0 0 0-.053.145c-.023.059-.045.119-.069.178a8.538 8.538 0 0 0-.056.144l-.072.177-.061.143c-.025.06-.051.118-.077.176-.022.047-.042.095-.063.142-.027.058-.055.117-.081.176l-.067.14-.086.176-.067.134-.116.224-.057.109c-.052.097-.105.193-.159.289l-.022.038a27.46 27.46 0 0 1-.189.327l-.057.092c-.047.077-.093.153-.141.229l-.098.153-.078.123c-.037.055-.073.111-.111.165l-.076.113c-.04.061-.083.12-.125.18l-.064.092c-.131.183-.266.366-.403.544l-.026.033c-.131.171-.268.339-.405.506l-.037.044c-.143.17-.288.338-.438.504l-.028.03a17.976 17.976 0 0 1-.965.985l-.03.03a19.821 19.821 0 0 1-1.055.923l-.033.027c-.177.143-.356.282-.539.418l-.053.04-.226.165-.038.028c-.086.062-.173.123-.262.184l-.069.046a8.27 8.27 0 0 1-.218.146l-.06.04a24.465 24.465 0 0 1-.552.347l-.077.047c-.093.055-.186.11-.279.163l-.035.019-.25.14-.091.05-.216.115-.078.041c-.097.051-.196.1-.294.15l-.057.028-.244.117a2.375 2.375 0 0 1-.103.048c-.069.032-.137.064-.206.094l-.108.048-.197.085-.129.054c-.072.031-.145.06-.218.089l-.105.043c-.109.043-.216.083-.326.124l-.042.015c-.099.037-.2.073-.302.107l-.013.005c-.114.04-.229.078-.344.114l-52.331 16.763c-.11.036-.219.068-.327.1l-.091.027c-.086.025-.172.048-.259.072l-.075.02a9.692 9.692 0 0 1-.316.078c-.043.011-.086.019-.127.03a9.226 9.226 0 0 1-.355.074c-.067.013-.134.027-.201.038a6.246 6.246 0 0 1-.145.025c-.065.012-.13.022-.195.032l-.145.022-.192.025-.144.018-.192.02a3.45 3.45 0 0 1-.14.012 4.215 4.215 0 0 1-.194.014c-.045.003-.089.007-.135.009a6.754 6.754 0 0 1-.201.009l-.122.005c-.077.003-.154.003-.231.004h-.09c-.106 0-.212-.001-.317-.005-.022 0-.042-.003-.063-.003a6.712 6.712 0 0 1-.249-.011l-.112-.008c-.066-.005-.132-.008-.198-.015l-.123-.012c-.061-.007-.122-.013-.182-.021l-.128-.016-.174-.025a34.64 34.64 0 0 1-.128-.021c-.057-.01-.113-.019-.169-.03l-.126-.024a4.545 4.545 0 0 1-.168-.036 8.248 8.248 0 0 1-.292-.068l-.119-.03c-.058-.015-.115-.032-.172-.048a5.331 5.331 0 0 1-.299-.093 1.391 1.391 0 0 1-.085-.027c-.091-.031-.18-.064-.27-.097-.013-.005-.024-.01-.037-.013-.077-.03-.154-.06-.228-.092-.031-.012-.061-.026-.091-.039-.057-.024-.114-.048-.169-.073-.035-.015-.069-.032-.103-.048-.045-.022-.091-.043-.136-.066a8.037 8.037 0 0 1-.411-.216l-.069-.04a8.177 8.177 0 0 1-.391-.24l-.061-.042a6.81 6.81 0 0 1-.379-.269l-.042-.033a6.995 6.995 0 0 1-.379-.309l3.805 3.313a7.908 7.908 0 0 0 .797.609l.062.042c.127.083.256.163.389.24.022.013.045.027.068.039.134.076.269.148.408.217.008.003.015.008.023.012l.112.053a1.35 1.35 0 0 0 .102.048c.056.026.113.05.17.075.03.013.059.027.089.039a7.21 7.21 0 0 0 .533.201l.084.028c.063.02.126.042.191.061l.107.032.172.049.117.03.167.042.122.028.095.021.071.014.126.026.168.03.072.013a8.968 8.968 0 0 0 .229.034l.126.017c.06.008.12.014.181.021l.122.012c.065.007.13.012.196.017l.111.009c.082.005.165.009.247.012l.064.003c.104.004.208.006.315.006h.089l.202-.001h.027c.04 0 .081-.003.121-.004l.2-.007.134-.009.19-.014.051-.004.088-.009.191-.019.142-.016.19-.024c.048-.007.096-.013.143-.021l.193-.03.143-.024c.067-.011.133-.024.2-.037l.139-.026c.07-.014.141-.031.213-.046l.128-.028.025-.005c.085-.02.17-.04.256-.062a.192.192 0 0 0 .032-.009l.073-.018.152-.041.103-.029c.031-.009.061-.018.091-.025l.065-.018c.086-.025.173-.052.259-.08l51.781-16.391.099-.031.097-.032c.033-.011.066-.021.098-.033l.045-.015.014-.005.038-.013a7.73 7.73 0 0 0 .255-.091l.047-.016h.002l.303-.114c.005-.003.011-.004.016-.006l.106-.042c.059-.024.12-.047.179-.072l.035-.015.127-.054.136-.057.06-.026.106-.047.096-.043.107-.049.102-.048.048-.023c.065-.03.128-.062.192-.092l.057-.028c.003 0 .005-.003.008-.004l.254-.128.029-.015c.026-.014.051-.028.078-.041l.128-.067.086-.046.089-.048.057-.031a7.277 7.277 0 0 0 .225-.128l.004-.002c.075-.043.151-.087.227-.133l.044-.026.075-.046.096-.058.12-.075.064-.04.029-.018c.071-.044.142-.09.211-.135.009-.005.017-.012.024-.017a.735.735 0 0 0 .058-.039l.127-.084.091-.062.067-.045c.015-.01.03-.02.045-.032l.201-.14.012-.009a.39.39 0 0 1 .036-.025c.05-.036.101-.072.15-.109l.076-.056.037-.026a.174.174 0 0 0 .015-.013c.022-.018.046-.034.069-.052l.194-.148c.064-.049.127-.1.19-.15l.079-.064.031-.025.078-.063c.064-.052.126-.103.187-.155l.189-.16.06-.053a6.516 6.516 0 0 1 .124-.109c.062-.054.123-.11.183-.165l.181-.167.04-.037.029-.028.115-.109c.061-.058.122-.118.181-.177.059-.06.12-.119.178-.18l.009-.009.011-.011.156-.161a8.39 8.39 0 0 0 .182-.195l.119-.131.028-.03c.01-.012.022-.023.032-.036l.175-.198.174-.202.051-.062.037-.044.096-.115a12.533 12.533 0 0 0 .304-.385.712.712 0 0 1 .026-.031l.025-.033a15.614 15.614 0 0 0 .359-.488l.011-.017.005-.007.059-.086.107-.154.015-.022.075-.113a9.84 9.84 0 0 0 .088-.129l.021-.034.077-.12.073-.114.024-.038.139-.226.046-.075.01-.017c.063-.107.126-.213.187-.322l.002-.004.019-.034.157-.286.014-.025.042-.081c.039-.074.077-.148.113-.222l.024-.046.042-.086.085-.175.064-.138.08-.175c.01-.022.021-.044.03-.067l.032-.073.074-.173.059-.143a12.83 12.83 0 0 0 .105-.258l.023-.06c.023-.058.044-.117.066-.176a4.68 4.68 0 0 1 .053-.142l.062-.178c.011-.032.024-.065.034-.098l.014-.045.058-.179.045-.143.055-.182.032-.112.008-.026.009-.032a8.18 8.18 0 0 0 .068-.258l.013-.045v-.005a11.156 11.156 0 0 0 .084-.358l.018-.084a10.393 10.393 0 0 0 .058-.281l.015-.087c.014-.072.027-.146.039-.218.004-.02.008-.039.01-.059.006-.027.008-.055.013-.081l.028-.187.02-.145.023-.187.01-.083.005-.06.018-.189c.003-.047.009-.094.011-.141l.001-.005Z" fill="#B2B2B2"/></g><g filter="url(#filter2_d_2501_1522)"><path d="m214.087 335.794-.012-.232a26.008 26.008 0 0 0-.062-.88l-.533-5.721c.028.297.047.594.065.892l.012.237c.012.26.019.519.023.779l.003.122c.002.293-.002.587-.011.88-.002.074-.006.152-.007.226-.01.245-.024.488-.041.731l-.012.184c-.022.29-.051.583-.084.873l-.025.202c-.029.238-.062.477-.098.715a29.865 29.865 0 0 1-.188 1.076c-.01.05-.022.101-.034.153-.05.242-.105.486-.162.731-.017.075-.037.151-.056.229a24.64 24.64 0 0 1-.227.857c-.006.022-.014.044-.019.065a25.737 25.737 0 0 1-.592 1.79.873.873 0 0 0-.026.077c-.106.283-.219.562-.336.84l-.102.238c-.088.205-.18.411-.274.615l-.118.255c-.115.238-.23.477-.353.712l-.053.109c-.138.269-.285.535-.435.802l-.128.223c-.113.198-.229.394-.35.59-.049.08-.098.162-.15.241-.141.224-.286.449-.435.67l-.071.109-.088.124a25.96 25.96 0 0 1-1.45 1.916c-.075.089-.15.182-.225.272-.268.317-.545.631-.831.937-.031.032-.065.065-.096.099a25.13 25.13 0 0 1-.793.807c-.162.159-.327.317-.494.475-.04.039-.081.076-.123.115-.232.213-.468.421-.706.628-.061.051-.124.102-.184.154-.192.163-.389.322-.587.482l-.196.156c-.251.196-.505.39-.764.581l-.12.084a25.469 25.469 0 0 1-.916.634 33.06 33.06 0 0 1-.723.465l-.112.069c-.176.109-.355.211-.534.315-.14.084-.278.166-.421.248-.191.107-.385.209-.58.312-.134.072-.266.146-.402.215-.217.113-.439.219-.661.325-.118.055-.232.115-.35.171-.343.16-.687.314-1.039.463l-104.446 44.12a29.4 29.4 0 0 1-9.73 2.288 27.737 27.737 0 0 1-9.386-1.044 25.921 25.921 0 0 1-8.194-4.04 24.335 24.335 0 0 1-6.186-6.683l2.979 4.778a24.032 24.032 0 0 0 6.098 6.597 25.603 25.603 0 0 0 8.074 3.989 27.333 27.333 0 0 0 9.242 1.037 28.831 28.831 0 0 0 9.575-2.251l102.775-43.435c.343-.145.68-.295 1.016-.451l.007-.001c.114-.053.224-.112.337-.166.214-.105.432-.207.643-.315l.013-.008c.138-.071.269-.147.404-.219.181-.097.364-.192.541-.291.008-.002.014-.008.021-.012.138-.078.273-.16.411-.243.168-.097.335-.194.5-.293l.032-.019.107-.069a29.87 29.87 0 0 0 .941-.613l.209-.142c.157-.109.312-.219.467-.331.039-.029.079-.055.117-.083.215-.159.431-.319.64-.481.038-.028.074-.059.114-.09l.193-.154c.196-.156.389-.315.579-.475.038-.034.08-.065.119-.099l.059-.054.098-.082a29.737 29.737 0 0 0 .719-.65c.125-.118.253-.235.377-.356.038-.036.073-.077.111-.113.265-.26.527-.525.78-.796.024-.028.055-.052.079-.08a26.494 26.494 0 0 0 .833-.941c.024-.03.054-.057.078-.088.049-.058.094-.122.145-.181.194-.235.383-.472.568-.713.044-.057.093-.114.137-.172.032-.042.058-.084.09-.126.216-.288.426-.583.63-.879.021-.033.047-.064.068-.096l.018-.027.071-.107c.147-.217.288-.439.427-.66.021-.032.045-.065.065-.1.028-.047.054-.094.083-.138l.153-.249c.065-.111.126-.221.192-.332.043-.073.086-.146.126-.221.141-.254.283-.509.416-.767.004-.009.007-.017.013-.023l.052-.103a18.443 18.443 0 0 0 .463-.959c.042-.09.084-.178.124-.268.049-.113.096-.228.144-.34.034-.079.068-.155.1-.233.111-.269.219-.537.322-.808l.008-.023c.01-.025.017-.052.027-.077a22.798 22.798 0 0 0 .34-.983 29.131 29.131 0 0 0 .261-.844c.064-.223.123-.448.182-.674l.04-.172.025-.097c.011-.044.017-.086.029-.127.056-.239.109-.48.16-.72.009-.051.021-.102.031-.152.057-.283.106-.566.152-.852l.032-.211c.017-.111.036-.222.05-.335.017-.123.031-.249.046-.372a19.448 19.448 0 0 0 .105-1.058c.006-.06.008-.119.013-.182.017-.241.03-.481.037-.72.002-.074.007-.149.009-.224l.006-.149c.005-.241.008-.479.005-.721l-.003-.119a27.887 27.887 0 0 0-.023-.768l.001.004Z" fill="#B2B2B2"/><path d="M133.761 220.941a29.773 29.773 0 0 1 10.096-2.267c3.367-.153 6.676.28 9.746 1.243 3.071.964 5.922 2.461 8.345 4.44 2.432 1.982 4.446 4.447 5.855 7.34l43.342 88.982a23.885 23.885 0 0 1 2.43 9.971 24.476 24.476 0 0 1-1.861 9.852 26.391 26.391 0 0 1-5.74 8.582c-2.508 2.516-5.595 4.632-9.167 6.141L92.361 399.344c-3.6 1.52-7.306 2.274-10.922 2.335a27.43 27.43 0 0 1-10.354-1.818c-3.228-1.247-6.15-3.1-8.597-5.489a24.104 24.104 0 0 1-5.69-8.659l-35.643-92.804a21.256 21.256 0 0 1-1.34-9.274c.234-3.1 1.117-6.164 2.556-9.024 1.44-2.853 3.435-5.505 5.904-7.788a29.636 29.636 0 0 1 8.74-5.585l96.746-40.297Z" fill="url(#paint2_linear_2501_1522)"/><path d="m103.196 281.458-.277.127c-.093.042-.19.082-.283.12a7.56 7.56 0 0 1-.289.115c-.097.037-.191.076-.288.112-.079-.122-.154-.245-.231-.371-.076-.126-.149-.256-.223-.386a12.574 12.574 0 0 1-.424-.822 15.444 15.444 0 0 1-1.109-3.282 18.082 18.082 0 0 1-.409-3.601c-.02-1.242.075-2.511.29-3.796.216-1.286.547-2.581.998-3.872a18.05 18.05 0 0 1 .778-1.932c.3-.638.634-1.271 1.009-1.897.376-.626.791-1.248 1.243-1.866a27.95 27.95 0 0 1 1.47-1.833c.458-.544.946-1.068 1.454-1.569a23.283 23.283 0 0 1 3.338-2.712 23.943 23.943 0 0 1 1.857-1.126c.084.131.167.266.248.398.081.132.157.269.232.406.075.137.151.274.22.412.068.139.14.277.21.419a16.732 16.732 0 0 1 1.66 6.703c.047 1.181-.022 2.4-.208 3.65a24.77 24.77 0 0 1-.903 3.846 27.379 27.379 0 0 1-1.715 4.132 22.238 22.238 0 0 1-2.296 3.571 18.017 18.017 0 0 1-2.883 2.906 16.937 16.937 0 0 1-3.466 2.144l-.003.004ZM154.269 305.761a24.988 24.988 0 0 0 8.603.948 49.3 49.3 0 0 1 .301 3.937 52.401 52.401 0 0 1-.007 3.964 51.527 51.527 0 0 1-.95 7.942 99.507 99.507 0 0 1-.744 3.395 63.699 63.699 0 0 1-.757 2.896 37.767 37.767 0 0 1-.77 2.397 20.126 20.126 0 0 1-.781 1.895 18.487 18.487 0 0 1-1.32 2.442 15.154 15.154 0 0 1-1.595 2.065 13.39 13.39 0 0 1-1.871 1.685c-.67.497-1.385.935-2.144 1.309-.552.255-1.15.484-1.796.693-.646.209-1.335.39-2.07.548-.735.157-1.519.292-2.345.402-.826.111-1.698.194-2.613.253-.92.063-1.804.157-2.655.281-.851.124-1.67.275-2.455.456a23.89 23.89 0 0 0-2.255.636c-.719.242-1.403.511-2.054.811-.753.361-1.485.76-2.199 1.187a27.554 27.554 0 0 0-4.011 2.928 28.46 28.46 0 0 0-1.786 1.721 48.109 48.109 0 0 1-1.887 1.825 32.977 32.977 0 0 1-1.756 1.505c-.566.448-1.108.847-1.626 1.19a14.572 14.572 0 0 1-1.595.925c-.03.019-.066.032-.098.048l-.098.047-.099.047c-.708.325-1.448.573-2.222.745-.774.171-1.586.267-2.429.286-.843.018-1.72-.04-2.633-.178a21.037 21.037 0 0 1-2.84-.635 23.476 23.476 0 0 1-2.12-.661 41.734 41.734 0 0 1-2.476-.992 66.935 66.935 0 0 1-2.834-1.318 96.634 96.634 0 0 1-3.188-1.645 50.474 50.474 0 0 1-3.554-2.08 55.162 55.162 0 0 1-3.453-2.406 59.494 59.494 0 0 1-3.357-2.731 60.729 60.729 0 0 1-6.484-6.575 52.213 52.213 0 0 1-2.805-3.624 48.637 48.637 0 0 1-2.384-3.723 43.58 43.58 0 0 1-1.96-3.825 37.44 37.44 0 0 1-1.676-4.405 31.841 31.841 0 0 1-1.017-4.318 28.12 28.12 0 0 1-.359-4.238 25.994 25.994 0 0 1 .302-4.159c.148-1.069.362-2.13.648-3.174a25.652 25.652 0 0 1 2.515-6.024 26.612 26.612 0 0 1 1.838-2.774 26.857 26.857 0 0 1 4.596-4.782c.863-.7 1.768-1.352 2.717-1.947a28.346 28.346 0 0 1 2.95-1.616 16.48 16.48 0 0 1 1.905-.729c.696-.222 1.46-.43 2.285-.615a40.167 40.167 0 0 1 2.665-.501c.952-.147 1.97-.279 3.05-.388 1.075-.112 2.051-.223 2.927-.335a63.831 63.831 0 0 0 2.318-.339 23.07 23.07 0 0 0 1.709-.346 6.55 6.55 0 0 0 1.097-.356c.194-.09.484-.281.869-.571.385-.29.862-.679 1.433-1.171a95.574 95.574 0 0 0 1.995-1.771c.758-.691 1.609-1.482 2.555-2.372a50.07 50.07 0 0 1 2.269-1.993 38.08 38.08 0 0 1 2.192-1.684c.721-.51 1.422-.969 2.116-1.376a23.432 23.432 0 0 1 2.04-1.071c.112-.05.224-.101.333-.148l.331-.14c.11-.047.22-.09.33-.133.11-.044.218-.083.325-.125 2.055-.768 4.058-1.341 6.002-1.713a28.005 28.005 0 0 1 5.676-.523c1.838.026 3.62.245 5.349.667a23.463 23.463 0 0 1 5.028 1.867c-1.304 1.797-2.334 3.589-3.093 5.378-.759 1.788-1.247 3.577-1.46 5.361a17.58 17.58 0 0 0 .179 5.347c.334 1.779.939 3.562 1.825 5.335a21.835 21.835 0 0 0 2.388 3.79 19.58 19.58 0 0 0 3.03 3.08 20.03 20.03 0 0 0 3.674 2.362 23.278 23.278 0 0 0 4.317 1.637l-.001-.003Z" fill="#373737"/></g><defs><linearGradient id="paint0_linear_2501_1522" x1="60.639" y1="44.178" x2="27.573" y2="22.243" gradientUnits="userSpaceOnUse"><stop stop-color="#fff"/><stop offset="1" stop-color="#F0F0F0"/></linearGradient><linearGradient id="paint1_linear_2501_1522" x1="211.499" y1="83.761" x2="146.543" y2="98.692" gradientUnits="userSpaceOnUse"><stop stop-color="#fff"/><stop offset="1" stop-color="#F0F0F0"/></linearGradient><linearGradient id="paint2_linear_2501_1522" x1="188.332" y1="272.197" x2="52.358" y2="342.4" gradientUnits="userSpaceOnUse"><stop stop-color="#F9F9F9"/><stop offset="1" stop-color="#F0F0F0"/></linearGradient><filter id="filter0_df_2501_1522" x=".489" y="8.118" width="141.349" height="132.159" filterUnits="userSpaceOnUse" color-interpolation-filters="sRGB"><feFlood flood-opacity="0" result="BackgroundImageFix"/><feColorMatrix in="SourceAlpha" values="0 0 0 0 0 0 0 0 0 0 0 0 0 0 0 0 0 0 127 0" result="hardAlpha"/><feOffset dx="30" dy="40"/><feGaussianBlur stdDeviation="20"/><feComposite in2="hardAlpha" operator="out"/><feColorMatrix values="0 0 0 0 0 0 0 0 0 0 0 0 0 0 0 0 0 0 0.1 0"/><feBlend in2="BackgroundImageFix" result="effect1_dropShadow_2501_1522"/><feBlend in="SourceGraphic" in2="effect1_dropShadow_2501_1522" result="shape"/><feGaussianBlur stdDeviation="1.5" result="effect2_foregroundBlur_2501_1522"/></filter><filter id="filter1_df_2501_1522" x="129.049" y="49.971" width="161.029" height="170.943" filterUnits="userSpaceOnUse" color-interpolation-filters="sRGB"><feFlood flood-opacity="0" result="BackgroundImageFix"/><feColorMatrix in="SourceAlpha" values="0 0 0 0 0 0 0 0 0 0 0 0 0 0 0 0 0 0 127 0" result="hardAlpha"/><feOffset dx="30" dy="40"/><feGaussianBlur stdDeviation="20"/><feComposite in2="hardAlpha" operator="out"/><feColorMatrix values="0 0 0 0 0 0 0 0 0 0 0 0 0 0 0 0 0 0 0.1 0"/><feBlend in2="BackgroundImageFix" result="effect1_dropShadow_2501_1522"/><feBlend in="SourceGraphic" in2="effect1_dropShadow_2501_1522" result="shape"/><feGaussianBlur stdDeviation="1" result="effect2_foregroundBlur_2501_1522"/></filter><filter id="filter2_d_2501_1522" x="9.752" y="218.644" width="274.361" height="267.675" filterUnits="userSpaceOnUse" color-interpolation-filters="sRGB"><feFlood flood-opacity="0" result="BackgroundImageFix"/><feColorMatrix in="SourceAlpha" values="0 0 0 0 0 0 0 0 0 0 0 0 0 0 0 0 0 0 127 0" result="hardAlpha"/><feOffset dx="30" dy="40"/><feGaussianBlur stdDeviation="20"/><feComposite in2="hardAlpha" operator="out"/><feColorMatrix values="0 0 0 0 0 0 0 0 0 0 0 0 0 0 0 0 0 0 0.1 0"/><feBlend in2="BackgroundImageFix" result="effect1_dropShadow_2501_1522"/><feBlend in="SourceGraphic" in2="effect1_dropShadow_2501_1522" result="shape"/></filter></defs></svg>