<svg xmlns="http://www.w3.org/2000/svg" width="24" height="24" viewBox="0 0 24 24" fill="none">
<path d="M16.5003 4H7.49867C6.57066 4.00028 5.68077 4.36913 5.02467 5.02543C4.36857 5.68172 4 6.57173 4 7.49973V16.5003C4 17.4285 4.36872 18.3186 5.02505 18.975C5.68138 19.6313 6.57155 20 7.49973 20H16.5003C17.4285 20 18.3186 19.6313 18.975 18.975C19.6313 18.3186 20 17.4285 20 16.5003V7.49867C19.9997 6.57066 19.6309 5.68077 18.9746 5.02467C18.3183 4.36857 17.4283 4 16.5003 4Z" fill="#FF6600"/>
<path d="M14.2496 10.4046C13.9574 11.1779 13.0849 12.4668 12.7348 13.0028C12.4998 13.3574 12.2739 13.705 12.1108 14.0401C11.9435 14.3752 11.8426 14.6916 11.8376 14.9876C11.8567 17.3217 17.0026 13.8987 18 12.9894C16.5275 13.8338 14.9449 14.6463 13.1951 14.8009C12.7108 14.8329 12.7588 14.4987 13.0412 13.9832C13.6983 12.8028 14.9499 11.1655 14.9929 9.9984C15.0706 8.47755 13.9235 7.98779 12.744 8.00023C11.9238 8.01979 11.0753 8.32911 10.495 8.60644C8.50022 9.54774 7.24375 11.0561 6.45246 12.7192C5.6181 14.3689 5.89128 15.9484 7.66093 16C9.01834 15.9289 9.9007 15.4267 10.8212 14.8009C10.8261 14.8009 8.27999 15.768 7.33975 15.0587C7.27323 15.0372 7.21206 14.9951 7.16187 14.936C7.14281 14.9103 7.12869 14.8845 7.11458 14.8649C7.09752 14.8066 7.08453 14.7465 7.07575 14.6854C7.07081 14.0916 7.80493 13.4792 8.21716 13.2863V12.2872C9.06634 12.6872 10.0638 12.5645 10.9221 11.7201C10.9595 11.8342 10.974 11.9582 10.9645 12.081H11.1183C11.1572 11.681 10.9461 11.3006 10.62 11.2686C10.7111 11.3779 10.7873 11.4624 10.8212 11.5326C10.8212 11.5459 10.7972 11.5655 10.7972 11.5655C9.68893 12.6028 8.62022 12.1254 8.51928 12.0872L9.1334 11.2686L8.9654 10.6882C10.183 10.1211 11.2101 9.68374 12.8739 9.29619L12.4998 8.88376L12.696 8.72288C13.7033 9.10242 14.3647 9.37352 14.3266 10.0891" fill="white"/>
</svg>