<svg xmlns="http://www.w3.org/2000/svg" width="24" height="24" viewBox="0 0 24 24" fill="none">
<path d="M16.5003 4H7.49867C6.57066 4.00028 5.68077 4.36913 5.02467 5.02543C4.36857 5.68172 4 6.57173 4 7.49973V16.5003C4 17.4285 4.36872 18.3186 5.02505 18.975C5.68138 19.6313 6.57155 20 7.49973 20H16.5003C17.4285 20 18.3186 19.6313 18.975 18.975C19.6313 18.3186 20 17.4285 20 16.5003V7.49867C19.9997 6.57066 19.6309 5.68077 18.9746 5.02467C18.3183 4.36857 17.4283 4 16.5003 4Z" fill="#F1F1F1"/>
<path d="M15.4527 15.4257C11.5582 17.2791 9.14123 15.7281 7.59429 14.7866C7.49808 14.7268 7.3359 14.8003 7.47747 14.9625C7.99288 15.5879 9.68138 17.0936 11.8867 17.0936C14.0926 17.0936 15.4052 15.8903 15.5702 15.68C15.733 15.4717 15.6176 15.357 15.4527 15.4257ZM16.5467 14.8209C16.4423 14.6856 15.911 14.6601 15.5764 14.7014C15.2417 14.7412 14.7386 14.9453 14.7826 15.0683C14.8046 15.1144 14.8506 15.0938 15.0809 15.0731C15.3118 15.0505 15.9578 14.9687 16.0925 15.1446C16.2278 15.3219 15.8863 16.1665 15.8244 16.3026C15.764 16.4387 15.8471 16.4744 15.9605 16.383C16.0718 16.2923 16.2739 16.0579 16.4093 15.7253C16.544 15.3913 16.6264 14.9247 16.5467 14.8209Z" fill="#FF9900"/>
<path fill-rule="evenodd" clip-rule="evenodd" d="M12.8852 11.2932C12.8852 11.8166 12.8978 12.2533 12.6335 12.7189C12.4196 13.0964 12.0813 13.3296 11.7031 13.3296C11.1864 13.3296 10.8859 12.9365 10.8859 12.3555C10.8859 11.2096 11.9126 11.0016 12.8845 11.0016V11.2925L12.8852 11.2932ZM14.2406 14.5702C14.1971 14.607 14.1434 14.6298 14.0867 14.6355C14.03 14.6412 13.9729 14.6295 13.923 14.602C13.4767 14.2319 13.3975 14.0594 13.1517 13.7063C12.4137 14.4584 11.8919 14.6834 10.9348 14.6834C9.80445 14.6834 8.92285 13.9861 8.92285 12.5886C8.92285 11.4968 9.51502 10.7536 10.3566 10.3902C11.0865 10.0689 12.1058 10.0127 12.8852 9.92385V9.7499C12.8852 9.43013 12.9096 9.05188 12.7224 8.77578C12.5573 8.5278 12.2442 8.42565 11.9674 8.42565C11.4551 8.42565 10.9977 8.68843 10.8866 9.23323C10.863 9.35462 10.7741 9.4738 10.6535 9.47898L9.34848 9.33908C9.23892 9.31465 9.11753 9.22583 9.14862 9.0578C9.44766 7.4767 10.8755 7 12.1539 7C12.8082 7 13.6639 7.17395 14.1799 7.66915C14.8342 8.28057 14.772 9.09555 14.772 9.98233V12.0771C14.772 12.7071 15.0326 12.9839 15.2783 13.3237C15.3649 13.4451 15.3842 13.5901 15.2746 13.6812C15.0008 13.9106 14.5122 14.3355 14.2435 14.5739L14.2398 14.5702" fill="#2F3037"/>
</svg>