<svg xmlns="http://www.w3.org/2000/svg" width="24" height="24" viewBox="0 0 24 24" fill="none">
<path d="M16.5003 4H7.49867C6.57066 4.00028 5.68077 4.36913 5.02467 5.02543C4.36857 5.68172 4 6.57173 4 7.49973V16.5003C4 17.4285 4.36872 18.3186 5.02505 18.975C5.68138 19.6313 6.57155 20 7.49973 20H16.5003C17.4285 20 18.3186 19.6313 18.975 18.975C19.6313 18.3186 20 17.4285 20 16.5003V7.49867C19.9997 6.57066 19.6309 5.68077 18.9746 5.02467C18.3183 4.36857 17.4283 4 16.5003 4Z" fill="#1B55A4"/>
<path d="M10.5717 12.7944C10.5717 12.7944 10.1669 12.8236 9.88851 12.8544C9.53332 12.8927 8.86772 13.0102 8.48372 13.1502C8.36772 13.1911 8.13333 13.2902 8.11333 13.4102C8.09253 13.5352 8.16773 13.6327 8.25333 13.7336C8.30212 13.7919 8.57972 14.0627 8.65732 14.1294C8.98372 14.4044 9.64532 14.831 10.1333 15.0377C10.3005 15.1085 10.5773 15.2094 10.5773 15.2094C10.5773 15.2094 10.5565 14.4094 10.5613 13.6219C10.5629 13.2052 10.5717 12.7944 10.5717 12.7944ZM17.9941 13.1127C18.0181 13.3277 17.9621 13.7336 17.9541 13.7877C17.9228 13.9382 17.8811 14.0861 17.8293 14.2302C17.7619 14.3864 17.6869 14.5388 17.6045 14.6869C17.4717 14.9285 17.1565 15.3135 16.9685 15.4777C16.2725 16.0885 15.1925 16.436 14.2677 16.551C13.5967 16.6313 12.918 16.6111 12.2525 16.491C12.0623 16.4537 11.8726 16.4132 11.6837 16.3694C11.6837 16.3694 11.6845 16.5077 11.6733 16.6052C11.6614 16.6732 11.6427 16.7397 11.6173 16.8035C11.5677 16.9052 11.4893 16.9568 11.3733 16.9785C11.2341 17.006 11.0861 17.0143 10.9573 16.9593C10.7461 16.8677 10.6693 16.6677 10.6333 16.4369C10.6037 16.251 10.5717 15.9285 10.5717 15.9285C10.5717 15.9285 10.4141 15.8535 10.2821 15.7869C9.88773 15.5883 9.51083 15.354 9.15572 15.0869C8.95693 14.9273 8.76246 14.7619 8.57252 14.5911C8.32452 14.3536 8.10213 14.1161 7.93253 13.8102C7.79973 13.5727 7.76213 13.3602 7.86213 13.1086C8.00133 12.7577 8.49812 12.4919 8.83812 12.3411C9.08852 12.2294 9.86451 11.9719 10.1877 11.9244C10.3232 11.9063 10.4578 11.8813 10.5909 11.8494C10.5962 11.846 10.6011 11.8418 10.6053 11.8369C10.6125 11.8261 10.6245 11.4778 10.6221 11.3503C10.6197 11.2253 10.7141 10.4036 10.7445 10.2295C10.7605 10.1345 10.8309 9.7728 10.9029 9.6778C10.9493 9.61447 11.0325 9.61863 11.0997 9.66113C11.4701 9.89446 11.5821 10.7028 11.6093 11.1153C11.6253 11.3661 11.6341 11.7436 11.6341 11.7436C11.6341 11.7436 12.0581 11.7311 12.3197 11.7378C12.5733 11.7444 12.8533 11.7853 13.1165 11.8278C13.4541 11.8819 14.1109 12.0278 14.4877 12.2219C14.7989 12.3803 15.0893 12.6502 15.1829 12.9344C15.2709 13.1952 15.2573 13.3761 15.1237 13.6111C14.9749 13.8777 14.6917 14.0744 14.4037 14.0902C14.3181 14.0961 13.9965 14.0527 13.8973 13.9752C13.8581 13.9436 13.8605 13.8877 13.8893 13.8502C13.8997 13.8361 14.0493 13.7561 14.1389 13.7086C14.1804 13.6858 14.2191 13.6578 14.2541 13.6252C14.3285 13.5586 14.3949 13.4869 14.3877 13.4019C14.3773 13.2919 14.2621 13.2236 14.1525 13.1802C13.6373 12.9727 12.6101 12.8002 12.1125 12.7702C11.9189 12.7594 11.6429 12.7494 11.6429 12.7494L11.7005 15.5294C11.7005 15.5294 11.9293 15.5744 12.1093 15.6044C12.2133 15.6194 12.6509 15.6594 12.7669 15.6627C13.6533 15.686 14.6429 15.606 15.4557 15.216C15.8125 15.046 16.1405 14.8344 16.3877 14.5469C16.7157 14.1669 16.8869 13.6469 16.8413 13.1044C16.7917 12.5103 16.3797 11.8069 16.0509 11.3778C15.1821 10.2445 13.6933 9.3128 12.3837 8.76698C11.0461 8.20949 9.72452 7.88866 8.30452 7.8345C7.93893 7.82116 7.14053 7.84033 6.73813 7.95366C6.67974 7.97033 6.62214 7.98949 6.56854 8.00116C6.52394 8.01261 6.48112 8.03057 6.44134 8.05449C6.43455 8.06103 6.42788 8.0677 6.42134 8.07449C6.42134 8.07449 6.44614 8.08866 6.46934 8.09949C6.51254 8.11866 6.69333 8.12949 6.78533 8.14616C6.86853 8.16282 6.95573 8.20699 6.98933 8.26949C7.02213 8.32782 7.02693 8.37365 6.98773 8.42282C6.89573 8.53615 6.55174 8.51615 6.40054 8.49282C6.24374 8.46699 6.04774 8.41782 6.01174 8.27949C5.97014 8.11532 6.04614 7.95449 6.12934 7.807C6.29574 7.5095 6.53334 7.35534 6.88293 7.25867C7.40312 7.11801 7.93576 7.03312 8.47252 7.00534C9.53252 6.96534 10.5357 7.15284 11.5621 7.4695C12.1493 7.6495 12.9197 7.95116 13.4821 8.22699C13.8861 8.42365 14.5221 8.78781 14.8805 9.02531C14.9933 9.10031 15.6533 9.59197 15.7557 9.67863C15.9701 9.85613 16.2501 10.1111 16.4517 10.3153C16.8437 10.7094 17.3317 11.3128 17.5693 11.7911C17.6253 11.9069 17.6701 12.0194 17.7429 12.1528C17.7685 12.1978 17.8773 12.4703 17.8949 12.5494C17.9125 12.6269 17.9389 12.7419 17.9429 12.7461C17.9485 12.7877 17.9981 13.0211 17.9941 13.1127Z" fill="white"/>
</svg>