<svg xmlns="http://www.w3.org/2000/svg" width="24" height="24" viewBox="0 0 24 24" fill="none">
<path d="M16.5003 4H7.49867C6.57066 4.00028 5.68077 4.36913 5.02467 5.02543C4.36857 5.68172 4 6.57173 4 7.49973V16.5003C4 17.4285 4.36872 18.3186 5.02505 18.975C5.68138 19.6313 6.57155 20 7.49973 20H16.5003C17.4285 20 18.3186 19.6313 18.975 18.975C19.6313 18.3186 20 17.4285 20 16.5003V7.49867C19.9997 6.57066 19.6309 5.68077 18.9746 5.02467C18.3183 4.36857 17.4283 4 16.5003 4Z" fill="#FB4B4E"/>
<path d="M15.6 8.08H16.2857V8.35756C16.3553 8.29636 16.5233 8.08 16.9714 8.08C17.4891 8.08 18 8.44936 18 9.07216V10.6202H17.3174V9.25576C17.3174 8.90872 17.1579 8.7046 16.8593 8.7046C16.5703 8.7046 16.2857 8.89864 16.2857 9.25576V10.6H15.6V8.08ZM12.6075 9.3886C12.6075 8.65348 13.1849 8.0512 13.9317 8.0512C14.6883 8.0512 15.2561 8.65348 15.2561 9.3886C15.2561 10.1234 14.6784 10.7256 13.9317 10.7256C13.1849 10.7156 12.6075 10.1234 12.6075 9.3886ZM13.3241 9.3886C13.3241 9.74572 13.5833 10.0316 13.9416 10.0316C14.3002 10.0316 14.5587 9.74572 14.5587 9.3886C14.5587 9.03112 14.3002 8.74528 13.9416 8.74528C13.5833 8.74528 13.3241 9.03112 13.3241 9.3886ZM8.32594 10.6H9.1824L9.93909 9.65392L10.417 10.1543L9.25783 11.68H10.1143L10.8747 10.6234L12.1714 12.04H13.2069L11.3328 10.0521L12.8565 8.08H12L10.8747 9.56212L10.3968 9.07216L11.6215 7.48996H10.7657L9.92914 8.59228L9.42857 8.08H8.41303L9.48069 9.1744L8.32594 10.6ZM6 7V10.5964L8.05714 10.6L8.06023 9.88H6.68571L6.68263 9.16H8.05714V8.44H6.68263V7.72H8.05714V7.0036L6 7ZM11.1429 14.3C10.3591 14.3 9.77143 14.9102 9.77143 15.655C9.77143 16.4002 10.3694 17 11.1429 17C11.9163 17 12.5143 16.3999 12.5143 15.655C12.5143 14.9102 11.9163 14.3 11.1429 14.3ZM11.1429 16.307C10.7715 16.307 10.5034 16.0172 10.5034 15.6554C10.5034 15.2932 10.7715 15.0034 11.1429 15.0034C11.5142 15.0034 11.7823 15.2932 11.7823 15.655C11.7823 16.0172 11.5142 16.307 11.1429 16.307ZM16.6286 13.4H15.9429V14.1038H16.6286V13.4ZM16.6286 14.3792H15.9429V17H16.6286V14.3792ZM18 13.4H17.3143V17H18V13.4ZM14.4096 14.318C13.9118 14.318 13.5826 14.5531 13.5429 14.5837V13.4H12.8571V16.9928H13.5429V16.82C13.5926 16.8607 13.9217 16.9928 14.4 16.9928C15.0271 16.9928 15.6045 16.4211 15.6045 15.6655C15.6045 14.9001 15.0569 14.318 14.4096 14.318ZM14.2406 16.2883C13.8819 16.2883 13.5446 16.0125 13.5446 15.6554C13.5446 15.2882 13.8819 15.0124 14.2406 15.0124C14.5989 15.0124 14.8577 15.2878 14.8577 15.6453C14.8577 16.0125 14.5889 16.2883 14.2406 16.2883ZM6 13.4V17H6.68571V14.48H6.71554L7.37143 17H8.05714L8.71303 14.48H8.74286V17H9.43097V13.4H8.26629L7.71429 15.92H7.6944L7.09097 13.4H6Z" fill="white"/>
</svg>