<svg xmlns="http://www.w3.org/2000/svg" width="24" height="24" viewBox="0 0 24 24" fill="none">
<path d="M16.5003 4H7.49867C6.57066 4.00028 5.68077 4.36913 5.02467 5.02543C4.36857 5.68172 4 6.57173 4 7.49973V16.5003C4 17.4285 4.36872 18.3186 5.02505 18.975C5.68138 19.6313 6.57155 20 7.49973 20H16.5003C17.4285 20 18.3186 19.6313 18.975 18.975C19.6313 18.3186 20 17.4285 20 16.5003V7.49867C19.9997 6.57066 19.6309 5.68077 18.9746 5.02467C18.3183 4.36857 17.4283 4 16.5003 4Z" fill="#F1F1F1"/>
<path d="M9.09288 11.9997C9.09288 11.6747 9.1486 11.364 9.24646 11.0725L7.52502 9.7854C7.17791 10.4718 6.99802 11.2305 7.00002 11.9997C7.00002 12.7968 7.18859 13.5468 7.52573 14.2147L9.24717 12.929C9.14598 12.6296 9.09388 12.3158 9.09288 11.9997Z" fill="#FFE15A"/>
<path d="M7.52539 9.78406L9.24683 11.0698C9.64397 9.89263 10.774 9.04548 12.1161 9.04548C12.8007 9.04366 13.4654 9.27604 13.9997 9.70406L15.4883 8.24976C14.5505 7.44224 13.3537 6.99862 12.1161 6.99976C10.0947 6.99976 8.35539 8.13191 7.52539 9.78406Z" fill="#FB4B4E"/>
<path d="M12.1165 11.0903V13.0225H14.8601C14.6044 14.2496 13.5351 14.9539 12.1165 14.9539C10.7723 14.9539 9.63939 14.1039 9.24439 12.9246L7.52295 14.2132C8.35581 15.8675 10.093 16.9989 12.1158 16.9989C14.6751 16.9996 17.0001 15.1818 17.0001 11.9996C17.0001 11.7046 16.9537 11.3868 16.8837 11.091L12.1165 11.0903Z" fill="#34A853"/>
<path d="M12.1157 11.0903V13.0225H14.86C14.7995 13.3306 14.6753 13.6227 14.4955 13.8801C14.3157 14.1375 14.0842 14.3546 13.8157 14.5175L15.4507 15.7539C16.3879 14.8996 16.9993 13.6289 16.9993 11.9996C16.9993 11.7039 16.9529 11.3853 16.8836 11.0903H12.1157Z" fill="#4285F4"/>
</svg>