<svg xmlns="http://www.w3.org/2000/svg" width="24" height="24" viewBox="0 0 24 24" fill="none">
<path d="M16.5003 4H7.49867C6.57066 4.00028 5.68077 4.36913 5.02467 5.02543C4.36857 5.68172 4 6.57173 4 7.49973V16.5003C4 17.4285 4.36872 18.3186 5.02505 18.975C5.68138 19.6313 6.57155 20 7.49973 20H16.5003C17.4285 20 18.3186 19.6313 18.975 18.975C19.6313 18.3186 20 17.4285 20 16.5003V7.49867C19.9997 6.57066 19.6309 5.68077 18.9746 5.02467C18.3183 4.36857 17.4283 4 16.5003 4Z" fill="#F1F1F1"/>
<path fill-rule="evenodd" clip-rule="evenodd" d="M6.42315 15.1538C6.13938 14.7393 6 14.1954 6 13.5756C6 12.4487 6.35221 11.2741 7.02198 10.367C7.61622 9.56256 8.47378 9 9.45737 9C10.027 9 10.5933 9.14806 11.1846 9.5721C11.4963 9.7955 11.8179 10.0885 12.1636 10.473C12.4446 10.1396 12.7477 9.8244 13.0737 9.57466C13.5561 9.20523 14.0765 9 14.6003 9C15.4795 9 16.317 9.44749 16.958 10.2868C17.6595 11.2059 18 12.3636 18 13.5584C18 14.2687 17.8406 14.7906 17.5694 15.2029C17.3237 15.5767 16.8594 15.9502 16.0943 15.9954C16.0433 15.9985 15.991 16 15.9373 16C15.4031 16 14.9299 15.8981 14.4066 15.4646C14.0043 15.1318 13.534 14.5406 13.1722 14.0092L12.096 12.4304C12.0653 12.3853 12.0347 12.341 12.0044 12.2973C11.9738 12.3449 11.9428 12.393 11.9115 12.4418L11.5334 13.03C10.774 14.2126 10.5816 14.482 10.2018 14.9265C9.53624 15.7049 8.96787 16 8.21964 16C7.33204 16 6.77076 15.6625 6.42315 15.1538ZM7.52817 14.5146C7.39672 14.3277 7.29615 14.0187 7.29615 13.6164C7.29615 12.6407 7.61121 11.6248 8.12575 10.9428C8.44414 10.5204 8.81687 10.2261 9.24809 10.1591C9.3097 10.1495 9.37249 10.1446 9.4365 10.1446C10.0691 10.1446 10.4656 10.492 10.774 10.7797C10.928 10.9235 11.1423 11.1605 11.3914 11.4721L10.8812 12.1606C10.7695 12.3113 10.6418 12.4884 10.505 12.6782C10.1781 13.1314 9.79931 13.6567 9.46279 14.0656C8.86688 14.7895 8.55766 14.8631 8.21964 14.8631C7.95757 14.8631 7.70051 14.7594 7.52817 14.5146ZM12.7526 11.186C12.9523 11.4463 13.161 11.7356 13.3809 12.0573L13.6892 12.5088C14.4338 13.598 14.8573 14.1584 15.1052 14.4226C15.424 14.762 15.6473 14.8631 15.9373 14.8631C16.0292 14.8631 16.1125 14.8539 16.188 14.8363C16.716 14.7134 16.8566 14.1845 16.8566 13.59C16.8566 12.6217 16.5995 11.5471 16.0333 10.7793C15.6314 10.2347 15.1105 9.90194 14.5376 9.90194C13.9179 9.90194 13.4192 10.3124 12.8588 11.0443C12.8235 11.0904 12.7881 11.1376 12.7526 11.186Z" fill="#0064E1"/>
</svg>