<svg xmlns="http://www.w3.org/2000/svg" width="24" height="24" viewBox="0 0 24 24" fill="none">
<path d="M16.5003 4H7.49867C6.57066 4.00028 5.68077 4.36913 5.02467 5.02543C4.36857 5.68172 4 6.57173 4 7.49973V16.5003C4 17.4285 4.36872 18.3186 5.02505 18.975C5.68138 19.6313 6.57155 20 7.49973 20H16.5003C17.4285 20 18.3186 19.6313 18.975 18.975C19.6313 18.3186 20 17.4285 20 16.5003V7.49867C19.9997 6.57066 19.6309 5.68077 18.9746 5.02467C18.3183 4.36857 17.4283 4 16.5003 4Z" fill="#F1F1F1"/>
<path d="M11.7653 7H7V11.7653H11.7653V7Z" fill="#FB4B4E"/>
<path d="M17.0009 7H12.2349V11.7653H17.0009V7Z" fill="#81BC06"/>
<path d="M11.7653 12.2354H7V16.9999H11.7653V12.2354Z" fill="#05A6F0"/>
<path d="M17.0009 12.2354H12.2349V16.9999H17.0009V12.2354Z" fill="#FFC223"/>
</svg>