<svg xmlns="http://www.w3.org/2000/svg" width="24" height="24" viewBox="0 0 24 24" fill="none">
<path d="M16.5003 4H7.49867C6.57066 4.00028 5.68077 4.36913 5.02467 5.02543C4.36857 5.68172 4 6.57173 4 7.49973V16.5003C4 17.4285 4.36872 18.3186 5.02505 18.975C5.68138 19.6313 6.57155 20 7.49973 20H16.5003C17.4285 20 18.3186 19.6313 18.975 18.975C19.6313 18.3186 20 17.4285 20 16.5003V7.49867C19.9997 6.57066 19.6309 5.68077 18.9746 5.02467C18.3183 4.36857 17.4283 4 16.5003 4Z" fill="#81BC06"/>
<path d="M7.22625 11.444C7.22625 11.444 8.31 9.8312 10.4775 9.664V9.08C8.0775 9.2736 6 11.3208 6 11.3208C6 11.3208 7.1775 14.748 10.4775 15.0624V14.44C8.055 14.1336 7.22625 11.444 7.22625 11.444ZM10.4775 13.204V13.7728C8.6475 13.4448 8.139 11.5272 8.139 11.5272C8.139 11.5272 9.01725 10.5464 10.4775 10.3872V11.012H10.4745C9.70875 10.9192 9.1095 11.64 9.1095 11.64C9.1095 11.64 9.4455 12.8544 10.4775 13.2032V13.204ZM10.4775 8V9.0792C10.548 9.0736 10.6185 9.0688 10.689 9.0664C13.4167 8.9744 15.1943 11.3208 15.1943 11.3208C15.1943 11.3208 13.1528 13.8216 11.0258 13.8216C10.8307 13.8216 10.6485 13.8032 10.4775 13.7736V14.44C10.6238 14.4592 10.776 14.4704 10.935 14.4704C12.9135 14.4704 14.3445 13.452 15.7305 12.2464C15.9608 12.432 16.9012 12.8832 17.0947 13.0808C15.777 14.192 12.7057 15.088 10.965 15.088C10.797 15.088 10.6358 15.0776 10.4775 15.0624V16H18V8H10.4775ZM10.4775 10.3872V9.664C10.5473 9.6592 10.617 9.656 10.689 9.6536C12.651 9.5912 13.938 11.352 13.938 11.352C13.938 11.352 12.5475 13.2968 11.0573 13.2968C10.8428 13.2968 10.65 13.2624 10.4775 13.2032V11.012C11.241 11.1048 11.3948 11.4448 11.8538 12.216L12.8752 11.3488C12.8752 11.3488 12.1297 10.364 10.8727 10.364C10.7362 10.364 10.6058 10.3736 10.4775 10.3872Z" fill="white"/>
</svg>