<svg xmlns="http://www.w3.org/2000/svg" width="24" height="24" viewBox="0 0 24 24" fill="none">
<path d="M16.5003 4H7.49867C6.57066 4.00028 5.68077 4.36913 5.02467 5.02543C4.36857 5.68172 4 6.57173 4 7.49973V16.5003C4 17.4285 4.36872 18.3186 5.02505 18.975C5.68138 19.6313 6.57155 20 7.49973 20H16.5003C17.4285 20 18.3186 19.6313 18.975 18.975C19.6313 18.3186 20 17.4285 20 16.5003V7.49867C19.9997 6.57066 19.6309 5.68077 18.9746 5.02467C18.3183 4.36857 17.4283 4 16.5003 4Z" fill="#FB4B4E"/>
<path fill-rule="evenodd" clip-rule="evenodd" d="M16.72 8.55923C15.2315 7.91234 13.6228 7.58829 12 7.60846C10.3772 7.58825 8.76846 7.91229 7.28 8.55923C7.08154 8.19769 7 7.97846 7 7.97846C8.59038 7.34105 10.2867 7.0091 12 7C13.4692 7.00615 15.1769 7.25385 17 7.97846C17 7.97846 16.9423 8.15615 16.72 8.55923ZM13.4 9.09769L12.0015 17L10.5908 9.09692C9.26615 9.09769 8.84615 9.24462 8.78538 9.84462C8.78538 9.84462 7.89077 9.50923 7.43923 8.82923C9.2 8.01 10.9692 7.97308 10.9692 7.97308L12 9.23462L13.0308 7.97231C13.0308 7.97231 14.8 8.01 16.5608 8.82923C16.11 9.50923 15.2146 9.84462 15.2146 9.84462C15.1546 9.24462 14.7338 9.09769 13.4 9.09769Z" fill="#F6F6F6"/>
</svg>