<svg xmlns="http://www.w3.org/2000/svg" width="87" height="87" viewBox="0 0 87 87" fill="none">
<path d="M14.1694 64.8453V54.4458" stroke="#1570EF" stroke-width="2.5" stroke-linecap="round"/>
<path d="M14.1694 23.1798V12.9016" stroke="#1570EF" stroke-width="2.5" stroke-linecap="round"/>
<path d="M22.7751 47.0137V52.1595C22.7751 53.4274 21.75 54.4593 20.4754 54.4593H7.86373C6.59583 54.4593 5.56396 53.4342 5.56396 52.1595V26.3698C5.56396 25.1019 6.58908 24.07 7.86373 24.07H20.4821C21.75 24.07 22.7819 25.0951 22.7819 26.3698V47.0137H22.7751Z" stroke="#1570EF" stroke-width="2.5" stroke-linecap="round"/>
<path d="M41.1733 78.8935V68.494" stroke="#1570EF" stroke-width="2.5" stroke-linecap="round"/>
<path d="M41.1733 29.3372V7.58722" stroke="#1570EF" stroke-width="2.5" stroke-linecap="round"/>
<path d="M43.4327 68.4939H34.8608C33.5929 68.4939 32.561 67.4688 32.561 66.1942V31.9539C32.561 30.686 33.5862 29.6542 34.8608 29.6542H47.4792C48.7471 29.6542 49.7789 30.6793 49.7789 31.9539V43.5607" stroke="#1570EF" stroke-width="2.5" stroke-linecap="round"/>
<path d="M68.7368 17.2179V9.81952" stroke="#1570EF" stroke-width="2.5" stroke-linecap="round"/>
<path d="M60.1313 37.3021V20.4079C60.1313 19.14 61.1565 18.1082 62.4311 18.1082H75.0495C76.3174 18.1082 77.3493 19.1333 77.3493 20.4079V42.1242" stroke="#1570EF" stroke-width="2.5" stroke-linecap="round"/>
<path d="M64.4742 78.1989C74.0653 78.1989 81.8405 70.4237 81.8405 60.8326C81.8405 51.2415 74.0653 43.4663 64.4742 43.4663C54.8831 43.4663 47.1079 51.2415 47.1079 60.8326C47.1079 70.4237 54.8831 78.1989 64.4742 78.1989Z" stroke="#1570EF" stroke-width="2.5" stroke-linecap="round"/>
<path d="M57.3931 61.5542L60.7247 65.0612C61.4126 65.7828 62.5456 65.8233 63.2807 65.1489L72.9182 56.314" stroke="#1570EF" stroke-width="2.5" stroke-linecap="round"/>
</svg>