<svg xmlns="http://www.w3.org/2000/svg" width="87" height="87" viewBox="0 0 87 87" fill="none">
<circle cx="29.3454" cy="47.2976" r="23.2619" stroke="#1570EF" stroke-width="2.5"/>
<path d="M41.774 36.9405V56C41.774 57.1045 40.8786 58 39.774 58H20.2979C19.1933 58 18.2979 57.1045 18.2979 56V38.5952C18.2979 37.4906 19.1933 36.5952 20.2979 36.5952H32.1788C33.2834 36.5952 34.1788 37.4906 34.1788 38.5952V54.5476" stroke="#1570EF" stroke-width="2.5" stroke-linecap="round"/>
<path d="M43.5 21.6849V10.5952C43.5 8.93836 44.8431 7.59521 46.5 7.59521H57.0714C58.7283 7.59521 60.0714 8.93836 60.0714 10.5952V29.6905" stroke="#1570EF" stroke-width="2.5" stroke-linecap="round"/>
<path d="M60.0713 46.2619V58" stroke="#1570EF" stroke-width="2.5" stroke-linecap="round"/>
<path d="M60.0713 35.2143V41.4286" stroke="#1570EF" stroke-width="2.5" stroke-linecap="round"/>
<path d="M57.3096 58H82.8572" stroke="#1570EF" stroke-width="2.5" stroke-linecap="round"/>
<path d="M66.9761 58V25.7857C66.9761 24.1289 68.3192 22.7857 69.9761 22.7857H77.0951C78.752 22.7857 80.0951 24.1289 80.0951 25.7857V58" stroke="#1570EF" stroke-width="2.5" stroke-linecap="round"/>
<path d="M41.0833 68.3572L50.78 78.3975C52.8659 80.5572 56.3173 80.5873 58.4405 78.4641V78.4641C60.5378 76.3668 60.5378 72.9664 58.4405 70.8691L51.7857 64.2143" stroke="#1570EF" stroke-width="2.5" stroke-linecap="round"/>
</svg>