<svg xmlns="http://www.w3.org/2000/svg" width="87" height="87" viewBox="0 0 87 87" fill="none">
<path d="M49.5152 35.809C48.5797 34.5617 46.8023 33.0026 43.4346 33.0026C39.2249 33.0026 36.8862 35.3413 36.8862 38.6155C36.8862 41.8897 40.1604 42.8251 43.4346 42.8251C46.7087 42.8251 49.9829 44.6961 49.9829 48.438C49.9829 51.2445 46.241 53.1154 43.4346 53.1154C40.6281 53.1154 36.4185 51.2445 36.4185 49.3735" stroke="#1570EF" stroke-width="2.5" stroke-linecap="round"/>
<path d="M43.4346 28.3256V33.003" stroke="#1570EF" stroke-width="2.5" stroke-linecap="round"/>
<path d="M43.4346 53.5835L43.4346 57.3254" stroke="#1570EF" stroke-width="2.5" stroke-linecap="round"/>
<mask id="path-4-outside-1_17049_614" maskUnits="userSpaceOnUse" x="10.4653" y="6.41861" width="65" height="73" fill="black">
<rect fill="white" x="10.4653" y="6.41861" width="65" height="73"/>
<path d="M11.63 16.077C11.521 16.1859 11.4556 16.3385 11.4665 16.491C13.4067 51.4785 23.6856 71.6364 42.8917 78.1304C42.9789 78.174 43.0661 78.2067 43.1642 78.2067C43.2405 78.2067 43.3168 78.1958 43.3822 78.1631C43.404 78.1631 43.4258 78.1413 43.4476 78.1304C56.4406 73.7284 65.5422 62.6253 70.5127 45.1043C70.5999 44.8101 70.4255 44.5159 70.1312 44.4287C69.8369 44.3524 69.5426 44.5159 69.4554 44.8101C64.6048 61.9279 55.7648 72.7913 43.1642 77.0844C24.5903 70.7538 14.5949 51.1189 12.5892 17.0576C25.2334 17.8095 35.2616 15.0636 43.1751 8.64582C51.0668 15.0527 61.0623 17.8204 73.7391 17.0794C73.2595 25.1861 72.3003 32.5737 70.8942 39.0678C70.8288 39.362 71.0141 39.6562 71.3084 39.7216C71.6027 39.787 71.897 39.6017 71.9624 39.3075C73.423 32.5955 74.404 24.9355 74.8728 16.5346C74.8728 16.3821 74.8183 16.2295 74.7093 16.1206C74.6003 16.0116 74.4368 15.9462 74.2841 15.968C61.4329 16.8288 51.372 14.0721 43.5239 7.54531C43.3168 7.38187 43.0334 7.37097 42.8263 7.54531C34.9564 14.0612 24.8846 16.807 12.0442 15.9244C11.8916 15.9026 11.739 15.968 11.6191 16.077"/>
</mask>
<path d="M11.63 16.077C11.521 16.1859 11.4556 16.3385 11.4665 16.491C13.4067 51.4785 23.6856 71.6364 42.8917 78.1304C42.9789 78.174 43.0661 78.2067 43.1642 78.2067C43.2405 78.2067 43.3168 78.1958 43.3822 78.1631C43.404 78.1631 43.4258 78.1413 43.4476 78.1304C56.4406 73.7284 65.5422 62.6253 70.5127 45.1043C70.5999 44.8101 70.4255 44.5159 70.1312 44.4287C69.8369 44.3524 69.5426 44.5159 69.4554 44.8101C64.6048 61.9279 55.7648 72.7913 43.1642 77.0844C24.5903 70.7538 14.5949 51.1189 12.5892 17.0576C25.2334 17.8095 35.2616 15.0636 43.1751 8.64582C51.0668 15.0527 61.0623 17.8204 73.7391 17.0794C73.2595 25.1861 72.3003 32.5737 70.8942 39.0678C70.8288 39.362 71.0141 39.6562 71.3084 39.7216C71.6027 39.787 71.897 39.6017 71.9624 39.3075C73.423 32.5955 74.404 24.9355 74.8728 16.5346C74.8728 16.3821 74.8183 16.2295 74.7093 16.1206C74.6003 16.0116 74.4368 15.9462 74.2841 15.968C61.4329 16.8288 51.372 14.0721 43.5239 7.54531C43.3168 7.38187 43.0334 7.37097 42.8263 7.54531C34.9564 14.0612 24.8846 16.807 12.0442 15.9244C11.8916 15.9026 11.739 15.968 11.6191 16.077" fill="#1570EF"/>
<path d="M11.4665 16.491L11.9159 16.4661L11.9154 16.459L11.4665 16.491ZM42.8917 78.1304L43.0929 77.7279L43.0652 77.7141L43.0358 77.7042L42.8917 78.1304ZM43.3822 78.1631V77.7131H43.276L43.181 77.7606L43.3822 78.1631ZM43.4476 78.1304L43.3032 77.7042L43.274 77.7141L43.2464 77.7279L43.4476 78.1304ZM70.5127 45.1043L70.0812 44.9764L70.0798 44.9815L70.5127 45.1043ZM70.1312 44.4287L70.259 43.9972L70.2516 43.995L70.2441 43.9931L70.1312 44.4287ZM69.4554 44.8101L69.0239 44.6822L69.0224 44.6874L69.4554 44.8101ZM43.1642 77.0844L43.019 77.5104L43.1642 77.5598L43.3093 77.5104L43.1642 77.0844ZM12.5892 17.0576L12.6159 16.6084L12.1102 16.5784L12.14 17.0841L12.5892 17.0576ZM43.1751 8.64582L43.4587 8.29646L43.1752 8.06631L42.8916 8.29631L43.1751 8.64582ZM73.7391 17.0794L74.1884 17.106L74.2183 16.6007L73.7129 16.6302L73.7391 17.0794ZM70.8942 39.0678L71.3335 39.1655L71.334 39.163L70.8942 39.0678ZM71.9624 39.3075L72.4017 39.4052L72.4021 39.4032L71.9624 39.3075ZM74.8728 16.5346L75.3221 16.5597L75.3228 16.5472V16.5346H74.8728ZM74.2841 15.968L74.3142 16.417L74.3311 16.4159L74.3478 16.4135L74.2841 15.968ZM43.5239 7.54531L43.8117 7.19921L43.8027 7.19206L43.5239 7.54531ZM42.8263 7.54531L43.1133 7.89194L43.1161 7.88957L42.8263 7.54531ZM12.0442 15.9244L11.9806 16.3699L11.9969 16.3722L12.0134 16.3734L12.0442 15.9244ZM11.3119 15.7587C11.1234 15.9471 10.9962 16.2232 11.0177 16.5231L11.9154 16.459C11.9153 16.4573 11.9152 16.4495 11.9205 16.4362C11.926 16.4227 11.9355 16.4079 11.9482 16.3952L11.3119 15.7587ZM11.0172 16.516C12.9595 51.5415 23.2615 71.968 42.7475 78.5567L43.0358 77.7042C24.1096 71.3047 13.8539 51.4155 11.9158 16.4661L11.0172 16.516ZM42.6905 78.533C42.8012 78.5883 42.9629 78.6567 43.1642 78.6567V77.7567C43.1693 77.7567 43.1565 77.7597 43.0929 77.7279L42.6905 78.533ZM43.1642 78.6567C43.2772 78.6567 43.4314 78.6416 43.5834 78.5657L43.181 77.7606C43.1929 77.7547 43.199 77.754 43.1954 77.7547C43.1915 77.7554 43.1816 77.7567 43.1642 77.7567V78.6567ZM43.3822 78.6131C43.4625 78.6131 43.5268 78.5932 43.5678 78.5765C43.6081 78.5602 43.6387 78.5417 43.6533 78.5325C43.6637 78.526 43.6843 78.5123 43.6781 78.5164C43.6781 78.5164 43.678 78.5164 43.678 78.5165C43.6779 78.5165 43.6778 78.5166 43.6777 78.5167C43.6774 78.5169 43.677 78.5171 43.6764 78.5175C43.6754 78.5182 43.6736 78.5192 43.6713 78.5206C43.6669 78.5232 43.6592 78.5278 43.6488 78.533L43.2464 77.7279C43.2166 77.7428 43.1932 77.7581 43.1844 77.7639C43.1818 77.7656 43.1794 77.7672 43.1778 77.7683C43.1757 77.7697 43.1753 77.77 43.1742 77.7707C43.1725 77.7718 43.1738 77.7709 43.1765 77.7692C43.1802 77.7669 43.1999 77.7545 43.2292 77.7426C43.2594 77.7304 43.3128 77.7131 43.3822 77.7131V78.6131ZM43.592 78.5566C56.7692 74.0922 65.9493 62.8391 70.9456 45.2271L70.0798 44.9815C65.1351 62.4114 56.112 73.3646 43.3032 77.7042L43.592 78.5566ZM70.9441 45.2322C71.1075 44.681 70.7725 44.1494 70.259 43.9972L70.0034 44.8602C70.0405 44.8712 70.0632 44.8928 70.0746 44.9127C70.0851 44.931 70.0887 44.9514 70.0812 44.9764L70.9441 45.2322ZM70.2441 43.9931C69.7173 43.8566 69.1807 44.1533 69.0239 44.6822L69.8868 44.938C69.8968 44.9042 69.9159 44.8841 69.936 44.8728C69.9564 44.8613 69.9842 44.8555 70.0183 44.8643L70.2441 43.9931ZM69.0224 44.6874C64.1972 61.7159 55.4346 72.4284 43.0191 76.6585L43.3093 77.5104C56.0949 73.1543 65.0125 62.1399 69.8883 44.9328L69.0224 44.6874ZM43.3094 76.6585C25.0144 70.4229 15.0419 51.056 13.0385 17.0312L12.14 17.0841C14.1478 51.1819 24.1662 71.0846 43.019 77.5104L43.3094 76.6585ZM12.5625 17.5068C25.2898 18.2636 35.4375 15.5004 43.4585 8.99533L42.8916 8.29631C35.0857 14.6269 25.177 17.3553 12.6159 16.6084L12.5625 17.5068ZM42.8915 8.99518C50.8904 15.4891 61.005 18.2745 73.7654 17.5287L73.7129 16.6302C61.1195 17.3662 51.2432 14.6164 43.4587 8.29646L42.8915 8.99518ZM73.2899 17.0528C72.8114 25.1411 71.8547 32.5052 70.4544 38.9726L71.334 39.163C72.7459 32.6422 73.7077 25.2312 74.1884 17.106L73.2899 17.0528ZM70.4549 38.9702C70.3361 39.5047 70.6716 40.0411 71.2108 40.1609L71.406 39.2823C71.3567 39.2713 71.3215 39.2194 71.3335 39.1655L70.4549 38.9702ZM71.2108 40.1609C71.7451 40.2796 72.2818 39.9446 72.4017 39.4052L71.5231 39.2099C71.5122 39.2589 71.4603 39.2944 71.406 39.2823L71.2108 40.1609ZM72.4021 39.4032C73.8688 32.6636 74.8523 24.9794 75.3221 16.5597L74.4235 16.5096C73.9558 24.8916 72.9773 32.5275 71.5227 39.2118L72.4021 39.4032ZM75.3228 16.5346C75.3228 16.2798 75.2322 16.007 75.0274 15.8023L74.3911 16.4388C74.4043 16.452 74.4228 16.4844 74.4228 16.5346H75.3228ZM75.0274 15.8023C74.8344 15.6094 74.5344 15.4777 74.2205 15.5225L74.3478 16.4135C74.34 16.4146 74.3433 16.4123 74.3568 16.4173C74.3703 16.4223 74.3831 16.4308 74.3911 16.4388L75.0274 15.8023ZM74.2541 15.519C61.4866 16.3742 51.5494 13.6343 43.8116 7.19932L43.2362 7.8913C51.1946 14.5099 61.3791 17.2834 74.3142 16.417L74.2541 15.519ZM43.8027 7.19206C43.4445 6.90943 42.9226 6.87599 42.5365 7.20105L43.1161 7.88957C43.1358 7.87297 43.1534 7.86843 43.1701 7.86861C43.1889 7.86882 43.2161 7.87568 43.2451 7.89856L43.8027 7.19206ZM42.5393 7.19869C34.7797 13.6233 24.8314 16.3523 12.0751 15.4755L12.0134 16.3734C24.9378 17.2617 35.1331 14.4991 43.1133 7.89193L42.5393 7.19869ZM12.1078 15.479C11.784 15.4327 11.5027 15.5747 11.3165 15.744L11.9218 16.41C11.9456 16.3884 11.966 16.3773 11.9782 16.3727C11.9894 16.3685 11.9891 16.3711 11.9806 16.3699L12.1078 15.479Z" fill="#1570EF" mask="url(#path-4-outside-1_17049_614)"/>
<mask id="path-6-outside-2_17049_614" maskUnits="userSpaceOnUse" x="16.5347" y="13.1628" width="53" height="60" fill="black">
<rect fill="white" x="16.5347" y="13.1628" width="53" height="60"/>
<path d="M18.9565 29.7688C18.6622 29.8124 18.4551 30.0848 18.4987 30.3898C21.8232 52.8686 29.7803 66.3689 42.8278 71.6753C42.8932 71.6971 42.9586 71.7189 43.0349 71.7189C43.1112 71.7189 43.1766 71.708 43.242 71.6753C57.8046 65.7478 66.0779 49.5126 68.5522 22.0434C68.5631 21.8909 68.5195 21.7492 68.4214 21.6294C68.3233 21.5204 68.1816 21.455 68.029 21.4441C58.5132 21.1826 50.2072 18.7637 43.351 14.2527C43.1657 14.1328 42.9368 14.1328 42.7515 14.2527C35.8735 18.7746 27.5676 21.1826 18.0626 21.4332C17.91 21.4332 17.7683 21.5095 17.6702 21.6185C17.5721 21.7274 17.5176 21.88 17.5394 22.0325C17.6811 23.5798 17.8337 25.0834 18.0081 26.5544C18.0408 26.8595 18.3243 27.0665 18.6077 27.0338C18.902 27.0011 19.12 26.7287 19.0873 26.4345C18.9347 25.1597 18.793 23.8522 18.6731 22.5119C28.0145 22.1851 36.2114 19.777 43.0567 15.3641C49.8911 19.777 58.0771 22.1851 67.4295 22.5228C64.9442 49.0658 56.9653 64.7998 43.0567 70.5857C30.5215 65.3773 22.8478 52.1712 19.5996 30.2264C19.556 29.9322 19.2835 29.7252 18.9783 29.7688"/>
</mask>
<path d="M18.9565 29.7688C18.6622 29.8124 18.4551 30.0848 18.4987 30.3898C21.8232 52.8686 29.7803 66.3689 42.8278 71.6753C42.8932 71.6971 42.9586 71.7189 43.0349 71.7189C43.1112 71.7189 43.1766 71.708 43.242 71.6753C57.8046 65.7478 66.0779 49.5126 68.5522 22.0434C68.5631 21.8909 68.5195 21.7492 68.4214 21.6294C68.3233 21.5204 68.1816 21.455 68.029 21.4441C58.5132 21.1826 50.2072 18.7637 43.351 14.2527C43.1657 14.1328 42.9368 14.1328 42.7515 14.2527C35.8735 18.7746 27.5676 21.1826 18.0626 21.4332C17.91 21.4332 17.7683 21.5095 17.6702 21.6185C17.5721 21.7274 17.5176 21.88 17.5394 22.0325C17.6811 23.5798 17.8337 25.0834 18.0081 26.5544C18.0408 26.8595 18.3243 27.0665 18.6077 27.0338C18.902 27.0011 19.12 26.7287 19.0873 26.4345C18.9347 25.1597 18.793 23.8522 18.6731 22.5119C28.0145 22.1851 36.2114 19.777 43.0567 15.3641C49.8911 19.777 58.0771 22.1851 67.4295 22.5228C64.9442 49.0658 56.9653 64.7998 43.0567 70.5857C30.5215 65.3773 22.8478 52.1712 19.5996 30.2264C19.556 29.9322 19.2835 29.7252 18.9783 29.7688" fill="#1570EF"/>
<path d="M18.4987 30.3898L18.0532 30.4535L18.0535 30.4557L18.4987 30.3898ZM42.8278 71.6753L42.6583 72.0921L42.6718 72.0976L42.6856 72.1022L42.8278 71.6753ZM43.242 71.6753L43.0724 71.2585L43.0563 71.265L43.0408 71.2728L43.242 71.6753ZM68.5522 22.0434L69.0005 22.0838L69.0011 22.0755L68.5522 22.0434ZM68.4214 21.6294L68.7696 21.3443L68.7629 21.3361L68.7558 21.3283L68.4214 21.6294ZM68.029 21.4441L68.061 20.9953L68.0512 20.9946L68.0414 20.9943L68.029 21.4441ZM43.351 14.2527L43.5984 13.8767L43.5954 13.8748L43.351 14.2527ZM42.7515 14.2527L42.5071 13.8748L42.5043 13.8767L42.7515 14.2527ZM18.0626 21.4332V21.8834L18.0745 21.8831L18.0626 21.4332ZM17.5394 22.0325L17.9876 21.9915L17.9865 21.9801L17.9849 21.9688L17.5394 22.0325ZM18.0081 26.5544L18.4556 26.5064L18.455 26.5014L18.0081 26.5544ZM18.6077 27.0338L18.558 26.5866L18.5561 26.5868L18.6077 27.0338ZM19.0873 26.4345L19.5345 26.3848L19.5341 26.3811L19.0873 26.4345ZM18.6731 22.5119L18.6573 22.0622L18.1825 22.0788L18.2248 22.552L18.6731 22.5119ZM43.0567 15.3641L43.3008 14.986L43.0569 14.8285L42.8129 14.9859L43.0567 15.3641ZM67.4295 22.5228L67.8775 22.5648L67.922 22.0903L67.4457 22.0731L67.4295 22.5228ZM43.0567 70.5857L42.8841 71.0012L43.0568 71.073L43.2296 71.0012L43.0567 70.5857ZM19.5996 30.2264L20.0447 30.1605L20.0447 30.1604L19.5996 30.2264ZM18.8905 29.3236C18.3503 29.4036 17.9747 29.9042 18.0532 30.4535L18.9441 30.3262C18.9354 30.2653 18.974 30.2211 19.0224 30.2139L18.8905 29.3236ZM18.0535 30.4557C21.3864 52.9906 29.3882 66.6952 42.6583 72.0921L42.9973 71.2584C30.1724 66.0425 22.2601 52.7465 18.9438 30.324L18.0535 30.4557ZM42.6856 72.1022C42.744 72.1217 42.8754 72.1689 43.0349 72.1689V71.2689C43.0405 71.2689 43.0412 71.2698 43.0323 71.2677C43.0274 71.2665 43.0204 71.2646 43.0099 71.2614C42.9989 71.2579 42.9872 71.2541 42.9701 71.2484L42.6856 72.1022ZM43.0349 72.1689C43.1583 72.1689 43.2977 72.1505 43.4432 72.0778L43.0408 71.2728C43.0425 71.2719 43.045 71.2708 43.0479 71.2699C43.0508 71.2689 43.0531 71.2683 43.0543 71.2681C43.0566 71.2676 43.0519 71.2689 43.0349 71.2689V72.1689ZM43.4117 72.0921C58.2229 66.0634 66.5227 49.5896 69.0004 22.0838L68.104 22.003C65.633 49.4355 57.3864 65.4322 43.0724 71.2585L43.4117 72.0921ZM69.0011 22.0755C69.02 21.8103 68.9418 21.5547 68.7696 21.3443L68.0732 21.9144C68.0972 21.9437 68.1062 21.9714 68.1034 22.0113L69.0011 22.0755ZM68.7558 21.3283C68.5731 21.1253 68.3193 21.0137 68.061 20.9953L67.9969 21.893C68.0438 21.8963 68.0735 21.9155 68.087 21.9305L68.7558 21.3283ZM68.0414 20.9943C58.5955 20.7347 50.374 18.3347 43.5984 13.8767L43.1037 14.6286C50.0404 19.1926 58.4308 21.6305 68.0166 21.894L68.0414 20.9943ZM43.5954 13.8748C43.2614 13.6588 42.8412 13.6588 42.5071 13.8748L42.9959 14.6305C43.0325 14.6069 43.0701 14.6069 43.1066 14.6305L43.5954 13.8748ZM42.5043 13.8767C35.707 18.3455 27.4856 20.7346 18.0508 20.9834L18.0745 21.8831C27.6496 21.6306 36.0401 19.2036 42.9987 14.6287L42.5043 13.8767ZM18.0626 20.9832C17.7596 20.9832 17.5026 21.1321 17.3358 21.3174L18.0047 21.9196C18.0173 21.9055 18.0315 21.8952 18.0439 21.8891C18.0557 21.8834 18.062 21.8832 18.0626 21.8832V20.9832ZM17.3358 21.3174C17.1578 21.5151 17.0514 21.7984 17.094 22.0962L17.9849 21.9688C17.9845 21.9658 17.9843 21.9591 17.9876 21.949C17.991 21.9385 17.9972 21.9279 18.0047 21.9196L17.3358 21.3174ZM17.0913 22.0736C17.2333 23.6236 17.3863 25.1314 17.5613 26.6074L18.455 26.5014C18.2812 25.0355 18.129 23.536 17.9876 21.9915L17.0913 22.0736ZM17.5607 26.6024C17.6213 27.1675 18.1392 27.5409 18.6592 27.4809L18.5561 26.5868C18.5388 26.5888 18.5134 26.5837 18.4901 26.5655C18.4687 26.5489 18.4579 26.5285 18.4556 26.5064L17.5607 26.6024ZM18.6573 27.4811C19.1985 27.421 19.5947 26.9262 19.5345 26.3848L18.64 26.4843C18.6423 26.5049 18.6364 26.529 18.6187 26.5511C18.6011 26.5731 18.5788 26.5843 18.558 26.5866L18.6573 27.4811ZM19.5341 26.3811C19.3819 25.1096 19.2407 23.8066 19.1213 22.4718L18.2248 22.552C18.3452 23.8977 18.4874 25.2098 18.6405 26.488L19.5341 26.3811ZM18.6888 22.9617C28.0994 22.6324 36.3777 20.2052 43.3005 15.7423L42.8129 14.9859C36.0451 19.3488 27.9296 21.7378 18.6573 22.0622L18.6888 22.9617ZM42.8126 15.7421C49.7247 20.2052 57.9921 22.6323 67.4132 22.9725L67.4457 22.0731C58.1622 21.7378 50.0576 19.3488 43.3008 14.986L42.8126 15.7421ZM66.9814 22.4809C64.4995 48.9888 56.5468 64.4866 42.8839 70.1702L43.2296 71.0012C57.3839 65.1131 65.389 49.1428 67.8775 22.5648L66.9814 22.4809ZM43.2294 70.1701C30.9158 65.0539 23.2851 52.0522 20.0447 30.1605L19.1544 30.2923C22.4105 52.2902 30.1272 65.7008 42.8841 71.0012L43.2294 70.1701ZM20.0447 30.1604C19.9646 29.6201 19.4637 29.2449 18.9146 29.3233L19.0419 30.2142C19.1032 30.2055 19.1473 30.2444 19.1544 30.2924L20.0447 30.1604Z" fill="#1570EF" mask="url(#path-6-outside-2_17049_614)"/>
</svg>