<svg xmlns="http://www.w3.org/2000/svg" width="87" height="87" viewBox="0 0 87 87" fill="none">
<path d="M17.5349 33.5193L38.3967 42.3183C41.8754 43.7856 45.7994 43.7856 49.2781 42.3183L79.0978 29.7411C81.5433 28.7096 81.5433 25.2441 79.0978 24.2127L49.2781 11.6354C45.7994 10.1682 41.8754 10.1682 38.3967 11.6354L8.09307 24.4168C5.82814 25.3721 5.82814 28.5817 8.09307 29.537V29.537" stroke="#1570EF" stroke-width="2.5" stroke-linecap="round"/>
<path d="M20.2324 40.4651V58.2033C20.2324 66.2854 30.3477 72.8372 42.8254 72.8372C55.3032 72.8372 65.4185 66.2854 65.4185 58.2033V48.8907" stroke="#1570EF" stroke-width="2.5" stroke-linecap="round"/>
<path d="M42.8254 66.093C30.3477 66.093 20.2324 59.5412 20.2324 51.4591V35.0698M65.4185 42.1465V51.4591C65.4185 55.0805 63.3875 58.3948 60.0231 60.95M48.2208 65.6731C51.6235 65.1331 54.7236 64.0938 57.3254 62.682" stroke="#1570EF" stroke-width="2.5" stroke-linecap="round"/>
<path d="M50.6801 26.3023C50.6801 26.7191 50.332 27.4023 49.0803 28.0554C47.8889 28.677 46.1564 29.0988 44.1743 29.0988C42.1921 29.0988 40.4596 28.677 39.2683 28.0554C38.0165 27.4023 37.6685 26.7191 37.6685 26.3023C37.6685 25.8856 38.0165 25.2023 39.2683 24.5492C40.4596 23.9277 42.1921 23.5058 44.1743 23.5058C46.1564 23.5058 47.8889 23.9277 49.0803 24.5492C50.332 25.2023 50.6801 25.8856 50.6801 26.3023Z" stroke="#1570EF" stroke-width="2.5"/>
<path d="M15.6104 60.0232C15.6104 61.1952 14.6603 62.1453 13.4883 62.1453C12.3163 62.1453 11.3662 61.1952 11.3662 60.0232C11.3662 58.8512 12.3163 57.9012 13.4883 57.9012C14.6603 57.9012 15.6104 58.8512 15.6104 60.0232Z" stroke="#1570EF" stroke-width="2.5"/>
<rect x="10.6919" y="63.9709" width="5.59302" height="10.9884" rx="2.79651" stroke="#1570EF" stroke-width="2.5"/>
<path d="M13.4883 56.9884V31.5292C13.4883 31.0421 13.8392 30.6259 14.3193 30.5436L37.0929 26.6395" stroke="#1570EF" stroke-width="2.5" stroke-linecap="round"/>
</svg>